<svg width="128" height="20" viewBox="0 0 128 20" fill="none" xmlns="http://www.w3.org/2000/svg">
<g clip-path="url(#clip0_432_2795)">
<path d="M26.7435 3.99707V13.8218H33.6138V15.803H26.7435C26.4824 15.8057 26.2234 15.7563 25.9817 15.6578C25.7399 15.5592 25.5202 15.4134 25.3355 15.2289C25.1507 15.0444 25.0046 14.825 24.9057 14.5834C24.8068 14.3418 24.757 14.0828 24.7594 13.8218V3.99707H26.7435Z" fill="#59605A"/>
<path d="M95.7543 5.98126V8.9095H101.707C101.968 8.90517 102.228 8.95355 102.471 9.05176C102.713 9.14998 102.933 9.29601 103.118 9.48116C103.303 9.66632 103.449 9.88679 103.547 10.1295C103.645 10.3721 103.693 10.632 103.688 10.8936V13.8219C103.691 14.0828 103.641 14.3416 103.543 14.5832C103.444 14.8248 103.298 15.0443 103.114 15.2288C102.929 15.4134 102.71 15.5592 102.468 15.6578C102.226 15.7564 101.968 15.8058 101.707 15.8031H95.7543C95.4933 15.8058 95.2345 15.7564 94.9929 15.6578C94.7513 15.5592 94.5318 15.4134 94.3473 15.2288C94.1628 15.0443 94.0169 14.8248 93.9183 14.5832C93.8197 14.3416 93.7703 14.0828 93.7731 13.8219H101.707V10.8936H95.7543C95.2325 10.8803 94.7358 10.667 94.367 10.2976C93.9982 9.92828 93.7856 9.43129 93.7731 8.9095V5.98126C93.7703 5.7202 93.8197 5.46121 93.9183 5.21945C94.0169 4.97769 94.1626 4.75801 94.3471 4.57327C94.5316 4.38852 94.7511 4.24241 94.9927 4.14349C95.2343 4.04457 95.4932 3.99482 95.7543 3.99715H101.707C101.968 3.99482 102.227 4.04457 102.468 4.14349C102.71 4.24241 102.929 4.38852 103.114 4.57327C103.298 4.75801 103.444 4.97769 103.543 5.21945C103.641 5.46121 103.691 5.7202 103.688 5.98126H95.7543Z" fill="#59605A"/>
<path d="M0.534519 9.89983C0.54485 11.7207 1.09429 13.4978 2.11352 15.0068C3.13274 16.5158 4.57608 17.6891 6.26142 18.3786C7.94676 19.0682 9.79859 19.2431 11.5832 18.8813C13.3679 18.5196 15.0054 17.6373 16.2892 16.3458C17.5729 15.0544 18.4454 13.4116 18.7965 11.6249C19.1476 9.83809 18.9616 7.98734 18.262 6.30615C17.5624 4.62495 16.3805 3.18865 14.8655 2.17845C13.3504 1.16825 11.5701 0.629436 9.74917 0.62998C8.53465 0.630728 7.33223 0.871414 6.211 1.33821C5.08976 1.80501 4.07179 2.48873 3.21556 3.35009C2.35933 4.21145 1.6817 5.23348 1.22161 6.35749C0.761515 7.48149 0.528014 8.68532 0.534519 9.89983ZM19.5942 9.89983C19.6035 11.1937 19.355 12.4764 18.8631 13.6731C18.3712 14.8698 17.6458 15.9566 16.7293 16.8699C15.8128 17.7831 14.7235 18.5047 13.525 18.9923C12.3266 19.4799 11.043 19.7239 9.74917 19.71C4.23549 19.71 0 15.4251 0 9.89983C0 4.37452 4.23549 0.115796 9.74917 0.115796C11.0415 0.0991577 12.3242 0.340415 13.5222 0.825454C14.7201 1.31049 15.8093 2.02957 16.7261 2.94062C17.6428 3.85167 18.3686 4.93639 18.8611 6.13133C19.3536 7.32626 19.6028 8.60742 19.5942 9.89983Z" fill="#59605A"/>
<path d="M9.74896 4.07837C10.8981 4.07837 12.0214 4.41912 12.9768 5.05753C13.9323 5.69594 14.6769 6.60334 15.1167 7.66497C15.5564 8.72661 15.6715 9.89481 15.4473 11.0218C15.2231 12.1489 14.6698 13.1841 13.8572 13.9966C13.0447 14.8092 12.0095 15.3625 10.8824 15.5867C9.7554 15.8109 8.58721 15.6958 7.52557 15.2561C6.46393 14.8164 5.55654 14.0717 4.91813 13.1162C4.27971 12.1608 3.93896 11.0375 3.93896 9.88836C3.9428 8.34864 4.55615 6.87307 5.64491 5.78431C6.73366 4.69556 8.20923 4.0822 9.74896 4.07837Z" fill="#59605A"/>
<path d="M61.0629 3.99707V13.8218H67.9332V15.803H61.0629C60.8019 15.8057 60.5431 15.7563 60.3015 15.6577C60.0599 15.5591 59.8404 15.4133 59.6559 15.2288C59.4714 15.0442 59.3255 14.8248 59.2269 14.5832C59.1283 14.3416 59.0789 14.0827 59.0816 13.8218V3.99707H61.0629Z" fill="#59605A"/>
<path d="M37.3611 13.8218V10.8935H43.4325V8.90942H37.3611V5.98118H45.2481V3.99707H35.377V15.803H45.2481V13.8218H37.3611Z" fill="#59605A"/>
<path d="M71.5793 13.8218V10.8935H77.6508V8.90942H71.5793V5.98118H79.4664V3.99707H69.5952V15.803H79.4664V13.8218H71.5793Z" fill="#59605A"/>
<path d="M115.456 5.98118V3.99707H105.588V15.803H115.456V13.8218H107.572V10.8935H113.643V8.90942H107.572V5.98118H115.456Z" fill="#59605A"/>
<path d="M55.2735 9.84754C55.2735 11.5586 55.2095 12.6247 54.7941 13.1331C54.5908 13.3704 54.3344 13.5565 54.0457 13.6761C53.7569 13.7957 53.4441 13.8456 53.1325 13.8216H49.234V5.96065H53.1325C53.4447 5.93817 53.7579 5.98958 54.0466 6.11071C54.3353 6.23184 54.5914 6.41929 54.7941 6.65785C55.2095 7.16623 55.2735 8.1365 55.2735 9.85335V9.84754ZM57.307 9.85335C57.307 8.15974 57.4348 6.34702 56.145 5.08044C55.7774 4.71447 55.3373 4.42951 54.853 4.24389C54.3687 4.05827 53.8509 3.97611 53.3329 4.00269H47.2324V15.8028H52.4614H53.3329C53.8509 15.8294 54.3687 15.7472 54.853 15.5616C55.3373 15.376 55.7774 15.091 56.145 14.725C57.4232 13.4585 57.307 11.5499 57.307 9.85625" fill="#59605A"/>
<path d="M125.267 8.9792H119.297V5.98124H125.267V8.9792ZM127.248 8.93272V5.98124C127.25 5.72028 127.2 5.46147 127.102 5.21989C127.003 4.97831 126.857 4.75879 126.673 4.57412C126.488 4.38945 126.269 4.24333 126.028 4.14427C125.786 4.04521 125.528 3.99519 125.267 3.99712H117.333V15.803H119.314V10.9633H122.219L125.83 15.803H128L124.543 10.9633H125.267C125.792 10.9371 126.289 10.7128 126.657 10.3357C127.024 9.95848 127.235 9.45626 127.248 8.92981" fill="#59605A"/>
<path d="M81.4473 4.00879H88.1084C90.5138 4.00879 92.1173 5.7024 92.1173 8.4912V15.8031H90.1332V8.73231C90.1332 6.63781 88.8637 5.9929 87.8876 5.9929H83.4314V15.8031H81.4473V4.00879Z" fill="#59605A"/>
</g>
<defs>
<clipPath id="clip0_432_2795">
<rect width="128" height="19.5942" fill="white" transform="translate(0 0.115967)"/>
</clipPath>
</defs>
</svg>
