<svg width="128" height="29" viewBox="0 0 128 29" fill="none" xmlns="http://www.w3.org/2000/svg">
<g clip-path="url(#clip0_432_2929)">
<path d="M118.606 19.4969C117.377 20.725 115.704 21.3926 113.971 21.3926H112.76H106.762H90.1733H85.1322C84.6252 21.3926 84.1188 21.3919 83.6117 21.3914C83.031 21.3908 82.4502 21.3895 81.8694 21.3888C81.2801 21.1356 80.7261 20.8015 80.2275 20.3989C79.3296 19.6739 78.615 18.725 78.1661 17.662C77.2459 15.4877 77.4939 12.9224 78.816 10.966C79.4581 10.0172 80.3261 9.2328 81.3362 8.69313C81.5692 8.56914 81.7624 8.4334 82.0201 8.4334H86.0758H102.389C105.668 8.4334 108.948 8.43798 112.227 8.43798C113.06 8.43798 113.915 8.38577 114.744 8.47713C116.381 8.65659 117.909 9.47491 118.973 10.7304C121.127 13.2715 120.957 17.1432 118.606 19.497V19.4969ZM9.39788 10.3335C10.6117 9.11193 12.2796 8.43326 13.9991 8.43326H14.593H17.9165H30.868H47.9692H64.113H74.1913H75.3887C73.1269 12.4211 73.1256 17.3995 75.3861 21.388H69.5398H55.4078H38.0965H22.7128H14.3646C12.7827 21.388 11.2733 21.0167 10.0008 20.0261C6.97359 17.6697 6.6708 13.0436 9.39787 10.3335H9.39788ZM122.262 6.24911C119.59 3.8679 116.049 2.65869 112.492 2.65869H111.005H102.877H89.5853H73.1752H55.6903H39.1778H25.6814H17.2476H15.5679C12.3905 2.65869 9.24061 3.58338 6.67667 5.48757C2.95182 8.25445 0.922331 12.9262 2.03235 17.5144C3.12866 22.0439 6.98468 25.4046 11.3823 26.6203C13.682 27.2566 16.0129 27.1672 18.3655 27.1672H27.9184H42.145H59.0002H76.4381H92.4136H104.881H111.795C112.746 27.1672 113.689 27.1554 114.633 27.0269C119.149 26.4134 123.427 23.6733 125.312 19.4369C127.355 14.8434 125.956 9.55176 122.262 6.24911Z" fill="#F8F6F4"/>
<path d="M125.398 14.9109C125.398 11.7994 123.991 8.97837 121.675 6.90386C119.356 4.83456 116.13 3.53791 112.553 3.53791H15.4473C11.8699 3.53791 8.64424 4.83456 6.32828 6.90386C4.0084 8.97837 2.60212 11.7994 2.60212 14.9109C2.60212 18.0269 4.0084 20.8479 6.32828 22.9218C8.64424 24.9917 11.8699 26.2884 15.4473 26.2884H112.553C116.13 26.2884 119.356 24.9917 121.675 22.9218C123.991 20.8479 125.398 18.0269 125.398 14.9109ZM127.169 14.9109C127.173 18.5718 125.503 21.8803 122.853 24.2445C120.203 26.6088 116.561 28.0594 112.553 28.0594H15.4473C11.4438 28.0594 7.80047 26.6088 5.15105 24.2445C2.49641 21.8803 0.831055 18.5718 0.831055 14.9109C0.831055 11.2545 2.49641 7.94535 5.15105 5.5811C7.80047 3.21685 11.4438 1.76685 15.4473 1.76685H112.553C116.561 1.76685 120.203 3.21685 122.853 5.5811C125.503 7.94535 127.173 11.2545 127.169 14.9109Z" fill="#59605A"/>
<path d="M74.553 14.9152C74.553 17.6749 75.4627 20.2146 76.9962 22.267H13.9746C9.91428 22.267 6.61816 18.9754 6.61816 14.9106C6.61816 12.8805 7.4404 11.0389 8.7762 9.71224C10.1035 8.37643 11.9444 7.5542 13.9746 7.5542H77.0008C75.4627 9.60652 74.553 12.1555 74.553 14.9106V14.9152Z" fill="#59605A"/>
<path d="M121.385 14.9152C121.385 16.9453 120.564 18.7823 119.228 20.1181C117.901 21.4454 116.059 22.2716 114.029 22.2716H84.6035C84.5422 22.2716 81.6768 22.267 81.6768 22.267C80.6881 21.867 79.8 21.2699 79.0574 20.5272C77.6204 19.0896 76.7329 17.1078 76.7329 14.9106C76.7329 12.718 77.6204 10.7361 79.0574 9.29916C79.8 8.55197 80.6927 7.95879 81.6813 7.5542H112.065C112.126 7.5542 112.192 7.5542 112.253 7.55877H114.029C118.089 7.55877 121.385 10.8503 121.385 14.9152Z" fill="#59605A"/>
<path d="M84.4753 10.0093H113.901C116.61 10.0093 118.805 12.2052 118.805 14.9133C118.805 17.6221 116.61 19.818 113.901 19.818H84.4753C81.7672 19.818 79.5713 17.6221 79.5713 14.9133C79.5713 12.2052 81.7672 10.0093 84.4753 10.0093Z" fill="#F8F6F4"/>
<path d="M113.778 13.0225V17.1774H114.464V15.3645H115.759V14.8164H114.464V13.5707H116.083V13.0225H113.778ZM111.387 13.5146C111.748 13.5146 111.891 13.7326 111.985 13.9381C112.134 14.2872 112.153 14.8165 112.153 15.1029C112.153 15.3274 112.14 15.8945 111.985 16.2619C111.891 16.474 111.742 16.6854 111.392 16.6854C111.063 16.6854 110.9 16.5295 110.782 16.2619C110.633 15.9069 110.614 15.3522 110.614 15.1029C110.614 14.8478 110.627 14.2931 110.782 13.9381C110.882 13.7143 111.032 13.5146 111.387 13.5146ZM111.387 12.9475C110.141 12.9475 109.892 14.1502 109.892 15.1029C109.892 16.0687 110.147 17.2525 111.392 17.2525C112.683 17.2525 112.876 15.9565 112.876 15.1029C112.876 14.1313 112.626 12.9475 111.387 12.9475ZM107.638 13.5146C107.999 13.5146 108.142 13.7326 108.236 13.9381C108.385 14.2872 108.404 14.8165 108.404 15.1029C108.404 15.3274 108.391 15.8945 108.236 16.2619C108.142 16.474 107.993 16.6854 107.644 16.6854C107.314 16.6854 107.152 16.5295 107.033 16.2619C106.884 15.9069 106.865 15.3522 106.865 15.1029C106.865 14.8478 106.877 14.2931 107.033 13.9381C107.133 13.7143 107.283 13.5146 107.638 13.5146ZM107.638 12.9475C106.392 12.9475 106.143 14.1502 106.143 15.1029C106.143 16.0687 106.398 17.2525 107.644 17.2525C108.933 17.2525 109.127 15.9565 109.127 15.1029C109.127 14.1313 108.878 12.9475 107.638 12.9475ZM104.025 13.552C104.168 13.552 104.703 13.552 104.703 14.2C104.703 14.6111 104.511 14.91 104.019 14.91H103.489V13.552H104.025ZM102.804 13.0228V17.1776H103.489V15.4392H104.137L104.791 17.1776H105.532L104.741 15.2963C104.922 15.203 105.383 14.9596 105.383 14.2059C105.383 13.7138 105.171 13.3967 104.947 13.2342C104.729 13.0789 104.448 13.0228 104.056 13.0228H102.804ZM100.505 13.552C100.804 13.552 101.01 13.552 101.166 13.7699C101.296 13.9572 101.309 14.1563 101.309 14.2809C101.309 15.0098 100.823 15.0098 100.505 15.0098H100.163V13.552H100.505ZM99.4776 13.0228V17.1776H100.163V15.558H100.518C100.786 15.558 101.247 15.558 101.559 15.34C101.944 15.0783 102.032 14.5863 102.032 14.2933C102.032 13.9944 101.951 13.6329 101.696 13.3653C101.396 13.0475 100.96 13.0228 100.505 13.0228H99.4776ZM97.1603 13.552C97.3039 13.552 97.839 13.552 97.839 14.2C97.839 14.6111 97.6465 14.91 97.1544 14.91H96.6246V13.552H97.1603ZM95.9394 13.0228V17.1776H96.6246V15.4392H97.2726L97.9264 17.1776H98.6677L97.8768 15.2963C98.0569 15.203 98.5183 14.9596 98.5183 14.2059C98.5183 13.7138 98.3062 13.3967 98.0824 13.2342C97.8644 13.0789 97.5838 13.0228 97.1916 13.0228H95.9394ZM92.8242 13.0226V17.1775H95.2289V16.6169H93.5094V15.3151H94.8367V14.7669H93.5094V13.5707H95.1976V13.0226H92.8242ZM89.7402 13.0226V13.6079H90.6557V17.1775H91.3409V13.6079H92.2695V13.0226H89.7402ZM87.691 15.5954L88.1642 13.6892L88.6314 15.5954H87.691ZM87.8464 13.0223L86.6443 17.1779H87.3047L87.5599 16.137H88.7684L89.0301 17.1779H89.7277L88.619 13.0223H87.8464ZM82.1772 13.0225L83.0739 17.1898H83.7036L84.3509 14.1377L85.0048 17.1898H85.628L86.5005 13.0225H85.921L85.3291 16.1372L84.6877 13.0225H84.0899L83.4413 16.1372L82.8814 13.0225H82.1772Z" fill="#59605A"/>
<path fill-rule="evenodd" clip-rule="evenodd" d="M63.6597 13.818V12.0515H64.9087C65.5176 12.0515 66.1571 12.1579 66.1571 12.9351C66.1571 13.1785 66.0507 13.4376 65.8523 13.6203C65.624 13.833 65.2592 13.818 64.9544 13.818H63.6597ZM63.6597 17.9298V16.0413H64.9237C65.2135 16.0413 65.5783 16.0413 65.8523 16.1783C66.1571 16.3304 66.3555 16.6508 66.3555 17.0006C66.3555 17.2903 66.2028 17.5644 65.9744 17.7314C65.7153 17.9448 65.3655 17.9298 65.0458 17.9298H63.6597ZM60.7206 20.2595H65.5026C66.4468 20.2595 67.5732 20.2445 68.3804 19.6657C69.1263 19.1325 69.4467 18.1276 69.4467 17.229C69.4467 15.9806 68.6245 15.067 67.4211 14.8536V14.823C68.4868 14.5796 69.1876 13.6503 69.1876 12.554C69.1876 11.7011 68.7765 10.8482 68.0756 10.3457C67.4211 9.87389 66.6139 9.8132 65.8223 9.8132H60.7206V20.2595ZM59.3971 17.7621H54.6921V16.072H58.4992V13.7417H54.6921V12.2192H59.3971V9.8132H51.5545V20.2595H59.3971V17.7621ZM49.9879 9.81314H46.7596V20.2594H49.9879V9.81314ZM45.894 17.7012H41.7979V9.81294H38.5696V20.2599H45.894V17.7012ZM35.385 12.3257H37.5319V9.81333H30.1468V12.3257H32.3394V20.2596H35.385V12.3257ZM23.4461 14.0312V12.0363H24.7408C25.0449 12.0363 25.3803 12.0363 25.6543 12.1733C25.9741 12.3411 26.1568 12.6758 26.1568 13.0262C26.1568 13.9248 25.3189 14.0312 24.6187 14.0312H23.4461ZM29.5371 20.2593L27.6492 15.7063C28.8826 15.1432 29.4914 14.3203 29.4914 12.9499C29.4914 11.9299 29.0803 11.0007 28.2124 10.4525C27.4359 9.93504 26.4309 9.81301 25.5173 9.81301H20.2021V20.2593H23.4461V16.2695H24.451L25.9741 20.2593H29.5371ZM14.1412 12.0212C15.5573 12.0212 15.7094 14.0618 15.7094 15.0818C15.7094 16.0874 15.603 18.0209 14.1412 18.0209C12.6795 18.0209 12.5725 16.0874 12.5725 15.0818C12.5725 14.0618 12.7252 12.0212 14.1412 12.0212ZM14.1412 9.66089C10.9587 9.66089 9.14648 11.9449 9.14648 15.0668C9.14648 18.0366 10.9737 20.4119 14.1412 20.4119C17.3088 20.4119 19.136 18.0366 19.136 15.0668C19.136 11.9449 17.3238 9.66089 14.1412 9.66089Z" fill="#F8F6F4"/>
</g>
<defs>
<clipPath id="clip0_432_2929">
<rect width="128" height="27.9549" fill="white" transform="translate(0 0.935547)"/>
</clipPath>
</defs>
</svg>
