<svg width="128" height="18" viewBox="0 0 128 18" fill="none" xmlns="http://www.w3.org/2000/svg">
<g clip-path="url(#clip0_432_2896)">
<path d="M23.552 16.093V2.22107V1.71816H20.352V8.36077H15.3173V1.71816H12.1813C12.416 1.48766 12.5653 1.17334 12.608 0.838069V0.712342V0.209431H0V2.1163L0.512 2.17916H4.65067V2.61921H4.71467V17.9999H5.22667H7.872V2.09535H11.3067C11.6267 2.09535 11.9253 1.96962 12.1387 1.73912V2.55635V16.0721H12.6507H15.2747V10.1629H18.56C19.6267 10.1629 20.2453 9.74377 20.2667 8.86368C20.2667 8.80082 20.2667 8.75891 20.2667 8.69604V8.86368V10.3934V16.0721H20.7787H23.552V16.093ZM25.8133 16.093H33.664V14.6891V14.1861H28.9707H28.4587V10.1838H32.4267C33.0667 10.1838 33.6213 9.68091 33.664 9.03132V8.90559V8.40268H28.9707H28.4587V3.47835H33.664V2.20012V1.71816H25.3013V16.093H25.8133ZM38.3147 16.2816V13.4946H35.1573V16.2816H35.6693H38.3147ZM45.8027 6.41199C45.8027 5.61572 45.6107 4.29558 44.9067 3.33167C44.7787 3.16403 44.6507 3.0383 44.5227 2.91257C43.3493 1.92771 42.0267 1.76007 39.552 1.76007C39.0613 1.76007 35.7973 1.8858 35.1573 1.8858V13.4737H38.3147V3.4993H39.2107C40.576 3.4993 41.408 3.98126 41.8987 4.6099C42.2827 5.15472 42.4533 5.84622 42.4533 6.51677C42.4533 7.85786 41.8347 9.47136 40.32 9.72282C39.808 9.82759 39.424 9.78568 38.8053 9.78568C38.7413 9.78568 38.6987 9.78568 38.6347 9.78568C38.6773 9.89046 38.7413 10.0162 38.8053 10.1C39.36 11.3363 39.9787 12.4469 40.6187 13.4318H43.8827C43.3707 12.6774 42.88 11.7764 42.368 10.8334C44.8 10.2257 45.8027 8.08836 45.8027 6.41199ZM62.912 12.6984C62.208 12.9498 61.4827 13.3061 60.7573 13.6832L60.864 13.2641C61.4187 12.9498 61.9307 12.6984 62.4427 12.4469L62.0587 2.22107L62.016 1.71816H59.136L54.656 11.6506L54.464 12.0697L50.9013 2.26298L50.7093 1.71816H47.872L47.0613 13.4946L46.8907 15.8206C46.592 15.7577 46.3147 15.6949 45.9947 15.5692C45.7387 15.4434 45.4827 15.2758 45.2267 15.0662C44.7787 14.6891 44.352 14.1442 43.9253 13.5156H40.6613C41.152 14.249 41.6853 14.8777 42.24 15.3806C43.1787 16.3026 44.4373 16.8683 45.7387 16.8683C46.3573 16.8683 47.232 16.7426 47.4453 16.575C47.5093 16.5331 47.552 16.4492 47.5733 16.3445L47.68 16.0511H48.8107L49.3653 5.48999L49.856 6.83108L52.2453 13.4737L53.1413 15.9882H53.4613H53.632C54.1867 15.9463 54.8053 15.6111 55.0187 14.9824L59.0507 5.48999L59.1147 7.08254L59.3707 13.4946L59.4773 16.093H59.9893H62.5493L62.4427 13.6413C63.9573 13.2013 65.344 13.1384 66.6667 13.1594L66.496 13.6623L65.6213 16.2397H66.3253H67.6267L68.5653 13.327C70.4427 13.5575 72.2133 13.8928 74.1547 13.7671L74.3253 14.3119L74.9013 16.2187H75.264H78.3573L77.3547 13.0756C77.6747 12.9498 77.9947 12.8241 78.3147 12.6565C78.7413 12.426 79.1893 12.2164 79.6373 11.9231L79.7653 11.3782C78.9547 11.7973 78.208 12.0488 77.44 12.1955C77.2053 12.2374 77.0133 12.2583 76.8 12.3002C72.7467 12.7193 68.8427 10.4143 62.912 12.6984ZM72.9813 8.61223C73.984 8.13027 74.8587 7.87881 75.6267 7.75309L73.408 0.838069L73.2373 0.335159H70.976L67.392 11.022C67.648 10.9801 67.8827 10.9801 68.096 10.9801C68.5227 10.9382 68.928 10.9382 69.3333 10.9801L71.4027 4.56799L71.7227 5.67858L72.6187 8.75891C72.7467 8.69604 72.8747 8.63318 72.9813 8.61223ZM93.1413 6.41199C93.1413 5.61572 92.9493 4.29558 92.2453 3.33167C92.1173 3.16403 91.9893 3.0383 91.8613 2.91257C90.688 1.92771 89.3653 1.76007 86.8907 1.76007C86.4 1.76007 83.136 1.8858 82.496 1.8858V8.65413C82.6667 8.65413 82.8587 8.65413 83.008 8.61223V9.03132C80.7893 9.53423 78.7413 8.10932 75.7333 8.33982C74.9227 8.40268 74.048 8.57032 73.088 8.9475C72.6613 9.11514 72.2773 9.30373 71.8293 9.51327L71.7227 9.99523C72.1493 9.82759 72.5333 9.70186 72.9173 9.61805L72.96 9.74377L73.1307 10.2467L73.5147 11.5249C73.6427 11.5668 73.7707 11.5668 73.8987 11.5878C74.9013 11.7554 75.904 11.8392 76.928 11.7764L76.224 9.59709C78.4213 9.91141 80.384 10.6658 82.496 9.91141V10.582V13.5366V16.3235H83.008H85.6533V3.54121H86.5493C87.9147 3.54121 88.7467 4.02317 89.2373 4.65181C89.6213 5.19663 89.792 5.88813 89.792 6.55867C89.792 7.89977 89.1733 9.51327 87.6587 9.76473C87.1467 9.8695 86.7627 9.82759 86.144 9.82759C86.08 9.82759 86.0373 9.82759 85.9733 9.82759C86.016 9.93236 86.08 10.0581 86.144 10.1419C86.72 11.3782 87.3387 12.4888 88.0427 13.4737H91.392C90.7733 12.7193 90.1973 11.8183 89.7067 10.8753C92.1387 10.2257 93.1413 8.08836 93.1413 6.41199ZM95.3387 16.093H103.147V14.6891V14.1861H98.4533H97.9413V10.1838H101.931C102.571 10.1838 103.125 9.68091 103.168 9.03132V8.90559V8.40268H98.4747H97.9627V3.47835H103.168V2.20012V1.71816H94.8053V13.4946V15.8416C94.4853 15.7997 94.1013 15.7158 93.6747 15.5482C93.312 15.3806 92.928 15.1291 92.5867 14.7938C92.2027 14.4376 91.84 13.9766 91.456 13.4946H88.064C88.512 14.1233 89.024 14.71 89.5147 15.1501C90.688 16.2187 91.968 16.8683 93.3547 16.8683C93.9733 16.8683 94.848 16.7426 95.0613 16.575C95.1253 16.5331 95.168 16.4073 95.1893 16.3235L95.232 16.1978L95.3387 16.093ZM124.117 0.859024V0.691387V0.188477H111.787V1.67625C111.168 1.55053 110.336 1.44575 109.461 1.44575C106.112 1.44575 103.637 2.99639 103.637 5.63667C103.637 6.9149 104.149 7.75309 104.96 8.46554C105.792 9.19895 106.965 9.68091 108.096 10.1419C109.483 10.7496 110.4 11.1477 110.805 11.7973C110.976 12.0488 111.061 12.3002 111.104 12.6146C111.232 14.0395 109.547 15.7577 105.685 14.7729C104.939 14.5843 104.427 14.3957 104.107 14.2281L104 14.2909L103.829 14.7729C103.787 14.8777 103.765 15.0243 103.829 15.0872C103.936 15.192 104.085 15.3387 104.341 15.5063C104.533 15.632 104.789 15.7577 105.088 15.8625C105.963 16.2187 107.115 16.3654 108.032 16.3654C111.488 16.3654 113.813 14.3328 113.813 11.8811C113.813 10.9591 113.557 10.2886 113.109 9.72282C112.363 8.80082 111.104 8.23504 109.611 7.5645C108.523 7.06158 107.776 6.70536 107.285 6.39104C106.731 6.01385 106.539 5.63667 106.539 5.02899C106.539 3.9603 107.413 3.22689 108.992 3.22689C110.315 3.22689 111.744 3.7298 112.341 4.33749V2.07439H116.224V2.5773V17.958H116.736H119.381V2.05344H122.837C123.541 2.09535 124.096 1.52957 124.117 0.859024Z" fill="#59605A"/>
<path d="M126.315 2.22119V1.65541H126.421H126.528C126.592 1.65541 126.635 1.65541 126.656 1.69732C126.72 1.73923 126.763 1.76019 126.784 1.82305C126.784 1.86496 126.827 1.92782 126.827 2.01164C126.827 2.09546 126.827 2.17928 126.869 2.24214H127.296V2.20023V2.15832V2.13737V1.94878C127.296 1.78114 127.253 1.65541 127.168 1.59255C127.104 1.55064 127.04 1.52969 126.933 1.48778C127.04 1.48778 127.125 1.44587 127.232 1.383C127.296 1.32014 127.36 1.21537 127.36 1.08964C127.36 0.901048 127.296 0.77532 127.125 0.712456C127.019 0.670547 126.933 0.649593 126.805 0.607683C126.763 0.607683 126.677 0.607683 126.485 0.607683C126.293 0.607683 126.123 0.607683 126.037 0.607683V2.20023H126.315V2.22119ZM126.805 1.1525C126.805 1.25728 126.763 1.32014 126.699 1.34109C126.635 1.383 126.571 1.40396 126.464 1.40396H126.293V0.922002H126.4C126.507 0.922002 126.592 0.922002 126.656 0.963912C126.763 0.984866 126.805 1.04773 126.805 1.1525ZM128 1.42491C128 1.04773 127.872 0.691502 127.573 0.419092C127.275 0.125728 126.933 0 126.549 0C126.165 0 125.845 0.125728 125.547 0.377183C125.248 0.670547 125.099 1.00582 125.099 1.42491C125.099 1.844 125.227 2.15832 125.525 2.43073C125.824 2.7241 126.144 2.84983 126.549 2.84983C126.933 2.84983 127.296 2.7241 127.573 2.43073C127.872 2.20023 128 1.844 128 1.42491ZM126.549 0.230501C126.869 0.230501 127.168 0.356228 127.381 0.586729C127.616 0.817229 127.744 1.08964 127.744 1.40396C127.744 1.71828 127.616 2.01164 127.381 2.2631C127.147 2.4936 126.869 2.61932 126.549 2.61932C126.229 2.61932 125.931 2.4936 125.717 2.2631C125.483 2.0326 125.355 1.76019 125.355 1.40396C125.355 1.08964 125.483 0.796275 125.717 0.586729C125.931 0.356228 126.229 0.230501 126.549 0.230501Z" fill="#59605A"/>
</g>
<defs>
<clipPath id="clip0_432_2896">
<rect width="128" height="18" fill="white"/>
</clipPath>
</defs>
</svg>
