<svg width="96" height="40" viewBox="0 0 96 40" fill="none" xmlns="http://www.w3.org/2000/svg">
<g clip-path="url(#clip0_432_2886)">
<path fill-rule="evenodd" clip-rule="evenodd" d="M48.3119 0L43.1572 7.16434H53.5192L48.3119 0Z" fill="#59605A"/>
<path fill-rule="evenodd" clip-rule="evenodd" d="M95.719 20.7029C95.2291 18.8539 94.0938 17.4526 92.6531 16.5057C91.1668 15.5395 89.4204 15.0514 87.6486 15.1071C85.8285 15.1558 83.9308 15.7471 82.5018 16.8191C81.0742 17.8925 80.1129 19.4465 79.6901 21.1691C79.2634 22.8917 79.374 24.7802 80.0852 26.3672C80.799 27.9528 82.1107 29.2382 83.5067 29.9757C84.9027 30.7132 86.3856 30.9042 87.721 30.916C89.0551 30.9292 90.243 30.7619 91.5798 30.1021C92.9204 29.4437 94.4139 28.2926 95.237 26.5687C96.0601 24.8461 96.2116 22.5519 95.719 20.7029ZM92.5899 24.8329C92.2896 25.8338 91.7312 26.707 90.8646 27.3352C89.9954 27.9647 88.8154 28.3492 87.721 28.369C86.6279 28.3927 85.6139 28.0529 84.8026 27.4498C83.9641 26.8184 83.3547 25.9305 83.0668 24.9212C82.7508 23.8623 82.7349 22.6059 82.9483 21.5023C83.163 20.4 83.6068 19.4478 84.4431 18.7327C85.2793 18.0189 86.5068 17.5408 87.7092 17.5277C88.9035 17.5215 90.0606 17.9428 90.9713 18.7156C91.8458 19.4663 92.4121 20.5132 92.6742 21.6037C92.9375 22.6942 92.8928 23.8294 92.5912 24.8329H92.5899ZM46.8856 15.6049C46.8501 15.5626 46.8005 15.5345 46.746 15.5259H44.0383C43.9764 15.5425 43.9177 15.5692 43.8644 15.6049C43.8362 15.6352 43.8147 15.6711 43.8012 15.7102C43.7812 15.7788 43.7702 15.8496 43.7683 15.921V25.1306C43.7683 25.1529 43.7354 25.4519 43.7117 25.6732C43.6893 25.8891 43.6748 26.0287 43.6392 26.1999C43.5942 26.4144 43.516 26.6206 43.4074 26.811C43.2727 27.0228 43.1046 27.2114 42.9096 27.3694C42.7393 27.5135 42.5559 27.6414 42.3618 27.7513C42.1287 27.883 41.8547 28.0147 41.5584 28.1069C41.2516 28.2031 40.9184 28.2518 40.6234 28.2781C40.3573 28.2979 40.1229 28.3018 39.8622 28.286C39.5856 28.2729 39.2774 28.2333 38.9982 28.1701C38.4745 28.0518 37.9868 27.8097 37.5759 27.4642C37.3029 27.2103 37.0931 26.8959 36.9635 26.5463C36.8753 26.3119 36.7712 25.9642 36.7712 25.7561V15.9223C36.7692 15.8577 36.7595 15.7936 36.7422 15.7313C36.7346 15.6978 36.7198 15.6663 36.6988 15.6391C36.6818 15.6182 36.6613 15.6003 36.6382 15.5864C36.6141 15.572 36.5871 15.563 36.5592 15.5601H33.8502C33.8164 15.5691 33.7834 15.5805 33.7514 15.5943C33.7241 15.6046 33.6988 15.6193 33.6763 15.6378C33.6448 15.6727 33.6222 15.7147 33.6105 15.7603C33.5921 15.8246 33.5824 15.891 33.5815 15.9578V25.9958C33.5815 26.246 33.6012 26.4831 33.6434 26.7373C33.6908 27.0138 33.7646 27.3102 33.8541 27.5762C33.9397 27.829 34.0385 28.0542 34.1834 28.2808C34.344 28.531 34.56 28.7812 34.7971 29.0143C35.2955 29.502 35.88 29.8932 36.521 30.168C36.8371 30.3076 37.161 30.4274 37.5087 30.5262C37.8775 30.6316 38.2699 30.7158 38.6611 30.7804C39.0404 30.8462 39.417 30.891 39.7673 30.8989C40.1005 30.9094 40.4126 30.8857 40.7577 30.841C41.1317 30.7962 41.5505 30.7277 41.8956 30.6618C42.4899 30.555 43.0722 30.3896 43.634 30.168C44.0107 30.0237 44.3724 29.8428 44.7139 29.628C45.0392 29.4173 45.3236 29.1671 45.5963 28.8945C45.8597 28.6284 46.1125 28.3413 46.2995 28.07C46.4628 27.833 46.5761 27.6117 46.6591 27.3365C46.7512 27.0336 46.8039 26.6609 46.8395 26.3488C46.8913 25.7934 46.9317 25.2371 46.9606 24.6802V15.8893C46.9606 15.8498 46.9475 15.7577 46.9304 15.6984C46.9223 15.665 46.9076 15.6336 46.8869 15.6062L46.8856 15.6049ZM78.3942 15.5206H65.7907C65.7117 15.5206 65.5866 15.5166 65.5037 15.5864C65.4579 15.6331 65.4241 15.69 65.4049 15.7524V17.6291C65.4049 17.7213 65.4259 17.8266 65.4931 17.8753C65.559 17.9241 65.6735 17.9214 65.7921 17.9214H69.9168C70.0709 17.9214 70.2856 17.9425 70.4002 18.0953C70.4716 18.2168 70.5131 18.3536 70.5213 18.4943V30.2378C70.5213 30.3115 70.5042 30.4419 70.574 30.4985C70.6306 30.542 70.7492 30.5341 70.7505 30.5341H73.3489C73.4279 30.5341 73.5201 30.5236 73.5754 30.4419C73.6148 30.3639 73.6385 30.2789 73.6452 30.1917V18.4008C73.6452 18.3877 73.6544 18.1532 73.7637 18.0294C73.8954 17.8767 74.172 17.8898 74.334 17.8898H78.3191C78.7406 17.8767 78.7827 17.745 78.7827 17.5343V15.78C78.7853 15.5996 78.7076 15.5166 78.3955 15.5166L78.3942 15.5206ZM63.0751 15.6931C63.0701 15.6679 63.0594 15.6442 63.0439 15.6236C63.0284 15.6031 63.0085 15.5864 62.9856 15.5746C62.9313 15.5385 62.8688 15.5168 62.8038 15.5114H60.32C60.2358 15.5114 60.1488 15.5048 60.079 15.5509C60.0319 15.5815 59.9962 15.6269 59.9776 15.68C59.9421 15.7721 59.9513 15.8854 59.9513 15.9526V24.9515C59.9434 25.07 59.9249 25.1134 59.8933 25.1398C59.8767 25.1544 59.8561 25.1636 59.8341 25.1661C59.8021 25.1723 59.769 25.1657 59.7419 25.1477C59.689 25.111 59.642 25.0666 59.6023 25.016L52.7869 15.7445C52.7606 15.7353 52.7132 15.6431 52.6052 15.5864C52.4886 15.5332 52.3603 15.5106 52.2325 15.5206H50.1293C50.0674 15.5311 50.0015 15.5166 49.9252 15.5443C49.8571 15.5716 49.7978 15.6172 49.7539 15.676C49.6776 15.7814 49.696 15.8973 49.6828 16.0553V30.1337C49.6828 30.222 49.6657 30.3418 49.7381 30.4235C49.8014 30.4946 49.9357 30.5354 49.9357 30.5354H52.3326C52.4458 30.5354 52.6223 30.5539 52.7185 30.4525C52.776 30.3741 52.8131 30.2827 52.8265 30.1864V20.8227C52.8265 20.7701 52.8265 20.6252 52.8528 20.5514C52.8686 20.5067 52.8949 20.4856 52.9213 20.4764C52.9476 20.4672 52.9805 20.4711 53.0214 20.5106C53.0872 20.5699 53.182 20.7082 53.1768 20.7161L60.1436 30.3036C60.1831 30.3563 60.2647 30.4696 60.3451 30.5012C60.4188 30.5275 60.482 30.5302 60.4847 30.5302H62.7762C62.8259 30.5276 62.8748 30.517 62.9211 30.4985C62.9658 30.4801 62.9961 30.4762 63.0396 30.4064C63.0731 30.3387 63.0911 30.2645 63.0923 30.1891V15.8788C63.0909 15.8178 63.0843 15.757 63.0725 15.6971L63.0751 15.6931ZM14.4538 24.7868C14.4062 24.6129 14.3409 24.4443 14.2588 24.2837C14.1729 24.1279 14.0761 23.9782 13.9691 23.836C13.8814 23.708 13.7846 23.5865 13.6794 23.4725C13.5481 23.336 13.4063 23.2101 13.2553 23.0958C12.9228 22.8447 12.5654 22.6284 12.1886 22.4505C12.0071 22.3656 11.8226 22.2874 11.6354 22.2161C11.4088 22.1301 11.1775 22.0566 10.9427 21.9962C10.6334 21.9176 10.3215 21.8496 10.0077 21.792C9.65881 21.7264 9.30936 21.664 8.95933 21.605C8.59461 21.5413 8.22936 21.4808 7.86362 21.4233C7.49882 21.364 7.13928 21.3153 6.83637 21.2613C6.53084 21.2086 6.27798 21.1559 6.03039 21.1006C5.79718 21.0549 5.56568 21.0009 5.33634 20.9386C5.01024 20.8459 4.7043 20.6932 4.43421 20.4882C4.36583 20.4392 4.30655 20.3786 4.25906 20.3091C4.15098 20.1409 4.08046 19.9513 4.05229 19.7534C4.0187 19.5022 4.04119 19.2467 4.11814 19.0053C4.14773 18.9032 4.19305 18.8064 4.25247 18.7182C4.31305 18.63 4.39076 18.5444 4.48294 18.4588C4.57513 18.3745 4.68049 18.2915 4.78848 18.2178C4.90536 18.1397 5.02722 18.0693 5.15328 18.007C5.50918 17.8228 5.89111 17.6941 6.28587 17.6251C6.5124 17.5856 6.76394 17.5527 6.98783 17.5369C7.20478 17.5206 7.4226 17.5193 7.63973 17.5329C7.87679 17.5487 8.15599 17.5764 8.39041 17.6146C8.62352 17.6541 8.81184 17.7041 9.01597 17.7726C9.2201 17.8411 9.44004 17.9307 9.63495 18.0097C9.83249 18.094 9.99975 18.1717 10.1841 18.2823C10.5266 18.4898 10.8398 18.7423 11.1152 19.033C11.2206 19.1449 11.3075 19.2411 11.3681 19.303C11.4052 19.3437 11.4478 19.3791 11.4945 19.4083C11.5296 19.4284 11.5688 19.4401 11.6091 19.4426C11.6729 19.445 11.7363 19.4314 11.7935 19.403L13.8387 17.9675C13.8769 17.9386 13.9083 17.9018 13.9309 17.8595C13.9533 17.8161 13.9625 17.7766 13.9309 17.712C13.8256 17.5092 13.3093 17.0615 12.8418 16.7283C12.4476 16.4464 12.0288 16.2004 11.5907 15.9934C11.2788 15.8356 10.9547 15.7034 10.6214 15.5983C10.1408 15.4495 9.65001 15.336 9.15293 15.2585C8.68585 15.1825 8.21302 15.1472 7.73982 15.1532C7.20004 15.1671 6.66123 15.2066 6.12521 15.2717C5.67348 15.3244 5.28234 15.377 4.86091 15.4771C4.36724 15.5953 3.88542 15.7584 3.42146 15.9644C2.91574 16.1857 2.41661 16.4649 2.02547 16.8007C1.71786 17.0694 1.45081 17.3812 1.23265 17.7265C1.09214 17.9421 0.968843 18.1685 0.863895 18.4035C0.78605 18.572 0.727301 18.7487 0.688742 18.9302C0.645273 19.137 0.622882 19.382 0.600501 19.5492C0.584709 19.6757 0.570201 19.7599 0.570201 19.9009C0.570201 20.1379 0.607069 20.5291 0.672925 20.828C0.732195 21.0888 0.813842 21.2758 0.936319 21.4904C1.08909 21.7512 1.30244 22.0528 1.5856 22.328C1.90431 22.6388 2.31256 22.9154 2.68658 23.1051C3.01846 23.2763 3.32399 23.3816 3.68485 23.4896C4.11681 23.6187 4.63043 23.753 5.16908 23.8584C5.74196 23.9637 6.34382 24.0362 6.88773 24.106C7.36843 24.1692 7.80303 24.2311 8.22446 24.2969C8.60375 24.3588 8.97514 24.4181 9.2978 24.5037C9.57041 24.5748 9.81142 24.6617 10.0182 24.7539C10.1947 24.8329 10.3448 24.9119 10.5028 25.0331C10.6846 25.1701 10.8768 25.3624 10.9901 25.5757C11.0915 25.7732 11.1218 25.9892 11.135 26.1947C11.1482 26.3817 11.1403 26.5608 11.1047 26.7346C11.0686 26.9317 10.9885 27.1181 10.8703 27.2799C10.6811 27.5276 10.447 27.7376 10.1802 27.8988C9.91677 28.0595 9.64416 28.157 9.32808 28.236C8.98567 28.3229 8.59058 28.3901 8.26923 28.427C7.99267 28.4586 7.77142 28.4665 7.48959 28.4572C7.16034 28.4441 6.75603 28.4006 6.44522 28.3677C6.21344 28.3452 5.98307 28.31 5.75513 28.2623C5.42149 28.1936 5.09317 28.1012 4.77267 27.9858C4.54483 27.9002 4.38284 27.8119 4.19978 27.7224C3.9838 27.6144 3.7428 27.5011 3.46228 27.2799C3.1462 27.0296 2.7814 26.6345 2.65893 26.5213C2.64059 26.4986 2.61712 26.4805 2.59044 26.4686C2.56198 26.4586 2.53231 26.4524 2.5022 26.4502C2.46058 26.4465 2.41872 26.4465 2.37709 26.4502L0.0407732 27.995C0.00962031 28.0375 -0.0044806 28.0901 0.00125075 28.1425C0.00783001 28.1846 0.0223232 28.2176 0.10398 28.3137C0.182999 28.4085 0.334452 28.5639 0.467461 28.7022C0.599161 28.8378 0.720325 28.9524 0.888893 29.0907C1.0601 29.229 1.27872 29.391 1.54475 29.5516C1.80814 29.7097 2.11894 29.8704 2.45873 30.0152C3.19496 30.3279 3.96095 30.5653 4.745 30.7238C5.14667 30.7988 5.55231 30.8396 5.96056 30.8713C6.36882 30.9015 6.78236 30.9213 7.15901 30.9187C7.94289 30.8971 8.72356 30.8095 9.49269 30.6566C9.89105 30.5771 10.2846 30.4751 10.6714 30.3511C11.0454 30.2299 11.3984 30.0929 11.7223 29.9388C12.0463 29.7808 12.3413 29.607 12.5718 29.4608C12.8023 29.3133 12.9669 29.1934 13.1447 29.0314C13.4841 28.7101 13.7887 28.3539 14.0534 27.9686C14.1613 27.7962 14.253 27.6141 14.3273 27.4247C14.4696 27.0707 14.5523 26.6956 14.5723 26.3145C14.6048 25.9783 14.5991 25.6394 14.5551 25.3044C14.5331 25.1297 14.4988 24.9567 14.4524 24.7868L14.4538 24.7868ZM30.7263 15.6075C30.6918 15.5647 30.6424 15.5365 30.588 15.5285H27.8816C27.8468 15.5367 27.8128 15.5481 27.7802 15.5627C27.753 15.5722 27.7279 15.587 27.7065 15.6062C27.6781 15.6364 27.6565 15.6723 27.6432 15.7116C27.6224 15.7799 27.6109 15.8508 27.609 15.9223V25.1319C27.609 25.1543 27.5761 25.4532 27.5524 25.6745C27.53 25.8905 27.5181 26.0301 27.4799 26.2013C27.4351 26.4158 27.3569 26.622 27.2481 26.8123C27.114 27.0242 26.9464 27.2128 26.7516 27.3707C26.5778 27.5182 26.4053 27.6341 26.2025 27.7527C25.9484 27.9001 25.6791 28.0193 25.3991 28.1082C25.0923 28.2044 24.7591 28.2531 24.4641 28.2794C24.198 28.2992 23.9636 28.3032 23.7042 28.2873C23.4126 28.2733 23.1227 28.2345 22.8376 28.1715C22.5788 28.1133 22.3277 28.0249 22.0896 27.9081C21.8452 27.7929 21.6182 27.6439 21.4153 27.4656C21.1431 27.2109 20.9335 26.8967 20.8029 26.5476C20.716 26.3132 20.6119 25.9655 20.6119 25.7574V15.9236C20.6119 15.8841 20.5987 15.7919 20.5816 15.7326C20.573 15.6992 20.5578 15.6679 20.5368 15.6404C20.5194 15.6194 20.4985 15.6016 20.4749 15.5878C20.4508 15.5735 20.4238 15.5645 20.3959 15.5614H17.6882C17.6566 15.5693 17.6316 15.572 17.6 15.5851C17.5689 15.5981 17.54 15.6159 17.5144 15.6378C17.4822 15.6727 17.4595 15.7154 17.4485 15.7616C17.4297 15.8258 17.4199 15.8923 17.4196 15.9591V25.9971C17.4196 26.2474 17.438 26.4844 17.4815 26.7386C17.5262 27.0152 17.6 27.3115 17.6922 27.5775C17.7752 27.8304 17.8766 28.0556 18.0214 28.2821C18.1795 28.5323 18.3968 28.7825 18.6338 29.0156C19.13 29.5056 19.7145 29.897 20.3564 30.1693C20.6725 30.3089 20.9978 30.4287 21.3442 30.5275C21.7129 30.6329 22.108 30.7172 22.4978 30.7817C22.8771 30.8475 23.2538 30.8923 23.6041 30.9002C23.9373 30.9108 24.2468 30.8871 24.5918 30.8423C24.9685 30.7975 25.3859 30.729 25.7323 30.6632C26.3265 30.5556 26.9087 30.3901 27.4707 30.1693C27.8342 30.0244 28.2122 29.8466 28.548 29.6293C28.8733 29.4186 29.1591 29.1684 29.4304 28.8958C29.6938 28.6298 29.948 28.3427 30.135 28.0714C30.2983 27.8343 30.4115 27.6131 30.4932 27.3378C30.5854 27.0349 30.638 26.6622 30.6736 26.3501C30.7078 26.0564 30.7263 25.8141 30.7487 25.4677C30.7711 25.1385 30.7961 24.717 30.7961 24.6815V15.8907C30.7961 15.8512 30.7829 15.759 30.7658 15.6997C30.7582 15.6662 30.7433 15.6347 30.7223 15.6075" fill="#59605A"/>
</g>
<defs>
<clipPath id="clip0_432_2886">
<rect width="96" height="30.9189" fill="white"/>
</clipPath>
</defs>
</svg>
