<svg width="48" height="48" viewBox="0 0 48 48" fill="none" xmlns="http://www.w3.org/2000/svg">
<g clip-path="url(#clip0_432_2841)">
<path d="M24 48.0381C37.2571 48.0381 48 37.2952 48 24.0381C48 10.7809 37.2571 0.0380859 24 0.0380859C10.7429 0.0380859 0 10.7809 0 24.0381C0 37.2952 10.7429 48.0381 24 48.0381Z" fill="#59605A"/>
<path d="M6.03789 11.4096L6.93312 10.2477C7.04741 10.1144 7.27598 9.962 7.37122 10.0382C7.46646 10.1144 7.42836 10.3239 7.35217 10.4191L6.38074 11.6763L6.03789 11.4096ZM9.90455 10.3239C9.98074 10.2096 10.5331 9.31438 9.98074 8.87628C9.50455 8.51438 8.99027 9.00961 8.83789 9.10485C8.89503 8.81914 9.02836 8.19057 8.70455 7.94295C8.3236 7.65723 7.56169 8.11438 7.14265 8.66676L3.5236 13.3906C3.50455 13.4287 3.50455 13.4668 3.56169 13.5239L4.03788 13.8858C4.07598 13.9049 4.09503 13.9049 4.15217 13.8477L4.70455 13.1239L5.98074 14.0953L5.40931 14.8572C5.37122 14.8953 5.39027 14.9334 5.46646 14.9906L5.98074 15.3906C5.99979 15.4096 6.03788 15.3906 6.05693 15.3715L9.90455 10.3239ZM6.97122 12.1144L7.86646 10.9525C7.98074 10.8001 8.20931 10.6668 8.3236 10.762C8.41884 10.8382 8.36169 11.0477 8.19027 11.2572L7.31408 12.4001L6.97122 12.1144Z" fill="#F8F6F4"/>
<path d="M9.00954 7.00972C8.97145 6.97163 8.9905 6.93353 9.00954 6.89544L12.4 4.51449C12.4381 4.49544 12.4762 4.47639 12.4953 4.49544L12.8953 5.06687C12.9143 5.10496 12.9143 5.12401 12.8762 5.14306L12.0953 5.71449L13.0095 7.00972L13.7905 6.45734C13.8286 6.4383 13.8476 6.4383 13.8667 6.45734L14.2476 7.00972C14.2857 7.04782 14.2857 7.06687 14.2286 7.10496L10.8762 9.50496C10.8191 9.54306 10.781 9.52401 10.7619 9.50496L10.381 8.97163C10.3429 8.91449 10.3619 8.89544 10.381 8.87639L11.1619 8.32401L10.2476 7.02877L9.48573 7.5621C9.44764 7.58115 9.40954 7.6002 9.3905 7.58115L9.00954 7.00972Z" fill="#F8F6F4"/>
<path d="M20.0378 2.79977C20.0568 2.85691 20.0378 2.895 20.0187 2.91405L18.5711 3.35215C18.533 3.3712 18.4949 3.35215 18.4378 3.3331C18.3806 3.295 18.114 3.10453 17.1616 3.39024C16.2663 3.67596 16.0568 4.24739 16.1711 4.59024C16.3806 5.25691 17.2378 5.06643 17.7711 4.91405C18.114 4.79977 18.1711 4.5712 18.133 4.39977L17.2949 4.66643C17.2187 4.68548 17.1616 4.68548 17.1616 4.64739L17.0283 4.22834C17.0092 4.15215 17.0473 4.11405 17.1044 4.095L21.0092 2.895C21.0854 2.87596 21.1425 2.91405 21.1616 2.95215L21.2759 3.3331C21.2949 3.42834 21.2568 3.44739 21.1616 3.48548L20.3235 3.75215L20.6473 4.78072C20.6663 4.85691 20.6092 4.895 20.533 4.91405L19.4473 5.23786C19.3521 5.27596 19.2949 5.27596 19.2378 5.21881L18.933 5.04739C18.7235 5.44739 18.0759 5.65691 17.314 5.90453C17.0663 5.98072 14.2663 6.81881 13.8283 5.35215C13.3711 3.84739 15.5616 3.10453 16.3044 2.87596C17.6568 2.45691 17.9044 2.51405 18.2663 2.59024L18.2473 2.38072C18.2473 2.34262 18.2473 2.28548 18.3235 2.26643L19.5806 1.88548C19.6568 1.86643 19.714 1.86643 19.7521 1.99977L20.0378 2.79977Z" fill="#F8F6F4"/>
<path d="M31.0475 5.94295C31.1236 5.962 31.1617 5.94295 31.1808 5.90485L31.2951 5.37152C31.3141 5.31438 31.3141 5.23819 31.257 5.21914L30.3427 5.02866L29.1236 2.38104C29.1046 2.34295 29.0665 2.2858 28.9903 2.26676L27.0475 1.8858C26.9903 1.86676 26.9332 1.8858 26.876 1.94295L24.7998 3.8858L23.9427 3.71438C23.8855 3.69533 23.8475 3.71438 23.8475 3.77152L23.7141 4.41914C23.6951 4.47628 23.7713 4.49533 23.8665 4.51438L26.7046 5.0858C26.7427 5.0858 26.7617 5.06676 26.7808 5.00961L26.9141 4.38104C26.9141 4.362 26.8951 4.3239 26.857 4.3239L26.076 4.17152L26.3998 3.86676L27.6951 4.13342L27.8665 4.53342L27.1617 4.38104C27.1236 4.38104 27.0855 4.40009 27.0855 4.43819L26.9522 5.04771C26.9522 5.0858 26.9713 5.14295 27.0284 5.14295L31.0475 5.94295ZM27.1998 3.10485C27.2189 3.0858 27.257 3.10485 27.257 3.1239L27.4855 3.67628L26.7427 3.5239L27.1998 3.10485Z" fill="#F8F6F4"/>
<path d="M37.619 7.73323C37.5809 7.79037 37.5428 7.80942 37.5238 7.79037L36.2476 6.97133C36.2095 6.95228 36.1905 6.91418 36.1905 6.85704C36.1905 6.7999 36.1524 6.45704 35.3333 5.90466C34.5524 5.39037 33.9619 5.5999 33.7714 5.90466C33.3905 6.49513 34.0952 7.02847 34.5524 7.33323C34.8571 7.52371 35.0666 7.42847 35.1809 7.29513L34.4381 6.81894C34.3809 6.78085 34.3428 6.72371 34.3619 6.70466L34.6095 6.34275C34.6476 6.26656 34.7047 6.28561 34.7619 6.32371L38.1714 8.55228C38.2476 8.59037 38.2476 8.66656 38.2095 8.70466L38 9.04752C37.9428 9.12371 37.8857 9.10466 37.8286 9.06656L37.1047 8.59037L36.5143 9.48561C36.4762 9.5618 36.419 9.52371 36.3428 9.48561L35.3905 8.87609C35.3143 8.81894 35.2762 8.78085 35.2571 8.70466L35.2 8.34275C34.7428 8.43799 34.1905 8.07609 33.5047 7.63799C33.2952 7.50466 30.8571 5.88561 31.6952 4.60942C32.5524 3.29514 34.5333 4.51418 35.1809 4.93323C36.3619 5.69513 36.4762 5.94275 36.6667 6.26656L36.819 6.11418C36.8571 6.07609 36.8952 6.03799 36.9524 6.09513L38.0571 6.81894C38.1333 6.85704 38.1524 6.91418 38.0762 7.02847L37.619 7.73323Z" fill="#F8F6F4"/>
<path d="M42.076 11.4286C42.0951 11.4667 42.1141 11.5238 42.1141 11.5619L41.7713 14.4L42.6856 13.7905L42.1713 13.0095C42.1332 12.9524 42.1332 12.9143 42.1713 12.8953L42.7237 12.5334C42.7618 12.5143 42.8189 12.5143 42.8379 12.5334L44.5141 15.0667C44.5522 15.1238 44.5141 15.181 44.476 15.2L43.9618 15.5429C43.9237 15.581 43.8665 15.5429 43.8475 15.5048L43.3522 14.7429L41.4475 16C41.3903 16.0381 41.3332 16.0381 41.3141 16L39.8665 13.8095C39.8475 13.7905 39.8284 13.7524 39.8284 13.6953L40.1903 10.5714L39.1427 11.2572L39.676 12.0762C39.6951 12.1143 39.7141 12.1714 39.676 12.2095L39.1427 12.5714C39.0856 12.6095 39.0475 12.5905 39.0094 12.5524L37.2951 9.96193C37.276 9.92383 37.276 9.88573 37.3332 9.86669L37.8665 9.50478C37.8856 9.48574 37.9427 9.48573 37.9808 9.54288L38.4951 10.3048L39.8094 9.42859L39.276 8.62859C39.257 8.60954 39.2379 8.5524 39.2951 8.53335L39.8475 8.17145C39.8856 8.1524 39.9237 8.17145 39.9618 8.22859L42.076 11.4286Z" fill="#F8F6F4"/>
<path d="M46.2094 23.2952C46.2284 23.3714 46.1904 23.3904 46.1332 23.4095L44.9332 23.638C44.8951 23.638 44.857 23.638 44.857 23.5999L44.5904 22.1523C44.5904 22.1142 44.5713 22.0952 44.6094 22.0952L45.1427 21.9999L44.6856 19.5809L44.2856 19.6571L44.5332 21.0095C44.5332 21.0476 44.5332 21.0666 44.4951 21.0666L43.8475 21.1809C43.8094 21.1809 43.7904 21.1428 43.7904 21.0857L43.5427 19.7714L43.1237 19.8476L43.5808 22.3047L44.0951 22.2095C44.1332 22.2095 44.1904 22.2095 44.1904 22.2666L44.4761 23.7904C44.4761 23.8285 44.457 23.8476 44.3999 23.8476L43.1618 24.0761C43.1237 24.0761 43.1046 24.0761 43.0856 23.9999L41.7523 16.8952C41.7332 16.838 41.7332 16.7999 41.7713 16.7809L42.438 16.6666C42.4761 16.6666 42.5142 16.6857 42.5142 16.7237L42.6856 17.6761L44.2475 17.3904L44.0761 16.438C44.0761 16.3999 44.057 16.3809 44.1142 16.3809L44.838 16.2476C44.857 16.2476 44.8761 16.2857 44.8951 16.3428L46.2094 23.2952Z" fill="#F8F6F4"/>
<path d="M45.3142 29.7713C45.3523 29.7903 45.3523 29.8284 45.3523 29.8665L45.1618 31.0094C45.1428 31.0856 45.0856 31.1046 45.0475 31.1046L44.2856 30.9713C44.2475 30.9713 44.2475 30.9332 44.2475 30.9142L44.4952 29.5237C44.4952 29.5046 44.4952 29.4856 44.5332 29.4856C44.7999 29.3903 44.9332 28.9332 44.9523 28.7999L45.1809 27.5046C45.1999 27.3903 45.238 27.0856 45.0475 27.0475C44.838 27.0094 44.7618 27.5237 44.7237 27.6761L44.5713 28.4761C44.4952 28.8951 44.2475 29.8475 44.1523 30.0761C44.0571 30.3046 43.7333 31.1618 43.0666 31.0475C42.1142 30.8761 42.2666 29.1237 42.3618 28.5332L42.5523 27.3903C42.6285 26.9142 42.8761 26.438 43.0475 26.1713L42.7999 26.0951C42.7618 26.0761 42.7618 26.057 42.7618 26.0189L43.0094 24.5903C43.0094 24.5522 43.0285 24.5522 43.0666 24.5522L43.9237 24.7046C43.9428 24.7046 43.9809 24.7237 43.9618 24.7618L43.7142 26.2665C43.7142 26.3046 43.6952 26.3237 43.6571 26.3237C43.3713 26.3618 43.238 27.0284 43.219 27.0856L42.9523 28.6094C42.9523 28.6475 42.9333 28.9142 43.0666 28.9332C43.219 28.9522 43.3142 28.7427 43.3142 28.6665L43.5237 27.4475C43.5809 27.1237 43.8475 26.1713 44.019 25.8094C44.3428 25.1618 44.7809 24.8951 45.0666 24.9332C45.4856 25.0094 45.6571 25.5046 45.7332 25.7522C45.8475 26.0761 45.8666 26.6475 45.7523 27.3332L45.5618 28.4951C45.4666 29.0856 45.2571 29.4665 45.1237 29.657L45.3142 29.7713Z" fill="#F8F6F4"/>
<path d="M23.6567 6.17139C13.771 6.17139 5.71387 14.2285 5.71387 24.1142C5.71387 34 13.752 42.0571 23.6567 42.0571C33.5424 42.0571 41.5996 34 41.5996 24.1142C41.5996 14.2285 33.5424 6.17139 23.6567 6.17139ZM23.6567 7.27615C32.952 7.27615 40.4948 14.8381 40.4948 24.1142C40.4948 25.7523 40.2472 27.3523 39.8091 28.8571H38.0377C37.9424 28.8571 37.9043 28.9142 37.9043 28.9904C37.9043 29.0476 37.8281 30.2476 36.6662 30.2476C35.7139 30.2476 35.5234 29.4666 35.5234 29.3904V27.0476C35.5234 24.9904 33.3139 24.3809 29.5043 24.2285C29.9615 23.6952 30.2281 23.0476 30.2281 22.2285C30.2281 19.2761 25.9424 17.8857 22.6091 17.8857C19.7901 17.8857 18.2662 19.1047 18.0186 19.3142V14.7238C18.0186 14.6476 17.9424 14.5714 17.8091 14.5714H9.79006C12.8377 10.1523 17.9043 7.27615 23.6567 7.27615ZM23.6567 40.9714C14.3615 40.9714 6.81863 33.4095 6.81863 24.1333C6.81863 21.5809 7.39006 19.1619 8.39958 17.0095H11.5234V26.1523C11.5234 26.2666 11.5996 26.3809 11.8472 26.3809H13.8853C13.9805 26.3809 14.0377 26.3428 14.1139 26.2666L15.5043 24.6666C15.7139 24.8381 16.571 25.4476 18.1139 25.9047C18.0948 26 18.0758 26.0952 18.0758 26.1904C18.0758 27.3523 19.6948 27.6571 20.2662 27.6571C20.8948 27.6571 22.6853 27.2381 23.0853 27.0666C23.4662 26.9142 24.4948 26.2285 25.2377 26.2285H27.1996C27.8853 26.2285 28.7043 26.4381 28.7043 26.9523C28.7043 27.4095 27.3329 27.7142 26.4567 27.8285L23.5424 28.2095C22.2853 28.3809 18.152 28.7047 17.9805 30.2285C17.7329 32.5142 22.5901 32.7047 24.4758 32.7047C25.1043 32.7047 27.9615 32.2857 28.7424 31.1428C29.1615 31.8476 30.2662 32.6666 31.752 32.6666H36.152C36.9329 32.6666 37.8472 32.4571 38.6091 31.9238C35.771 37.2761 30.1329 40.9714 23.6567 40.9714Z" fill="#F8F6F4"/>
<path d="M3.27619 18.0571C3.27619 18.0381 3.31428 18.0381 3.33333 18.0381L3.73333 18.1524C3.75238 18.1524 3.75238 18.1714 3.75238 18.1905L3.54286 18.9524C3.54286 18.9524 3.52381 18.9714 3.50476 18.9714C3.40952 18.9714 3.29524 19.1428 3.25714 19.2952L3.2 19.5238C3.18095 19.619 3.1619 19.7143 3.25714 19.7524C3.35238 19.7714 3.39047 19.6762 3.40952 19.6571C3.40952 19.6381 3.61905 19.0667 3.63809 19.0286C3.77143 18.6857 4.03809 18.2476 4.43809 18.3619C4.74286 18.4381 4.78095 18.9143 4.62857 19.4667L4.55238 19.7524C4.51428 19.9048 4.4 20.1143 4.30476 20.1905C4.32381 20.2095 4.3619 20.2286 4.38095 20.2286C4.4 20.2286 4.4 20.2476 4.4 20.2667L4.22857 20.8762C4.22857 20.8952 4.19047 20.8952 4.17143 20.8952L3.79047 20.8C3.77143 20.8 3.77143 20.7809 3.77143 20.7619L3.9619 20.0762L3.98095 20.0571C4.03809 20.0381 4.11428 20 4.17143 19.8095L4.24762 19.5238C4.28571 19.3714 4.28571 19.3143 4.19047 19.2952C4.09524 19.2762 4.07619 19.3524 4.03809 19.4476C4.01905 19.5048 3.82857 20.0952 3.80952 20.1905C3.79047 20.2286 3.6 20.8571 3.12381 20.7238C2.72381 20.6095 2.7619 20 2.85714 19.6762L2.95238 19.3143C2.99047 19.1619 3.10476 18.9524 3.1619 18.8952C3.14286 18.8571 3.12381 18.819 3.12381 18.8C3.10476 18.7809 3.10476 18.7619 3.12381 18.7428L3.27619 18.0571Z" fill="#F8F6F4"/>
<path d="M3.65725 21.4667L3.71439 21.0667C3.71439 21.0476 3.73344 21.0286 3.75249 21.0286L4.11439 21.0857C4.15249 21.0857 4.17154 21.1048 4.17154 21.1238L4.15249 21.2571C4.09535 21.6381 4.22868 21.8476 4.66677 22C4.70487 22 4.72392 22.0381 4.72392 22.0381L4.64773 22.5143C4.64773 22.5333 4.62868 22.5524 4.59058 22.5524L3.96201 22.4571L3.90487 22.8762C3.90487 22.9143 3.88582 22.9524 3.82868 22.9333L3.48582 22.8952C3.46677 22.8952 3.42868 22.8571 3.44773 22.8381L3.50487 22.4L3.06678 22.3429C2.97154 22.3238 2.80011 22.3619 2.78106 22.4952C2.76201 22.6286 2.8763 22.7238 3.08582 22.8C3.12392 22.8 3.16201 22.819 3.14297 22.8571L3.10487 23.1238C3.10487 23.1429 3.08582 23.1428 3.04773 23.1428C2.89535 23.1238 2.22868 22.9143 2.30487 22.3429L2.38106 21.7333C2.40011 21.6571 2.53344 21.2952 2.89535 21.3524L3.65725 21.4667Z" fill="#F8F6F4"/>
<path d="M2.19043 25.124C2.19043 26.0001 2.64757 26.1906 2.819 26.2478C2.819 26.2478 2.8571 26.2478 2.8571 26.2287V25.6763C2.8571 25.6763 2.8571 25.6573 2.83805 25.6573C2.68567 25.543 2.64757 25.3716 2.66662 25.1621V24.9335C2.66662 24.7049 2.74281 24.4763 2.99043 24.4573V26.2287C2.99043 26.2668 2.99043 26.2859 3.00948 26.2859H3.06662C3.58091 26.2859 3.86662 25.5621 3.86662 25.0668V24.6287C3.86662 24.5144 3.82852 23.3906 3.04757 23.3906C2.26662 23.3906 2.20948 24.4382 2.20948 24.8763L2.19043 25.124ZM3.23805 24.4763C3.33329 24.5335 3.42852 24.5906 3.42852 24.8763C3.42852 25.0859 3.33329 25.1811 3.23805 25.2192V24.4763Z" fill="#F8F6F4"/>
<path d="M3.69491 29.0665C4.19015 28.9903 4.1711 28.476 4.03777 27.6379C3.92348 26.895 3.80919 26.4379 3.46634 26.495C3.23777 26.5331 3.21872 26.7807 3.23777 26.8569C3.25681 26.9522 3.3711 27.1998 3.42824 27.2569C3.46634 27.3141 3.61872 27.4284 3.63777 27.5427L3.67586 27.8284C3.69491 27.9236 3.67586 28.0569 3.56158 28.076C3.48538 28.095 3.40919 27.8665 3.39015 27.7712L3.333 27.3712C3.31396 27.276 3.14253 26.5331 2.68538 26.6093C2.24729 26.6855 2.30443 27.3522 2.36157 27.6379C2.38062 27.7331 2.533 28.1331 2.76157 28.2093C2.62824 28.2855 2.49491 28.476 2.533 28.6855L2.62824 29.3331C2.66634 29.5807 2.91396 29.8665 3.42824 29.7903C3.42824 29.7903 3.44729 29.7903 3.44729 29.7712L3.40919 29.4855C3.40919 29.4665 3.39015 29.4665 3.3711 29.4665C3.35205 29.4665 3.12348 29.4855 3.10443 29.3331C3.08538 29.1998 3.21872 29.1427 3.23777 29.1427L3.69491 29.0665ZM3.21872 28.1141C2.9711 28.1522 2.87586 27.9807 2.83777 27.7903C2.83777 27.7522 2.81872 27.6569 2.89491 27.6379C3.00919 27.6188 3.04729 27.7522 3.12348 27.9046C3.16157 27.9998 3.29491 28.076 3.333 28.076L3.21872 28.1141Z" fill="#F8F6F4"/>
<path d="M3.44744 32.1142C3.42839 32.0951 3.44744 32.0761 3.48553 32.057L3.84744 31.9047C3.86649 31.9047 3.88553 31.9047 3.88553 31.9237L4.01887 32.2285L4.19029 32.1523C4.5141 32.0189 4.64744 31.9428 4.5141 31.5809C4.36172 31.2189 4.03791 31.3523 3.79029 31.4475L3.7141 31.4856L3.82839 31.7713C3.82839 31.7904 3.82839 31.8094 3.80934 31.8094L3.42839 31.9618C3.40934 31.9618 3.39029 31.9618 3.39029 31.9428L2.74268 30.3618C2.74268 30.3428 2.76172 30.3237 2.78077 30.3237L3.16172 30.1713C3.18077 30.1713 3.19982 30.1713 3.19982 30.1904L3.3522 30.5713L3.99982 30.3047L3.84744 29.9428C3.82839 29.9237 3.84744 29.9047 3.86649 29.8856L4.22839 29.7332C4.26649 29.7142 4.28553 29.7332 4.30458 29.7523L4.81887 31.0094C4.81887 31.0285 4.81887 31.0475 4.79982 31.0475L4.53315 31.1618C4.83791 31.1999 4.97125 31.3904 5.02839 31.5618L5.27601 32.1904C5.33315 32.3428 5.3141 32.6285 5.16172 32.8189C5.46649 32.857 5.61887 33.0094 5.69506 33.2189L5.92363 33.7904C6.1141 34.2475 5.90458 34.438 5.59982 34.5713L5.06649 34.7809L5.21887 35.1428C5.21887 35.1618 5.21887 35.1809 5.21887 35.1809L4.81887 35.3332C4.79982 35.3523 4.78077 35.3332 4.78077 35.3332L4.13315 33.7713C4.1141 33.7523 4.13315 33.7332 4.17125 33.7142L4.53315 33.5618C4.5522 33.5618 4.57125 33.5618 4.57125 33.5809L4.70458 33.8856L4.87601 33.8094C5.18077 33.6951 5.33315 33.5809 5.19982 33.238C5.08553 32.9713 4.79982 32.9713 4.64744 33.0285L4.39982 33.1237L4.53315 33.4285C4.53315 33.4475 4.53315 33.4666 4.5141 33.4666L4.13315 33.6189C4.1141 33.6189 4.09506 33.6189 4.09506 33.5999L3.44744 32.1142Z" fill="#F8F6F4"/>
<path d="M6.85687 34.152C6.83782 34.1329 6.81878 34.1329 6.78068 34.152L6.45687 34.3615C6.43782 34.3806 6.43782 34.3996 6.45687 34.4186L6.68544 34.7425L5.19973 35.752C5.18068 35.771 5.16163 35.7901 5.19973 35.8091L5.37116 36.0567C5.37116 36.0758 5.3902 36.0758 5.40925 36.0758H5.79021C5.77116 36.152 5.71401 36.571 6.03782 37.0472C6.34259 37.5044 6.85687 37.9806 7.40925 37.6186C7.88544 37.2948 7.75211 36.6091 7.48544 36.2091C7.25687 35.8663 6.93306 35.8091 6.87592 35.8091L7.63782 35.2948C7.65687 35.2948 7.65687 35.2758 7.63782 35.2567L6.85687 34.152ZM6.89497 36.2282C6.99021 36.3615 6.99021 36.6091 6.79973 36.7425C6.60925 36.8758 6.41878 36.8186 6.28544 36.6472C6.15211 36.4567 6.20925 36.2663 6.38068 36.1329C6.57116 35.9996 6.78068 36.0567 6.89497 36.2282Z" fill="#F8F6F4"/>
<path d="M8.13336 39.5999C8.30479 39.7904 9.06669 40.4761 9.61907 39.9618C10.0762 39.5237 9.61907 38.7427 9.33336 38.438L9.14288 38.2475C8.70479 37.7904 8.03812 37.3904 7.58098 37.8094C7.25717 38.1142 7.33336 38.7808 7.88574 39.3523L8.13336 39.5999ZM8.87622 38.6475C8.9905 38.7808 9.06669 39.0285 8.89526 39.1999C8.72384 39.3713 8.49526 39.3142 8.34288 39.1618C8.1905 38.9904 8.17145 38.7618 8.34288 38.6094C8.49526 38.438 8.74288 38.4951 8.87622 38.6475Z" fill="#F8F6F4"/>
<path d="M12.0571 41.5047C12.3619 41.1047 12 40.7428 11.3143 40.2475C10.7238 39.7904 10.3047 39.5428 10.1143 39.8094C9.98093 39.9999 10.1333 40.1904 10.1904 40.2285C10.2666 40.2856 10.5333 40.3809 10.5904 40.3809C10.6476 40.3809 10.8571 40.3809 10.9524 40.438L11.1809 40.6094C11.2571 40.6666 11.3333 40.7809 11.2762 40.8571C11.219 40.9333 11.0285 40.819 10.9333 40.7618L10.6095 40.5142C10.5333 40.4571 9.88569 40.0571 9.61902 40.419C9.35235 40.7809 9.86664 41.219 10.0952 41.3904C10.1714 41.4475 10.5524 41.638 10.7809 41.5237C10.7428 41.6761 10.7809 41.9047 10.9524 42.038L11.4666 42.419C11.6571 42.5714 12.0381 42.6094 12.3619 42.1904V42.1714L12.1333 41.9999C12.1143 41.9999 12.1143 41.9999 12.0952 42.019C12.0952 42.038 11.9428 42.2095 11.8095 42.1142C11.6952 42.038 11.7714 41.8856 11.7714 41.8856L12.0571 41.5047ZM11.0476 41.1428C10.8952 41.3333 10.7047 41.2952 10.5524 41.1809C10.5143 41.1618 10.4381 41.0856 10.4952 41.0285C10.5714 40.9333 10.6857 40.9904 10.8571 41.0666C10.9524 41.1047 11.0857 41.0666 11.1428 41.0475L11.0476 41.1428Z" fill="#F8F6F4"/>
<path d="M12.9336 41.9621L12.5907 41.7716C12.5717 41.7526 12.5526 41.7335 12.5717 41.7335L12.7431 41.4097C12.7621 41.3716 12.7812 41.3716 12.8002 41.3716L12.9145 41.4478C13.2574 41.6383 13.486 41.6002 13.7907 41.2383C13.8098 41.2192 13.8479 41.2002 13.8479 41.2002L14.2669 41.4478C14.286 41.4669 14.305 41.4859 14.286 41.505L13.9812 42.0573L14.3621 42.2669C14.3812 42.2859 14.4193 42.305 14.4002 42.3431L14.2288 42.6478C14.2098 42.6669 14.1907 42.6859 14.1526 42.6669L13.7526 42.4383L13.5431 42.8192C13.505 42.8954 13.4669 43.0669 13.5812 43.1431C13.7145 43.2192 13.8288 43.1431 13.9812 42.9716C14.0002 42.9526 14.0193 42.9145 14.0574 42.9335L14.286 43.0669C14.305 43.0859 14.305 43.0859 14.286 43.124C14.2098 43.2573 13.7717 43.8097 13.2764 43.505L12.7431 43.2002C12.6669 43.1621 12.4002 42.9145 12.5907 42.5716L12.9336 41.9621Z" fill="#F8F6F4"/>
<path d="M15.2954 44.5144C15.2764 44.5144 15.2764 44.4763 15.2764 44.4573L15.4097 44.0573C15.4097 44.0383 15.4287 44.0383 15.4478 44.0383L16.2097 44.2859C16.2097 44.2859 16.2287 44.3049 16.2287 44.324C16.2287 44.4192 16.3811 44.5335 16.5526 44.5906L16.7811 44.6668C16.8764 44.7049 16.9716 44.7049 17.0097 44.6287C17.0478 44.5335 16.9526 44.4954 16.9145 44.4763C16.8954 44.4763 16.343 44.2287 16.2859 44.2097C15.943 44.0573 15.524 43.7716 15.6573 43.3716C15.7526 43.0668 16.2287 43.0668 16.7811 43.2383L17.0668 43.3335C17.2192 43.3906 17.4097 43.5049 17.4859 43.6192C17.5049 43.6002 17.524 43.5621 17.543 43.543C17.543 43.524 17.5621 43.524 17.5811 43.524L18.1716 43.7335C18.1907 43.7335 18.1907 43.7716 18.1907 43.7906L18.0573 44.1716C18.0573 44.1906 18.0383 44.1906 18.0192 44.1906L17.3526 43.9621C17.3526 43.9621 17.3335 43.943 17.3335 43.924C17.3145 43.8668 17.2954 43.7906 17.0859 43.7144L16.8002 43.6192C16.6478 43.5621 16.5907 43.5811 16.5716 43.6573C16.5335 43.7525 16.6287 43.7716 16.724 43.8287C16.7811 43.8478 17.3526 44.0764 17.4478 44.1144C17.4859 44.1335 18.0954 44.3621 17.943 44.8383C17.8097 45.2383 17.2002 45.1621 16.8764 45.0478L16.5145 44.9335C16.3621 44.8763 16.1526 44.7621 16.1145 44.6859C16.0764 44.7049 16.0383 44.7049 16.0192 44.724C16.0002 44.724 15.9811 44.743 15.9621 44.724L15.2954 44.5144Z" fill="#F8F6F4"/>
<path d="M20.4381 44.1715C20.1143 44.1143 19.8667 44.2286 19.7333 44.3429L19.7714 44.0953C19.7714 44.0762 19.7714 44.0572 19.7524 44.0572L18.4381 43.8286C18.419 43.8286 18.4 43.8477 18.3809 43.8858L18.3238 44.2667C18.3238 44.2858 18.3428 44.3048 18.3619 44.3048L18.7619 44.381L18.5524 45.5619L18.1524 45.4858C18.1333 45.4858 18.1333 45.4858 18.1143 45.5048L18.0381 45.9239C18.0381 45.9429 18.0571 45.9429 18.0571 45.9429L19.8286 46.2477C19.8476 46.2477 19.8476 46.2286 19.8667 46.2096L19.9428 45.8096C19.9428 45.7905 19.9238 45.7715 19.9048 45.7715L19.5048 45.6953L19.5619 45.3715C19.6381 45.5238 19.9809 45.7524 20.2667 45.8096C20.7048 45.8858 21.3143 45.7524 21.4095 45.181C21.5048 44.6286 20.9333 44.2477 20.6476 44.1905L20.4381 44.1715ZM20.0381 44.5715C20.2286 44.6096 20.4 44.7429 20.3428 45.0096C20.3048 45.2572 20.1143 45.3143 19.9428 45.2762C19.7524 45.2381 19.5809 45.1239 19.6381 44.8572C19.6762 44.6667 19.8857 44.5524 20.0381 44.5715Z" fill="#F8F6F4"/>
<path d="M23.8477 44.4002C24.0191 44.4002 24.2668 44.5525 24.2477 44.8002C24.2477 45.0287 24.0763 45.143 23.9049 45.143C23.7525 45.143 23.6382 45.0478 23.562 44.9906C23.5048 44.9335 23.4287 44.9144 23.3715 44.9144C23.2763 44.9144 23.0668 45.0287 23.0477 45.2382V45.6001H23.4477C23.4668 45.6001 23.4668 45.6192 23.4668 45.6382V46.0382C23.4668 46.0573 23.4477 46.0763 23.4287 46.0763L21.6572 46.0382C21.6382 46.0382 21.6382 46.0192 21.6382 46.0002V45.6001C21.6382 45.5811 21.6572 45.5621 21.6572 45.5621H22.0763L22.0953 44.8573H21.6953C21.6763 44.8573 21.6572 44.8382 21.6572 44.8192V44.4382C21.6572 44.4002 21.6763 44.3811 21.6953 44.3811L23.0287 44.4002C23.0477 44.4002 23.0668 44.4192 23.0668 44.4382V44.7049C23.162 44.5716 23.4096 44.4002 23.6763 44.4002H23.8477Z" fill="#F8F6F4"/>
<path d="M25.5621 43.6001C25.5811 43.6001 25.6002 43.6001 25.6192 43.6382L25.6573 44.0572C25.6573 44.0763 25.6573 44.0953 25.6383 44.0953L24.8954 44.1715C24.8763 44.1715 24.8573 44.1715 24.8573 44.1525L24.8192 43.6953C24.8192 43.6763 24.8192 43.6572 24.8573 43.6572L25.5621 43.6001ZM26.2478 45.3906C26.2668 45.3906 26.2859 45.4096 26.2859 45.4287L26.324 45.8287C26.324 45.8477 26.324 45.8668 26.3049 45.8668L24.5335 46.0382C24.5144 46.0382 24.5144 46.0191 24.5144 46.0001L24.4764 45.6001C24.4764 45.5811 24.4954 45.562 24.4954 45.562L24.8954 45.5239L24.8192 44.8191L24.4192 44.8572C24.4002 44.8572 24.3811 44.8572 24.3811 44.8382L24.343 44.4572C24.343 44.4191 24.343 44.4001 24.3811 44.4001L25.7144 44.2668C25.7335 44.2668 25.7525 44.2858 25.7525 44.2858L25.8668 45.4287L26.2478 45.3906Z" fill="#F8F6F4"/>
<path d="M28.7428 43.6571C29.1047 43.5619 29.3904 43.7905 29.4666 44.0952L29.5999 44.6476L29.9809 44.5524C29.9999 44.5524 30.019 44.5714 30.019 44.5714L30.1142 44.9714C30.1142 44.9905 30.1142 45.0095 30.0761 45.0095L28.4571 45.4095C28.438 45.4095 28.419 45.4095 28.3999 45.3714L28.3047 44.9905C28.3047 44.9714 28.3047 44.9524 28.3238 44.9524L28.6476 44.8762L28.6095 44.7238C28.5142 44.3047 28.4571 44.2286 28.0952 44.3047C27.7142 44.4 27.7904 44.7238 27.8476 44.9714L27.8666 45.0667L28.1714 44.9905C28.1904 44.9905 28.2095 45.0095 28.2095 45.0095L28.3047 45.4095C28.3047 45.4286 28.3047 45.4476 28.2857 45.4476L26.6476 45.8476C26.6285 45.8476 26.6285 45.8286 26.6095 45.8095L26.5142 45.4095C26.5142 45.3905 26.5333 45.3714 26.5333 45.3714L26.9142 45.2762L26.7428 44.5905L26.3809 44.6857C26.3618 44.6857 26.3428 44.6857 26.3238 44.6666L26.2285 44.2857C26.2285 44.2476 26.2285 44.2286 26.2476 44.2286L27.5428 43.9047C27.5619 43.9047 27.5809 43.9047 27.5809 43.9238L27.6571 44.2095C27.6761 44.1333 27.7714 43.8476 28.1523 43.7524L28.7428 43.6571Z" fill="#F8F6F4"/>
<path d="M31.162 43.1046C31.3144 43.0284 31.4668 42.9903 31.5239 43.1237C31.5811 43.238 31.4668 43.2951 31.2953 43.3903C31.1239 43.4665 30.9906 43.5046 30.9525 43.3903C30.8953 43.2761 30.9715 43.1999 31.162 43.1046ZM30.8573 42.8951C30.7239 42.9523 29.8477 43.3903 30.0382 43.8475C30.1144 44.038 30.4192 44.057 30.4763 44.038C30.4192 44.1332 30.2668 44.3618 30.343 44.5523C30.4192 44.7237 30.6287 44.7427 30.6668 44.7618C30.6287 44.838 30.5144 44.9523 30.5715 45.0856C30.6287 45.2189 30.8953 45.238 31.0096 45.1808L33.1239 44.2284C33.2192 44.1903 33.7334 43.8284 33.562 43.4665C33.3906 43.0856 32.8763 43.257 32.5525 43.4094L30.9906 44.1142C30.9525 44.1332 30.8572 44.1523 30.8382 44.0951C30.8192 44.057 30.8192 44.0189 30.8192 43.9808L31.7525 43.5618C32.0192 43.4475 32.4953 43.0475 32.3811 42.7618C32.362 42.7427 32.343 42.7046 32.3239 42.7046C32.343 42.6665 32.4192 42.5523 32.4382 42.5332C32.4573 42.5713 32.6096 42.7999 32.8763 42.6856C33.0858 42.5903 33.0477 42.3427 33.0287 42.2856C32.9715 42.1523 32.8192 41.9999 32.6096 42.1142C32.4001 42.2094 32.2096 42.3427 32.1144 42.5713C31.7906 42.5332 31.4096 42.6475 31.0858 42.7999L30.8573 42.8951ZM32.1715 44.1523C32.3049 44.0951 32.6477 43.9237 32.7049 44.0189C32.743 44.0951 32.6477 44.1523 32.4192 44.2475L31.162 44.8189C31.0668 44.857 31.0096 44.857 30.9906 44.7999C30.9715 44.7427 30.9906 44.7046 31.0096 44.6856L32.1715 44.1523Z" fill="#F8F6F4"/>
<path d="M33.9427 43.238C33.9237 43.238 33.9046 43.238 33.9046 43.2189L33.676 42.8761C33.657 42.857 33.676 42.838 33.676 42.838L34.3427 42.3999C34.3427 42.3999 34.3808 42.3999 34.3808 42.4189C34.457 42.4761 34.6475 42.4189 34.7808 42.3237L34.9713 42.1904C35.0475 42.1332 35.1237 42.057 35.0665 41.9808C35.0094 41.9046 34.9141 41.9427 34.8951 41.9618C34.876 41.9808 34.3618 42.2665 34.3046 42.2856C33.9808 42.457 33.4856 42.6094 33.257 42.2665C33.0856 41.9999 33.3522 41.6189 33.8284 41.3142L34.076 41.1618C34.2094 41.0665 34.4189 40.9904 34.5522 40.9904C34.5332 40.9713 34.5332 40.9332 34.5141 40.8951C34.5141 40.8761 34.4951 40.857 34.5141 40.857L35.0284 40.5142C35.0475 40.5142 35.0665 40.5142 35.0856 40.5332L35.2951 40.857C35.2951 40.8761 35.2951 40.8951 35.2951 40.8951L34.7046 41.2761C34.7046 41.2761 34.6856 41.2761 34.6665 41.2761C34.6284 41.257 34.5332 41.2189 34.3618 41.3523L34.1141 41.5237C33.9808 41.5999 33.9427 41.657 33.9999 41.7332C34.057 41.8094 34.1332 41.7713 34.2284 41.7142C34.2856 41.6761 34.7999 41.3713 34.8951 41.3142C34.9332 41.2951 35.4856 40.9523 35.7713 41.3523C35.9999 41.6951 35.5808 42.1332 35.2951 42.3237L34.9903 42.5332C34.857 42.6094 34.6284 42.7046 34.5522 42.7046C34.5332 42.7427 34.5332 42.7808 34.5141 42.8189C34.5141 42.838 34.4951 42.857 34.476 42.857L33.9427 43.238Z" fill="#F8F6F4"/>
<path d="M36.5906 41.9048C36.5906 41.9048 36.5715 41.9048 36.5525 41.8667L36.1144 40.9333C36.0953 40.9143 36.0953 40.8762 36.1144 40.8571L36.7239 40.3619C36.743 40.3428 36.762 40.3619 36.762 40.3809L36.9334 41.5619C36.9334 41.5809 36.9334 41.6 36.9334 41.619L36.5906 41.9048Z" fill="#F8F6F4"/>
<path d="M39.2 38.8761C38.9714 39.1428 38.7047 39.2761 38.5904 39.3142C38.5333 39.3332 38.0762 39.4856 37.8095 39.238C37.5428 39.0094 37.5428 38.6666 37.5619 38.5142C37.619 38.2094 37.8095 37.9237 37.9619 37.7523L38.2095 37.4666C38.4 37.2571 38.9714 36.7428 39.2952 37.0285C39.4095 37.1237 39.4095 37.3142 39.2571 37.4856C39.1619 37.5999 38.9143 37.6952 38.7238 37.7142C38.6285 37.7332 38.5714 37.7904 38.4952 37.8475C38.4381 37.9237 38.2476 38.1713 38.4952 38.3809C38.7428 38.6094 38.9714 38.3809 39.0666 38.2666C39.2571 38.0571 39.3143 37.9047 39.2762 37.6761C39.2762 37.6571 39.2571 37.638 39.2762 37.638L39.5619 37.3142C39.5619 37.2952 39.6 37.3142 39.6 37.3332C39.7523 37.5999 39.8666 38.0952 39.4095 38.5904L39.2 38.8761Z" fill="#F8F6F4"/>
<path d="M41.2954 36.0574C41.4287 35.8289 41.9239 34.9336 41.2954 34.5336C40.762 34.1908 40.1144 34.8193 39.8858 35.1813L39.7525 35.4098C39.4096 35.9432 39.2001 36.686 39.7144 37.0289C40.0954 37.2765 40.7049 37.0289 41.1239 36.3622L41.2954 36.0574ZM40.1906 35.5622C40.2858 35.4098 40.5144 35.2765 40.7239 35.4098C40.9144 35.5432 40.9334 35.7717 40.8192 35.9622C40.7049 36.1527 40.4763 36.2098 40.2858 36.0955C40.0954 35.9813 40.0763 35.7336 40.1906 35.5622Z" fill="#F8F6F4"/>
<path d="M41.8666 33.5426C41.8666 33.5236 41.9046 33.5236 41.9237 33.5426L42.4761 33.8093C42.4951 33.8093 42.4951 33.8474 42.4761 33.8664L42.1142 34.5902C42.0951 34.6093 42.0761 34.6093 42.038 34.5902L41.4856 34.3236C41.4666 34.3236 41.4666 34.2855 41.4666 34.2664L41.8666 33.5426Z" fill="#F8F6F4"/>
<path d="M23.6572 7.27588C32.9524 7.27588 40.4953 14.8378 40.4953 24.114C40.4953 25.7521 40.2477 27.3521 39.8096 28.8568H38.0381C37.9429 28.8568 37.9048 28.914 37.9048 28.9902C37.9048 29.0473 37.8286 30.2473 36.6667 30.2473C35.7143 30.2473 35.5239 29.4664 35.5239 29.3902V27.0473C35.5239 24.9902 33.3143 24.3806 29.5048 24.2283C29.962 23.6949 30.2286 23.0473 30.2286 22.2283C30.2286 19.2759 25.9429 17.8854 22.6096 17.8854C19.7905 17.8854 18.2667 19.1045 18.0191 19.314V14.7235C18.0191 14.6473 17.9429 14.5711 17.8096 14.5711H9.79053C12.8381 10.1521 17.9048 7.27588 23.6572 7.27588Z" fill="#59605A"/>
<path d="M23.6574 40.9714C14.3622 40.9714 6.81934 33.4095 6.81934 24.1333C6.81934 21.5809 7.39076 19.1619 8.40029 17.0095H11.5241V26.1524C11.5241 26.2667 11.6003 26.3809 11.8479 26.3809H13.886C13.9812 26.3809 14.0384 26.3429 14.1146 26.2667L15.505 24.6667C15.7146 24.8381 16.5717 25.4476 18.1146 25.9048C18.0955 26 18.0765 26.0952 18.0765 26.1905C18.0765 27.3524 19.6955 27.6571 20.267 27.6571C20.8955 27.6571 22.686 27.2381 23.086 27.0667C23.467 26.9143 24.4955 26.2286 25.2384 26.2286H27.2003C27.886 26.2286 28.705 26.4381 28.705 26.9524C28.705 27.4095 27.3336 27.7143 26.4574 27.8286L23.5431 28.2095C22.286 28.381 18.1527 28.7048 17.9812 30.2286C17.7336 32.5143 22.5908 32.7048 24.4765 32.7048C25.105 32.7048 27.9622 32.2857 28.7431 31.1429C29.1622 31.8476 30.267 32.6667 31.7527 32.6667H36.1527C36.9336 32.6667 37.8479 32.4571 38.6098 31.9238C35.7717 37.2762 30.1336 40.9714 23.6574 40.9714Z" fill="#59605A"/>
<path d="M22.9905 22.2094C22.9905 23.4094 21.9619 24.0761 20.5143 24.0761C18.9714 24.0761 18.0381 23.3332 18.0381 22.2094C18.0381 20.9904 19.1809 20.3428 20.5143 20.3428C21.6952 20.3428 22.9905 21.0094 22.9905 22.2094Z" fill="#59605A"/>
<path d="M28.6666 28.0381V28.6857C28.6666 29.9428 27.4476 30.3238 26.1142 30.3238C25.8666 30.3238 25.1619 30.2857 25.1619 29.9428C25.1619 29.3524 26.0571 29.2381 27.2 28.9905C27.8857 28.8381 28.4571 28.3048 28.6285 28.0381H28.6666Z" fill="#59605A"/>
<path d="M42.819 41.3906C43.6952 41.3906 44.3999 42.0763 44.3999 42.9525C44.3999 43.8478 43.6952 44.5335 42.819 44.5335C41.9238 44.5335 41.219 43.8478 41.219 42.9525C41.219 42.0763 41.9238 41.3906 42.819 41.3906ZM42.7999 41.6573C42.0952 41.6573 41.5619 42.2287 41.5619 42.9335C41.5619 43.6573 42.0952 44.2287 42.819 44.2287C43.5238 44.2478 44.038 43.6573 44.038 42.9525C44.038 42.2478 43.5238 41.6573 42.7999 41.6573ZM42.5333 43.8097H42.2285V42.1716C42.3999 42.1335 42.5714 42.1144 42.7999 42.1144C43.0666 42.1144 43.219 42.1716 43.3142 42.2478C43.4095 42.324 43.4857 42.4382 43.4857 42.5906C43.4857 42.8001 43.3333 42.9144 43.1619 42.9906V43.0097C43.3142 43.0668 43.3904 43.2001 43.4285 43.4097C43.4857 43.6573 43.5047 43.7716 43.5428 43.8287H43.238C43.1809 43.7716 43.1428 43.6192 43.1047 43.3906C43.0666 43.2192 42.9523 43.143 42.7238 43.143H42.5333V43.8097ZM42.5333 42.8954H42.7428C42.9714 42.8954 43.1619 42.8192 43.1619 42.6287C43.1619 42.4763 43.0666 42.3621 42.7619 42.3621C42.6476 42.3621 42.5714 42.3811 42.5333 42.3811V42.8954Z" fill="#59605A"/>
</g>
<defs>
<clipPath id="clip0_432_2841">
<rect width="48" height="48" fill="white"/>
</clipPath>
</defs>
</svg>
