<svg width="88" height="48" viewBox="0 0 88 48" fill="none" xmlns="http://www.w3.org/2000/svg">
<g clip-path="url(#clip0_432_2788)">
<path d="M19.513 42.0393L19.7043 43.9045H19.3695C19.2261 43.2827 18.9869 42.948 18.7478 42.8045C18.5087 42.6132 18.2217 42.5175 17.8391 42.5175C17.4087 42.5175 17.0739 42.7088 17.0739 43.2349C17.0739 43.6653 17.313 43.8088 17.8391 44.1436L18.5565 44.574C19.3695 45.0523 19.8478 45.4349 19.8478 46.2001C19.8478 47.1566 19.0826 47.7784 17.9826 47.7784C17.7434 47.7784 17.4087 47.7306 17.1695 47.6349C16.8347 47.5393 16.6913 47.4436 16.6434 47.4436C16.5 47.4436 16.5 47.5871 16.5 47.7306H16.213L15.9739 45.8175H16.2608C16.4521 46.248 16.5956 46.5827 16.7391 46.7262C17.0261 47.061 17.4565 47.2523 17.9826 47.2523C18.5565 47.2523 18.8913 46.8697 18.8913 46.3914C18.8913 45.8653 18.5087 45.6262 17.8869 45.2436L17.1217 44.7653C16.5478 44.4306 16.213 44.048 16.213 43.4262C16.213 42.6132 16.7869 41.9436 17.8391 41.9436C18.0304 41.9436 18.3174 41.9914 18.5565 42.0871C18.8913 42.1827 19.0347 42.2784 19.1304 42.2784C19.2261 42.2784 19.2739 42.1349 19.3217 41.9914H19.513V42.0393ZM28.3608 42.1349V42.4219C28.0739 42.4697 27.8347 42.5653 27.7391 42.9001L26.0174 47.8262H25.7304L24.5347 44.4784L23.3869 47.7784H23.1L21.713 44.1436C21.4261 43.3784 21.1869 42.8523 21.0913 42.7088C20.9956 42.5653 20.8521 42.4697 20.613 42.4219H20.5652V42.1349H22.7174V42.4219C22.4782 42.4219 22.3826 42.4697 22.3347 42.4697C22.2391 42.5175 22.1913 42.5653 22.1913 42.661C22.1913 42.7566 22.2391 42.8523 22.2869 42.9958L23.4347 46.0566L24.2478 43.5697L23.913 42.8523C23.8652 42.7088 23.7695 42.5653 23.6261 42.5175C23.5304 42.4697 23.4347 42.4697 23.2913 42.4697V42.1827H25.4913V42.5175H25.3C24.9174 42.5175 24.8695 42.661 24.8695 42.7566C24.8695 42.8523 24.9174 42.948 24.9652 43.0914L26.0174 46.1045L26.9261 43.3784C26.9739 43.2349 27.0217 42.9958 27.0217 42.8045C27.0217 42.661 26.9739 42.6132 26.8304 42.5653C26.7347 42.5175 26.6869 42.5175 26.4956 42.5175V42.2306H28.3608V42.1349ZM30.8478 46.9653C30.8478 47.1566 30.9434 47.2523 31.1347 47.3001C31.2304 47.348 31.3739 47.3958 31.5174 47.3958V47.6827H29.2695V47.3958C29.3652 47.3958 29.6043 47.3001 29.6521 47.2523C29.7956 47.1566 29.8913 47.1088 29.8913 46.9175V42.8523C29.8913 42.5653 29.5087 42.4219 29.2695 42.374V42.0871H31.5174V42.374C31.2304 42.4219 30.8956 42.5175 30.8956 42.8523V46.9653H30.8478ZM36.3478 42.0393L36.5391 43.9045H36.2043C36.0608 43.2827 35.8217 42.948 35.5826 42.8045C35.3434 42.6132 35.0087 42.5175 34.6739 42.5175C34.2434 42.5175 33.9087 42.7088 33.9087 43.2349C33.9087 43.6653 34.1478 43.8088 34.6739 44.1436L35.3913 44.574C36.2043 45.0523 36.6826 45.4349 36.6826 46.2001C36.6826 47.1566 35.9174 47.7784 34.8174 47.7784C34.5782 47.7784 34.2434 47.7306 34.0043 47.6349C33.6695 47.5393 33.5261 47.4436 33.4304 47.4436C33.2869 47.4436 33.2869 47.5871 33.2869 47.7306H33L32.7608 45.8175H33.0478C33.2391 46.248 33.3826 46.5827 33.526 46.7262C33.813 47.061 34.2434 47.2523 34.7695 47.2523C35.2956 47.2523 35.6782 46.8697 35.6782 46.3914C35.6782 45.8653 35.2956 45.6262 34.6739 45.2436L33.9087 44.7653C33.3347 44.4306 33 44.048 33 43.4262C33 42.6132 33.5739 41.9436 34.6261 41.9436C34.8174 41.9436 35.1043 41.9914 35.3434 42.0871C35.6782 42.1827 35.8217 42.2784 35.9174 42.2784C36.013 42.2784 36.0608 42.1349 36.0608 41.9914H36.3478V42.0393ZM41.6087 42.0393L41.8 43.9045H41.4652C41.3217 43.2827 41.0826 42.948 40.8434 42.8045C40.6043 42.6132 40.2695 42.5175 39.9347 42.5175C39.5043 42.5175 39.1695 42.7088 39.1695 43.2349C39.1695 43.6653 39.4087 43.8088 39.9347 44.1436L40.6521 44.574C41.4652 45.0523 41.9434 45.4349 41.9434 46.2001C41.9434 47.1566 41.1782 47.7784 40.0782 47.7784C39.8391 47.7784 39.5043 47.7306 39.2652 47.6349C38.9304 47.5393 38.7869 47.4436 38.7391 47.4436C38.5956 47.4436 38.5956 47.5871 38.5478 47.7306H38.2608L38.0217 45.8175H38.2608C38.4521 46.248 38.5956 46.5827 38.7391 46.7262C39.0261 47.061 39.4565 47.2523 39.9826 47.2523C40.5565 47.2523 40.8913 46.8697 40.8913 46.3914C40.8913 45.8653 40.5087 45.6262 39.8869 45.2436L39.1217 44.7653C38.5478 44.4306 38.213 44.048 38.213 43.4262C38.213 42.6132 38.7869 41.9436 39.8391 41.9436C40.0304 41.9436 40.3174 41.9914 40.5565 42.0871C40.8913 42.1827 41.0347 42.2784 41.1304 42.2784C41.2261 42.2784 41.2739 42.1349 41.3217 41.9914H41.6087V42.0393ZM47.5869 45.6262H49.3087L48.4 43.4262L47.5869 45.6262ZM48.6869 42.0393L50.6956 46.6784C50.8391 47.0132 50.9347 47.1566 51.0304 47.2523C51.126 47.3001 51.2695 47.3958 51.5087 47.3958V47.6827H49.4043V47.3958C49.7391 47.348 49.9304 47.348 49.9304 47.1566C49.9304 47.1088 49.9304 47.0132 49.8826 46.9653L49.5478 46.1523H47.3478L47.1087 46.774C47.0608 46.9175 47.013 47.0132 47.013 47.1088C47.013 47.3958 47.2521 47.3958 47.5391 47.4436V47.7306H45.6261V47.4436C45.8652 47.3958 46.0565 47.348 46.1521 47.2523C46.2478 47.1088 46.3434 47.0132 46.6304 46.3436L48.3521 42.0871H48.6869V42.0393ZM54.6652 42.7088C54.6174 42.7088 54.426 42.7088 54.0913 42.7566V45.1001H55.0478C55.7652 45.0523 56.0521 44.6697 56.0521 43.8566C56.0043 42.8523 55.3826 42.7088 54.6652 42.7088ZM57.5826 47.6827H56.2434L55.0478 45.5784H54.0913V46.9175C54.0913 47.1088 54.2347 47.348 54.7608 47.3958V47.6827H52.4174V47.3958C52.5608 47.3958 52.7043 47.348 52.8478 47.3001C52.9913 47.2523 53.1347 47.1088 53.1347 46.9175V42.9958C53.1347 42.6132 52.7521 42.4697 52.3695 42.4697V42.1827H55.0478C55.9565 42.1827 57.1043 42.8045 57.1043 43.8566C57.1043 44.3827 56.8652 45.1958 55.9565 45.4827L56.8652 46.9653C57.0087 47.2045 57.2 47.3958 57.5826 47.3958V47.6827ZM63.8956 42.1349H65.5695V42.4219C65.1391 42.4697 64.9478 42.6132 64.9478 43.0914V46.6784C64.9478 47.2045 65.0434 47.3001 65.5695 47.348V47.6349H63.3217V47.348C63.8956 47.3001 63.9434 47.1566 63.9434 46.5827V43.3784L61.9347 47.6349H61.7434L59.7826 43.4262V46.3436C59.7826 46.774 59.8304 47.0132 59.9739 47.1566C60.0695 47.2523 60.213 47.3001 60.5 47.348V47.6349H58.4913V47.348C58.7782 47.3001 58.9217 47.2045 59.0174 47.1088C59.0652 47.0132 59.1608 46.8697 59.1608 46.3436V43.0436C59.1608 42.8045 59.1608 42.6132 59.0174 42.5175C58.9217 42.4219 58.7782 42.4219 58.5391 42.374V42.0393H60.213L61.9826 46.0088L63.8956 42.1349ZM72.0739 42.1349V42.4697C71.8826 42.4697 71.7391 42.5175 71.5956 42.6132C71.4043 42.7566 71.1652 42.9958 70.9261 43.3784L69.7304 45.1958V46.7262C69.7304 47.1088 69.7782 47.2045 69.8739 47.2523C69.9217 47.3001 70.0652 47.3958 70.5434 47.3958V47.7306H68.0565V47.4436C68.5347 47.3958 68.6304 47.3001 68.6782 47.2523C68.7261 47.2045 68.7739 47.061 68.7739 46.6784V45.3393L67.7217 43.8088C67.3391 43.2827 67.1 42.948 66.9565 42.7566C66.813 42.6132 66.6695 42.5653 66.3826 42.5175V42.1827H68.7739V42.5175H68.6304C68.4391 42.5175 68.2 42.5653 68.2 42.7566C68.2 42.8523 68.2478 42.948 68.3434 43.0436L69.4434 44.6697L70.5434 43.0436C70.5913 42.948 70.6391 42.8523 70.6391 42.7566C70.6391 42.661 70.5913 42.6132 70.4478 42.6132C70.3043 42.5653 70.113 42.5653 70.113 42.5653V42.2306H72.0739V42.1349Z" fill="#59605A"/>
<path d="M84.3174 33.0956L86.613 36.5391C86.8522 36.8739 87.0913 37.113 87.3304 37.2565C87.4739 37.3521 87.8087 37.4956 88 37.4956V37.926H84.1739V37.4956C84.1739 37.4956 84.5565 37.4478 84.7478 37.3521C84.987 37.2565 85.0348 36.9695 84.8435 36.7304L83.313 34.4347L81.5435 36.7782C81.2087 37.1608 81.5435 37.4478 81.9261 37.4956V37.926H79.1043V37.4956C79.7261 37.4 80.013 37.113 80.3 36.7304L82.6913 33.526L80.5391 30.3695C80.2043 29.8434 79.7261 29.5565 79.1043 29.5565V29.126H83.0261V29.5565C82.6435 29.6043 81.9739 29.7478 82.2609 30.2739L83.6 32.2826L85.1304 30.2739C85.4652 29.8913 85.2261 29.6043 84.7 29.5565V29.126H87.5217V29.5565C87.1391 29.6043 86.8522 29.7956 86.5652 30.0347L84.3174 33.0956ZM71.5478 33.3826C71.5478 35.2 72.1217 37.2087 73.9391 37.2087C75.8044 37.2087 76.2826 35.2 76.2348 33.3347C76.187 31.5652 75.8522 29.7 73.9391 29.7C71.9304 29.7 71.5478 31.613 71.5478 33.3826ZM78.1478 33.526C78.1 35.8695 76.5217 38.1173 73.987 38.1173C71.4044 38.1173 69.7304 36.0608 69.6826 33.4782C69.6348 31.0869 71.3087 28.7913 73.9391 28.7913C76.5696 28.7913 78.1956 31.1347 78.1478 33.526ZM67.0043 37.8782H66.6696L61.0739 31.3739V36.7304C61.0739 36.9695 61.2174 37.1608 61.4565 37.3043C61.6957 37.4478 61.887 37.4478 62.0783 37.4956V37.926H59.0652V37.4956C59.2565 37.4478 59.4 37.4478 59.5435 37.3521C59.8304 37.2565 60.0696 37.0173 60.0696 36.7304V30.3695C59.8783 29.9391 59.3522 29.5087 58.8739 29.5087V29.0782H61.1696L66.0956 34.8652V30.2739C66.0956 29.7956 65.4739 29.5087 65.0913 29.5087V29.0782H68.1043V29.5087C67.4826 29.5565 67.0043 29.7 67.0043 30.226V37.8782ZM55.6696 36.7304C55.6696 37.0173 55.813 37.1608 56.1 37.3043C56.2913 37.4 56.4826 37.4478 56.6739 37.4956V37.926H53.0391V37.4956C53.2304 37.4478 53.613 37.3521 53.7087 37.3043C53.9478 37.1608 54.1391 37.0652 54.1391 36.7304V30.226C54.1391 29.7478 53.5174 29.5565 53.0391 29.5087V29.0782H56.6739V29.5087C56.1478 29.6043 55.6696 29.7 55.6696 30.2739V36.7304ZM46.5348 29.9391C46.4391 29.9391 46.1044 29.9869 45.5783 30.0347V33.813H47.1087C48.2087 33.7173 48.687 33.1434 48.687 31.8043C48.7348 30.1304 47.7304 29.9391 46.5348 29.9391ZM51.2696 37.8782H49.0696L47.1565 34.5782H45.6261V36.7304C45.6261 37.0652 45.8652 37.3521 46.7261 37.4478L46.7739 37.8782H43.0435V37.4478C43.2348 37.4478 43.5217 37.4 43.713 37.3043C43.9522 37.2087 44.1435 36.9695 44.1435 36.6826V30.3695C44.1435 29.7956 43.5217 29.5565 42.9478 29.5087V29.0782H47.2043C48.687 29.0782 50.5043 30.0826 50.5043 31.7565C50.5043 32.6173 50.1217 33.9087 48.687 34.3391L50.1696 36.7304C50.4087 37.113 50.7435 37.3521 51.3174 37.4L51.2696 37.8782ZM34.5304 33.4304C34.4826 35.2478 35.1043 37.2565 36.8739 37.2565C38.7391 37.2565 39.2174 35.2478 39.1696 33.3826C39.1217 31.613 38.8348 29.7478 36.8739 29.7478C34.913 29.7478 34.5783 31.613 34.5304 33.4304ZM41.1304 33.5739C41.0826 35.9173 39.5043 38.1652 36.9696 38.1652C34.387 38.1652 32.713 36.1087 32.6652 33.526C32.6174 31.1347 34.2913 28.8391 36.9217 28.8391C39.5522 28.8391 41.1783 31.1347 41.1304 33.5739ZM28.6478 29.9869V36.6826C28.6478 37.0173 28.887 37.2565 29.2217 37.3521C29.413 37.4478 29.6522 37.4478 29.8435 37.4956V37.926H26.113V37.4956C26.3043 37.4478 26.4957 37.4478 26.7348 37.3521C27.0217 37.2565 27.213 37.0173 27.213 36.6826L27.1652 30.0347H25.9696C25.2522 30.0347 25.0609 30.3217 24.9174 30.6565C24.8217 30.9434 24.7739 31.1826 24.7739 31.4695H24.2478V29.1739H31.5652V31.4695H31.0391C30.9913 31.1826 30.9435 30.8 30.8478 30.5608C30.6565 30.226 30.4174 30.0826 30.0826 30.0826H28.6478V29.9869ZM22.6696 29.0782L22.7174 31.4695H22.2391C22.0957 31.0869 22 30.6087 21.7609 30.3217C21.4261 29.8913 20.9957 29.7478 20.2783 29.7478C17.9826 29.7478 17.7913 32.0434 17.7913 33.4782C17.7913 34.9608 18.0783 37.3043 20.4696 37.2565C21.187 37.2565 22.287 36.826 23.0522 35.8695L23.1478 35.7739L23.6261 36.1565L23.5783 36.2043C22.7652 37.6869 21.187 38.213 20.1826 38.213C17.3609 38.213 15.9261 35.6782 15.9261 33.6217C15.9261 31.9 16.9783 28.9826 19.7043 28.9826C20.7565 28.9826 21.5217 29.2217 22.1913 29.6043L22.287 29.2217H22.6696V29.0782ZM13.2478 36.7304C13.2478 37.0173 13.3913 37.1608 13.6783 37.3043C13.8696 37.4 14.0609 37.4478 14.2522 37.4956V37.926H10.6174V37.4956C10.8087 37.4478 11.1435 37.3521 11.287 37.3043C11.5261 37.1608 11.7174 37.0652 11.7174 36.7304V30.226C11.7174 29.7478 11.0957 29.5565 10.6174 29.5087V29.0782H14.2522V29.5087C13.7261 29.6043 13.2478 29.7 13.2478 30.2739V36.7304ZM4.92609 35.726L6.93478 30.226C7.07826 29.8434 6.93478 29.6043 6.21739 29.5087V29.0304H9.23043V29.5087C8.70435 29.5565 8.27391 29.6521 8.03478 30.3217L5.06957 38.213H4.4L1.05217 30.2739C0.765217 29.6043 0.191304 29.5565 0 29.5565V29.0782H3.53913V29.5565C2.91739 29.6043 2.82174 29.9391 2.86957 30.1304L4.92609 35.726Z" fill="#59605A"/>
<path d="M36.6825 10.0434C36.6825 7.65205 36.2999 5.30857 35.5825 3.1564V3.10857C36.1564 2.82162 37.3043 2.2477 38.4521 1.62596C39.6956 0.956398 41.0825 0.334659 41.7521 0.19118C42.6608 -0.000123993 43.4738 0.286833 43.9999 1.05205C44.526 0.286833 45.339 -0.000123993 46.2477 0.19118C46.9651 0.334659 48.3043 0.956398 49.5477 1.62596C50.6956 2.2477 51.8434 2.82162 52.4173 3.10857V3.1564C51.6999 5.3564 51.3173 7.65205 51.3173 10.0434C51.3173 12.339 51.7477 14.539 52.4173 16.6434V16.6912C48.5912 18.126 46.2477 19.8477 44.0477 22.1912H43.9999C41.7999 19.8955 39.4564 18.126 35.6303 16.6912V16.6434C36.2521 14.539 36.6825 12.339 36.6825 10.0434Z" fill="#F8F6F4"/>
<path d="M35.7262 16.5955C39.887 18.126 42.1349 20.0868 44.0001 21.9999C46.487 19.4173 48.9262 17.839 52.274 16.5955C51.5566 14.2521 51.2218 12.0999 51.2218 10.0434C51.2218 7.79553 51.6044 5.45206 52.3218 3.20423C51.7957 2.91727 50.6957 2.39119 49.5479 1.76945C48.1131 1.00423 46.8696 0.478143 46.2479 0.334664C45.3392 0.14336 44.574 0.430317 44.1436 1.14771L44.0001 1.29119L43.9044 1.09988C43.474 0.430317 42.6609 0.095534 41.8001 0.286838C41.1783 0.430317 39.9349 0.956403 38.5479 1.72162C37.3523 2.34336 36.3001 2.91727 35.774 3.1564C36.4436 5.45206 36.8262 7.74771 36.8262 10.0434C36.8262 12.0999 36.4436 14.2042 35.7262 16.5955ZM44.0957 22.239H43.9044C42.0392 20.326 39.7436 18.3173 35.5827 16.7868H35.5349L35.487 16.6434V16.5955C36.2044 14.2042 36.5392 12.0999 36.5392 10.0434C36.5392 7.74771 36.1566 5.45206 35.4392 3.20423V3.1564L35.487 3.01293H35.5349C36.061 2.77379 37.161 2.19988 38.4044 1.53032C39.8392 0.765099 41.1305 0.191186 41.7523 0.095534C42.6609 -0.0957704 43.5218 0.191186 44.0479 0.860751C44.574 0.191186 45.387 -0.0957704 46.3436 0.095534C46.9653 0.239012 48.2088 0.765099 49.6914 1.53032C50.9349 2.19988 52.0349 2.77379 52.5609 3.01293H52.6088L52.6566 3.1564V3.20423C51.9392 5.49988 51.5566 7.79553 51.5566 10.0434C51.5566 12.0999 51.8914 14.2521 52.6566 16.5955V16.6434L52.6088 16.7868H52.5609C49.0696 18.0303 46.6305 19.6086 44.0957 22.239ZM48.4479 2.77379C47.4914 2.29553 46.487 1.81727 45.9609 1.72162C44.9566 1.53032 44.1436 2.34336 44.0479 2.82162L44.0001 2.91727L43.9523 2.82162C43.8088 2.34336 43.0436 1.53032 42.0392 1.72162C41.5131 1.81727 40.5088 2.29553 39.5523 2.77379C38.5957 3.25206 37.687 3.73032 37.2566 3.92162C37.8305 5.73901 38.1175 7.60423 38.1175 9.61293H39.4566V8.60858H42.5653V5.49988H45.2914V8.60858H48.4001V9.61293H49.8349C49.8349 7.60423 50.1218 5.73901 50.6957 3.92162C50.3131 3.73032 49.4044 3.25206 48.4479 2.77379ZM44.0001 20.1347C45.8653 18.3651 48.1609 16.6912 50.6957 15.8303C50.4566 14.9694 50.1696 13.7738 50.0262 12.5781C49.8827 11.4781 49.8349 10.426 49.8349 10.3303H48.4001V11.3347H45.2914V14.4434H42.5653V11.3347H39.4566V10.3303H38.1175C38.0696 12.1477 37.7827 14.2042 37.3044 15.8303C39.8392 16.6912 42.1349 18.3651 44.0001 20.1347Z" fill="#59605A"/>
</g>
<defs>
<clipPath id="clip0_432_2788">
<rect width="88" height="47.8261" fill="white"/>
</clipPath>
</defs>
</svg>
