<svg width="140" height="25" viewBox="0 0 140 25" fill="none" xmlns="http://www.w3.org/2000/svg">
<g clip-path="url(#clip0_432_2899)">
<path d="M43.4474 18.7453C42.786 18.6937 42.4229 18.6651 42.5853 17.8856C42.6975 17.3353 42.8805 17.0458 44.2416 17.0458C45.2572 17.0458 45.6617 17.0458 45.455 18.0546H47.8878L47.9705 17.6505C48.5285 14.9422 46.7629 14.9021 44.6815 14.9021C42.1985 14.9021 40.6278 15.0855 40.0492 17.8999C39.4705 20.7142 40.8404 20.6999 43.1521 20.869L43.7013 20.9091C44.8822 20.9865 45.0181 20.9722 44.8439 21.8262C44.6697 22.6803 44.2534 22.729 43.0724 22.729C41.8295 22.729 41.4958 22.623 41.7055 21.6027H39.2668C38.6025 24.824 40.2027 24.8785 42.6266 24.8785C46.8072 24.8785 47.0729 23.2793 47.4065 21.66C47.8701 19.4102 47.2501 19.0434 44.4778 18.8313L43.4474 18.7453Z" fill="#59605A"/>
<path d="M51.7821 17.1232H56.1044L56.5473 14.9766H49.6889L47.6694 24.7924H54.6135L55.0593 22.6458H50.6455L51.0411 20.7343H55.0947L55.4697 18.9144H51.4131L51.7821 17.1232Z" fill="#59605A"/>
<path d="M62.0948 23.1044L62.2424 24.7924H64.8258L63.9577 14.9766H60.1049L55.2334 24.7924H57.8669L58.6848 23.1044H62.0948ZM61.9826 21.1957H59.6207L61.6519 16.9311H61.6755L61.9826 21.1957Z" fill="#59605A"/>
<path d="M73.4293 17.765L73.9814 15.1857C73.9927 15.1316 73.9774 15.0754 73.94 15.0338C73.9038 14.991 73.8494 14.9667 73.7924 14.9678H66.0128C65.9227 14.9658 65.8436 15.0258 65.8239 15.1112L65.2688 17.6905C65.2584 17.7446 65.2736 17.8004 65.3102 17.8424C65.3469 17.8845 65.4009 17.9087 65.4578 17.9083H67.5717L66.1339 24.6548C66.1213 24.7085 66.1355 24.7647 66.1723 24.8067C66.2099 24.8492 66.2651 24.8734 66.3228 24.8726H69.2752C69.3663 24.8744 69.4457 24.813 69.4642 24.7264L70.9404 17.9083H73.258C73.3487 17.9091 73.4275 17.8481 73.447 17.7622L73.4293 17.765ZM67.1525 24.0415L68.6021 17.2979C68.6142 17.2442 68.6 17.1881 68.5637 17.146C68.5278 17.1025 68.4735 17.0772 68.4161 17.0772H66.2992L66.5708 15.8047H72.9539L72.6794 17.0772H70.3588C70.2681 17.0765 70.1893 17.1375 70.1698 17.2234L68.6936 24.0386L67.1525 24.0415Z" fill="#59605A"/>
<path d="M82.3718 15.9165C81.7459 15.2086 80.6889 14.9048 78.8289 14.9048C76.4345 14.9048 74.1258 15.349 73.4319 18.5617L72.8828 21.1239C72.6112 22.3792 72.7529 23.2963 73.3109 23.9325C74.1051 24.8296 75.6167 24.9442 76.8538 24.9442C79.2482 24.9442 81.557 24.5028 82.2478 21.2873L82.7999 18.7251C83.0686 17.4669 82.9298 16.5498 82.3689 15.9136L82.3718 15.9165ZM76.8597 24.1159C75.3185 24.1159 74.4387 23.8953 74.0018 23.4023C73.6209 22.9753 73.5412 22.2817 73.7567 21.2901L74.3088 18.728C74.8461 16.2346 76.4434 15.7359 78.8437 15.7359C80.3849 15.7359 81.2647 15.9566 81.7016 16.4495C82.0795 16.8794 82.1592 17.5701 81.9467 18.5646L81.3946 21.1268C80.8572 23.6173 79.26 24.1188 76.8597 24.1188" fill="#59605A"/>
<path d="M78.3892 17.0085C77.0045 17.0085 76.3225 17.1862 75.9121 18.817L75.4692 20.869C75.3187 21.66 75.3748 22.1099 75.6582 22.4252C75.9416 22.7404 76.4642 22.8465 77.3056 22.8465C78.7818 22.8465 79.4491 22.5914 79.7827 21.0237L80.2226 18.9832C80.3879 18.2208 80.3378 17.7594 80.0602 17.4442C79.7384 17.0802 79.2247 17.0114 78.3833 17.0114L78.3892 17.0085ZM77.3027 22.0154C77.0429 22.0154 76.4376 22.0154 76.3225 21.8893C76.293 21.8549 76.2014 21.6915 76.3225 21.0295L76.7624 18.9918C77.0252 17.9113 77.2112 17.8454 78.3803 17.8454C78.6756 17.8454 79.266 17.8454 79.3812 17.9772C79.4166 18.0202 79.4934 18.1922 79.3605 18.8198L78.9206 20.8632C78.6815 21.9781 78.4335 22.0096 77.3027 22.0096" fill="#59605A"/>
<path d="M87.0309 18.7453C86.3696 18.6937 86.0094 18.665 86.1659 17.8855C86.2781 17.3352 86.4611 17.0458 87.8222 17.0458C88.8378 17.0458 89.2452 17.0458 89.0356 18.0546H91.4684L91.554 17.6505C92.115 14.925 90.3435 14.8992 88.2769 14.8992C85.7939 14.8992 84.2202 15.0826 83.6416 17.897C83.0629 20.7113 84.4328 20.697 86.7445 20.8661L87.2937 20.9062C88.4747 20.9836 88.6105 20.9692 88.4363 21.8233C88.2621 22.6774 87.8458 22.7261 86.6648 22.7261C85.4248 22.7261 85.0883 22.62 85.3008 21.5998H82.8681C82.2008 24.8211 83.801 24.8755 86.222 24.8755C90.4055 24.8755 90.6712 23.2763 91.0049 21.6571C91.4684 19.4073 90.8454 19.0405 88.0761 18.8284L87.0309 18.7453Z" fill="#59605A"/>
<path d="M99.0945 14.9765L97.7777 21.3504C97.5445 22.4967 97.1607 22.5913 96.0801 22.5913C94.9995 22.5913 94.412 22.5913 94.6423 21.4679L95.9738 14.9765H93.4377L92.0914 21.5166C91.6102 23.8724 91.7962 24.8698 95.6136 24.8698C98.4007 24.8698 99.747 24.1361 100.281 21.5166L101.628 14.9736L99.0945 14.9765Z" fill="#59605A"/>
<path d="M104.633 17.2665H104.707L105.593 24.7924H107.789L111.74 17.2665H111.834L110.03 24.7924H112.566L114.586 14.9766H110.467L107.471 21.1412H107.385L106.842 14.9766H102.82L100.801 24.7924H103.337L104.633 17.2665Z" fill="#59605A"/>
<path d="M117.547 17.2665H117.624L118.51 24.7924H120.697L124.656 17.2665H124.742L122.941 24.7924H125.48L127.5 14.9766H123.378L120.387 21.1412H120.299L119.755 14.9766H115.734L113.718 24.7924H116.251L117.547 17.2665Z" fill="#59605A"/>
<path d="M131.246 14.9766H128.713L126.69 24.7924H129.227L131.246 14.9766Z" fill="#59605A"/>
<path d="M136.968 17.2521H139.531L140 14.9766H132.468L132.002 17.2521H134.435L132.882 24.7924H135.418L136.968 17.2521Z" fill="#59605A"/>
<path d="M10.1562 16.9798C10.1562 17.1375 10.4515 17.2406 10.6109 17.2922C14.6078 18.5987 18.0585 21.1316 20.4424 24.5087C20.5576 24.6692 20.652 24.8268 20.8705 24.8268C21.0063 24.8268 21.21 24.6348 21.21 24.6348L24.2451 22.0096C24.3624 21.9299 24.4345 21.8016 24.44 21.6628C24.44 21.4478 24.3425 21.3934 24.189 21.2616C20.3184 17.9772 13.8763 16.9884 10.6109 16.8193C10.4515 16.8193 10.1562 16.8193 10.1562 16.9798Z" fill="#59605A"/>
<path d="M34.0766 10.5888L27.9799 5.4301L22.6243 0.881836C22.6243 0.881836 21.523 1.86486 18.1425 4.84544C14.824 7.77731 8.85721 13.7012 0.44286 14.4435C0.29524 14.4435 0 14.5037 0 14.6527C0 14.8017 0.318859 14.8247 0.45467 14.8304C1.09239 14.8533 2.55383 14.8304 2.55383 14.8304C12.2968 14.8304 18.2606 10.9155 21.5998 8.43648C21.8035 8.28458 21.9511 8.17567 22.1371 8.04384C22.4361 7.82741 22.8513 7.84786 23.1262 8.09256C23.3653 8.30178 23.2472 8.20147 23.2472 8.20147L28.8066 12.9188C28.8066 12.9188 28.9837 13.0707 29.1579 13.2054C30.0643 13.9219 29.7159 14.5266 28.7269 14.3747C28.4316 14.3289 29.0221 14.4062 28.3372 14.3289C27.6522 14.2515 27.5932 14.24 26.5657 14.1626C24.3912 13.997 22.2087 13.9539 20.0291 14.0337C17.8331 14.1118 15.6442 14.3214 13.4748 14.6613C13.3242 14.6842 13.0201 14.7817 13.0201 14.9164C13.0201 15.0511 13.3153 15.1313 13.4748 15.1457C16.7047 15.4609 25.122 17.4613 29.5034 21.2444C30.4599 22.0698 30.4275 22.0669 31.4785 21.1441C34.0176 18.9086 38.8595 14.6584 38.8595 14.6584L34.0766 10.5888Z" fill="#59605A"/>
</g>
<defs>
<clipPath id="clip0_432_2899">
<rect width="140" height="24.0625" fill="white" transform="translate(0 0.881836)"/>
</clipPath>
</defs>
</svg>
