<svg width="84" height="48" viewBox="0 0 84 48" fill="none" xmlns="http://www.w3.org/2000/svg">
<g clip-path="url(#clip0_432_2890)">
<path d="M0.0913757 46.6552L38.3361 0L44.3002 7.63343L47.7082 3.47585L70.6933 32.4157C70.9805 32.867 70.3008 32.915 69.9849 32.6077C55.3284 21.124 38.4414 20.4518 24.7422 26.7506C14.2118 31.5995 8.36257 38.8489 0.665764 47.0776C0.474302 47.2889 -0.253258 47.1448 0.0913757 46.6552Z" fill="#59605A"/>
<path d="M69.3147 37.2933V40.1931H72.5695C73.4503 40.3083 74.2544 39.5401 74.2161 38.6664C74.1683 37.8598 73.479 37.2453 72.694 37.2933H69.3147ZM63.6187 47.5288V33.8655H75.6234C80.2855 33.9711 79.9983 38.0519 79.9983 38.0519C79.893 40.3083 77.4614 41.2493 77.4614 41.2493L82.4586 47.5384H76.0733L72.9333 43.5249H69.3051V47.5384H63.6187V47.5288Z" fill="#59605A"/>
<path d="M59.8374 34.2113C57.8844 33.7312 55.3667 33.2991 53.4808 33.2511C48.7517 33.1455 44.281 34.4226 44.281 37.7064C44.281 42.8913 54.0169 40.9806 53.4521 43.6307C53.3085 44.3028 51.9395 44.6197 50.36 44.5236C47.9954 44.3892 46.1286 43.6307 44.5873 43.093V46.7513C46.8179 47.337 48.991 47.8171 51.5757 47.9707C55.7401 48.2203 60.4309 46.8953 60.4309 43.4098C60.4309 38.1096 51.6906 39.4251 51.6906 37.6392C51.6906 36.7558 53.1553 36.5253 54.2275 36.5253C56.1326 36.5253 58.0759 37.1399 59.8469 37.7448V34.2113H59.8374Z" fill="#59605A"/>
<path d="M16.5764 47.5385L23.8999 33.856H29.6629L30.8308 39.6939L34.7271 33.856H41.0837L41.0741 47.5481H35.5312V41.2301L31.1372 47.5289H26.8963L25.6613 41.2301L22.2916 47.5289L16.5764 47.5385Z" fill="#59605A"/>
<path d="M82.1716 35.5076V35.1235H82.5354C82.6885 35.1235 82.8992 35.1235 82.8992 35.2963C82.8992 35.4692 82.7939 35.5076 82.612 35.5076H82.1716ZM82.7939 35.7956C83.081 35.7764 83.2246 35.6132 83.2246 35.3251C83.2246 34.9027 82.9757 34.8355 82.6024 34.8355H81.827V36.4294H82.162V35.7956H82.4396L82.813 36.4294H83.1768L82.7939 35.7956ZM82.4779 34.4322C83.1385 34.4322 83.665 34.9507 83.665 35.642C83.665 36.3333 83.1289 36.8518 82.4779 36.8518C81.8174 36.8518 81.2909 36.3333 81.2909 35.642C81.2813 34.9507 81.8174 34.4322 82.4779 34.4322ZM82.4779 37.1783C83.3299 37.1783 84.0001 36.4966 84.0001 35.642C84.0001 34.7874 83.3299 34.1057 82.4779 34.1057C81.6259 34.1057 80.9558 34.7874 80.9558 35.642C80.9558 36.4966 81.6259 37.1783 82.4779 37.1783Z" fill="#59605A"/>
</g>
<defs>
<clipPath id="clip0_432_2890">
<rect width="84" height="48" fill="white"/>
</clipPath>
</defs>
</svg>
