<svg width="158" height="28" viewBox="0 0 158 28" fill="none" xmlns="http://www.w3.org/2000/svg">
<g clip-path="url(#clip0_432_2881)">
<path fill-rule="evenodd" clip-rule="evenodd" d="M151.213 7.12112C151.459 7.12112 151.729 7.17232 151.729 7.44537C151.729 7.70247 151.564 7.82469 151.252 7.82469H150.901V7.12112H151.213ZM152.002 8.75287L151.416 7.96397C151.686 7.94855 151.931 7.71898 151.931 7.43822C151.931 7.11286 151.712 6.94935 151.261 6.94935H150.714V8.75287H150.901V7.97993H151.182L151.748 8.75287H152.002ZM151.307 6.41865C152.091 6.41865 152.69 7.06662 152.69 7.84671C152.69 8.6312 152.095 9.27972 151.307 9.27972C150.518 9.27972 149.921 8.6312 149.921 7.84671C149.921 7.06662 150.518 6.41865 151.307 6.41865ZM151.307 9.45148C152.146 9.45148 152.891 8.74461 152.891 7.84671C152.891 6.95266 152.15 6.24579 151.307 6.24579C150.46 6.24579 149.718 6.95266 149.718 7.84671C149.718 8.74461 150.46 9.45148 151.307 9.45148ZM152.88 13.9063C153.82 13.9063 154.496 14.6528 154.496 16.1998C154.496 17.7446 153.82 18.4905 152.88 18.4905C151.96 18.4905 151.3 17.7446 151.3 16.1998C151.3 14.6528 151.96 13.9063 152.88 13.9063ZM154.551 12.6456C153.806 11.8809 152.792 11.6662 151.782 11.6662C148.674 11.7213 147.768 14.3341 147.768 16.306C147.768 19.0609 149.936 20.7289 151.872 20.7289C153.13 20.7289 154.214 20.2483 154.749 19.3807H154.782V20.3738H157.964V7.68926H154.551V12.6456ZM140.562 20.3738V15.6124C140.562 14.8317 141.127 14.1194 141.945 14.1194C142.729 14.1194 143.103 14.5091 143.103 15.3817V20.3738H146.514V14.6534C146.443 12.6274 144.898 11.6657 143.492 11.6657C142.261 11.6657 141.04 12.0582 140.542 13.445H140.508V12.0241H137.15V20.3738H140.562ZM112.848 20.3738V15.2562C112.848 14.3704 113.398 14.1194 113.948 14.1194C114.5 14.1194 115.031 14.3704 115.031 15.2562V20.3738H118.443V15.2562C118.443 14.3704 118.994 14.1194 119.546 14.1194C120.096 14.1194 120.63 14.3704 120.63 15.2562V20.3738H124.041V15.2562C124.041 12.3803 122.424 11.6657 120.613 11.6657C119.616 11.6657 118.479 12.1298 117.965 13.162C117.449 12.1656 116.594 11.6657 115.423 11.6657C114.57 11.6657 113.324 12.0241 112.739 13.2292H112.705V12.0241H109.433V20.3738H112.848ZM92.9376 10.803H96.3503V7.74376H92.9376V10.803ZM92.9376 20.3744H96.3503V12.2113H92.9376V20.3744ZM78.8134 7.68871H84.2674C89.1561 7.68871 91.7677 9.64251 91.7677 14.0285C91.7677 18.4195 89.1561 20.3738 84.2674 20.3738H78.8134V7.68871ZM82.4386 17.7803H84.4821C86.8995 17.7803 87.9306 16.3583 87.9306 14.0285C87.9306 11.0992 86.3115 10.2828 84.4821 10.2828H82.4386V17.7803ZM135.889 16.2031C135.889 18.7449 134.143 20.735 130.597 20.735C127.055 20.735 125.31 18.7449 125.31 16.2031C125.31 13.6613 127.055 11.6695 130.597 11.6695C134.143 11.6695 135.889 13.6613 135.889 16.2031ZM128.907 16.2031C128.907 17.9273 129.513 18.7806 130.597 18.7806C131.684 18.7806 132.291 17.9273 132.291 16.2031C132.291 14.4772 131.684 13.6261 130.597 13.6261C129.513 13.6261 128.907 14.4772 128.907 16.2031ZM102.843 13.8854C103.786 13.8854 104.461 14.6319 104.461 16.1712C104.461 17.7132 103.786 18.4514 102.843 18.4514C101.901 18.4514 101.244 17.7132 101.244 16.1712C101.244 14.6319 101.901 13.8854 102.843 13.8854ZM108.035 20.3711C107.581 19.8806 107.502 19.2227 107.502 18.3127V18.0369C107.498 18.0336 107.495 18.0336 107.492 18.0336V12.0109H104.461V12.7618C103.83 12.0142 102.796 11.6503 101.814 11.6503C99.2851 11.6503 97.535 13.7417 97.535 16.1772C97.535 18.6171 99.3165 20.7223 101.848 20.7223C102.846 20.7223 104.09 20.3001 104.557 19.3339H104.57C104.566 19.803 104.604 20.1278 104.753 20.3711H108.035ZM67.586 20.3738V18.1371L68.6524 17.1048L70.359 20.3738H74.1972L71.0334 14.9391L73.8945 12.0241H69.809L67.6031 14.4755V7.68871H64.1931V20.3738H67.586ZM62.9847 14.9743C62.6308 12.8763 60.6043 11.6662 58.2255 11.6662C54.8475 11.6662 53.1414 14.0483 53.1414 16.1453C53.1414 19.0966 55.3446 20.7295 58.1512 20.7295C59.343 20.7295 60.5179 20.5175 61.4042 19.9852C62.2927 19.4501 62.8961 18.5984 62.9847 17.3195H59.577C59.5021 18.0468 59.2539 18.6342 58.2255 18.6342C57.4768 18.6342 56.7319 18.2417 56.7319 16.0743C56.7319 14.5647 57.299 13.7626 58.1875 13.7626C58.58 13.7626 58.8635 13.8711 59.0766 14.0841C59.272 14.2988 59.3975 14.6022 59.4691 14.9743H62.9847ZM37.4405 20.3744H40.8504V7.68926H37.4405V20.3744ZM24.3606 7.68871H31.061C34.1511 7.68871 35.6618 8.82664 35.6618 10.7089C35.6618 12.3621 34.9714 13.162 33.3523 13.5876V13.6228C35.1118 13.854 36.2139 14.9204 36.2139 16.7503C36.2139 18.349 35.3243 20.3738 31.0065 20.3738H24.3606V7.68871ZM27.9875 10.2079V12.6274H30.3674C31.7008 12.6274 32.0371 12.1656 32.0371 11.3838C32.0371 10.6731 31.7008 10.2079 30.3674 10.2079H27.9875ZM27.9875 15.0806V17.8536H30.1543C32.0911 17.8536 32.5898 17.4258 32.5898 16.4668C32.5898 15.401 32.1098 15.0806 30.9025 15.0806H27.9875ZM47.313 13.8997C48.2544 13.8997 48.9299 14.6418 48.9299 16.1838C48.9299 17.7242 48.2544 18.4674 47.313 18.4674C46.3716 18.4674 45.7127 17.7242 45.7127 16.1838C45.7127 14.6418 46.3716 13.8997 47.313 13.8997ZM52.5039 20.3838C52.0492 19.8938 51.9704 19.237 51.9704 18.327V18.0484C51.9682 18.0468 51.9644 18.0468 51.96 18.0468V12.023H48.9299V12.775C48.2979 12.0274 47.2657 11.6629 46.283 11.6629C43.7539 11.6629 42.0049 13.7527 42.0049 16.1904C42.0049 18.6314 43.7864 20.7366 46.3149 20.7366C47.3158 20.7366 48.5611 20.3111 49.024 19.3482H49.04C49.0356 19.8145 49.0725 20.1421 49.2239 20.3838H52.5039ZM9.18107 0.787354L0 13.9988L9.20474 27.208L12.1891 22.9151L5.88894 13.9058L12.0977 4.96912L9.18107 0.787354ZM8.81662 13.9982L13.5946 7.11947L18.388 13.9982L13.6161 20.8616L8.81662 13.9982Z" fill="#59605A"/>
</g>
<defs>
<clipPath id="clip0_432_2881">
<rect width="158" height="26.4251" fill="white" transform="translate(0 0.787354)"/>
</clipPath>
</defs>
</svg>
