<svg width="112" height="29" viewBox="0 0 112 29" fill="none" xmlns="http://www.w3.org/2000/svg">
<path fill-rule="evenodd" clip-rule="evenodd" d="M25.6956 11.1425V9.74594C27.7903 9.46664 28.9075 7.93048 29.3265 4.43921H30.723V9.60629H33.6557V11.1425H30.723V18.4043C30.723 19.3819 30.8626 19.9405 31.5609 19.9405C32.5384 19.9405 33.0971 18.5439 33.0971 16.8681H34.2143C34.2143 19.9405 33.2367 22.0352 30.4437 22.0352C27.93 22.0352 27.2317 20.6387 27.2317 17.5664V11.1425H25.6956Z" fill="#59605A"/>
<path fill-rule="evenodd" clip-rule="evenodd" d="M36.4488 12.3992C36.4488 11.4217 36.3091 11.1424 35.3316 11.1424H34.6333V9.88551L39.6607 9.60621V13.0975C40.2193 11.1424 41.3365 9.3269 43.2917 9.3269C44.6882 9.3269 45.8054 10.1648 45.8054 11.8406C45.8054 13.0975 44.9675 14.075 43.9899 14.075C42.7331 14.075 42.1744 12.9578 42.1744 11.9803C42.1744 11.5613 42.4538 11.1424 42.7331 10.8631H42.5934C40.7779 11.4217 39.94 14.075 39.94 19.3818C39.94 20.3593 39.94 20.499 41.1969 20.499H42.1744V21.7558H34.773V20.499H35.1919C36.4488 20.499 36.4488 20.3593 36.4488 19.3818V12.3992Z" fill="#59605A"/>
<path fill-rule="evenodd" clip-rule="evenodd" d="M53.2069 17.287C53.2069 19.2421 52.2294 20.3593 51.1122 20.3593C50.1346 20.3593 49.576 19.6611 49.576 18.5439C49.576 16.8681 50.5535 16.3094 53.2069 15.6112V17.287ZM53.2069 14.3543C47.4812 15.4715 45.9451 16.8681 45.9451 19.1025C45.9451 21.1972 47.3416 22.0351 49.2967 22.0351C51.1122 22.0351 52.6483 21.4765 53.6259 20.3593C53.9052 21.3369 55.0224 22.0351 55.9999 22.0351C57.2568 22.0351 58.374 21.0576 58.374 20.08C58.374 19.8007 58.2343 19.6611 58.0947 19.6611C57.6757 19.6611 57.5361 19.9404 57.1171 19.9404C56.8378 19.9404 56.5585 19.6611 56.5585 18.4042V13.2371C56.5585 10.1648 54.1845 9.3269 51.5311 9.3269C48.3191 9.3269 46.5037 10.7234 46.5037 12.5389C46.5037 13.9354 47.4812 14.494 48.3191 14.494C49.4363 14.494 50.1346 13.7957 50.1346 12.8182C50.1346 12.1199 49.576 11.8406 49.576 11.4217C49.576 11.0027 49.9949 10.5838 51.1122 10.5838C52.6483 10.5838 53.2069 11.282 53.2069 13.0975V14.3543Z" fill="#59605A"/>
<path fill-rule="evenodd" clip-rule="evenodd" d="M59.0723 20.499H59.3516C60.6084 20.499 60.7481 20.3593 60.7481 19.3818V12.3992C60.7481 11.4217 60.4688 11.1424 59.6309 11.1424H58.9326V9.88551L64.0997 9.60621V11.701H64.2394C64.9376 10.1648 66.1945 9.3269 67.8703 9.3269C70.1047 9.3269 71.5012 10.5838 71.5012 13.6561V19.3818C71.5012 20.3593 71.6408 20.499 72.8977 20.499H73.3167V21.7558H66.6134V20.499H66.8927C68.0099 20.499 68.1496 20.3593 68.1496 19.3818V13.9354C68.1496 12.5389 67.591 11.5613 66.4738 11.5613C65.2169 11.5613 64.0997 12.8182 64.0997 15.4715V19.3818C64.0997 20.3593 64.2394 20.499 65.4962 20.499H65.7755V21.7558H59.0723V20.499Z" fill="#59605A"/>
<path fill-rule="evenodd" clip-rule="evenodd" d="M77.6458 13.5165C77.6458 11.701 78.0648 10.5838 79.3216 10.5838C80.5785 10.5838 80.9974 11.701 80.9974 13.5165C80.9974 15.3319 80.4388 16.5888 79.3216 16.5888C78.2044 16.5888 77.6458 15.3319 77.6458 13.5165ZM73.5959 24.5489C73.5959 26.085 75.1321 26.9229 79.0423 26.9229C82.9526 26.9229 85.4663 25.5264 85.4663 22.5938C85.4663 21.0576 84.3491 19.5214 82.394 19.3818H78.0648C77.5062 19.3818 77.2269 18.9628 77.2269 18.5439C77.2269 18.1249 77.6458 17.706 78.4837 17.706H79.6009C82.6733 17.706 84.6284 16.0302 84.6284 13.6561C84.6284 12.3992 84.0698 11.282 83.2319 10.5838C83.5112 10.3045 83.7905 9.88553 84.0698 9.88553C84.2094 10.5838 84.6284 11.282 85.3266 11.282C86.3042 11.282 86.7231 10.4441 86.7231 9.74588C86.7231 8.62867 86.0249 8.07007 85.187 8.07007C84.0698 8.07007 83.0922 8.90797 82.2543 10.0252C81.4164 9.60623 80.2992 9.32693 79.3216 9.32693C76.389 9.32693 74.0149 11.0027 74.0149 13.6561C74.0149 15.1923 74.7132 16.7284 76.6683 17.287C75.1321 17.4267 73.8752 18.4042 73.8752 19.6611C73.8752 20.7783 74.4339 21.7559 76.2493 22.0352V22.1748C74.8528 22.1748 73.5959 23.0127 73.5959 24.5489ZM76.389 24.1299C76.389 23.5713 76.8079 23.1524 77.0872 22.8731H80.7181C81.8353 22.8731 82.5336 23.1524 82.5336 23.9903C82.5336 24.8282 81.975 25.6661 79.182 25.6661C77.0872 25.6661 76.389 24.9678 76.389 24.1299Z" fill="#59605A"/>
<path fill-rule="evenodd" clip-rule="evenodd" d="M87.2817 20.4991H87.7007C88.9576 20.4991 88.9576 20.3594 88.9576 19.3819V12.3993C88.9576 11.4218 88.8179 11.1425 87.8403 11.1425H87.1421V9.88562L92.4488 9.60632V19.3819C92.4488 20.3594 92.5885 20.4991 93.7057 20.4991H94.1246V21.7559H87.2817V20.4991ZM90.773 2.90308C91.7506 2.90308 92.5885 3.88063 92.5885 4.99784C92.5885 6.2547 91.7506 7.23225 90.773 7.23225C89.6558 7.23225 88.8179 6.2547 88.8179 4.99784C88.8179 3.88063 89.6558 2.90308 90.773 2.90308Z" fill="#59605A"/>
<path fill-rule="evenodd" clip-rule="evenodd" d="M102.224 17.287C102.224 19.2421 101.386 20.3593 100.129 20.3593C99.1519 20.3593 98.5933 19.6611 98.5933 18.5439C98.5933 16.8681 99.5709 16.3094 102.224 15.6112V17.287ZM102.224 14.3543C96.4986 15.4715 94.9624 16.8681 94.9624 19.1025C94.9624 21.1972 96.3589 22.0351 98.314 22.0351C100.129 22.0351 101.666 21.4765 102.643 20.3593C102.923 21.3369 104.04 22.0351 105.157 22.0351C106.274 22.0351 107.531 21.0576 107.531 20.08C107.531 19.8007 107.391 19.6611 107.112 19.6611C106.693 19.6611 106.553 19.9404 106.274 19.9404C105.855 19.9404 105.716 19.6611 105.716 18.4042V13.2371C105.716 10.1648 103.202 9.3269 100.688 9.3269C97.3365 9.3269 95.521 10.7234 95.521 12.5389C95.521 13.9354 96.4986 14.494 97.3365 14.494C98.4537 14.494 99.1519 13.7957 99.1519 12.8182C99.1519 12.1199 98.5933 11.8406 98.5933 11.4217C98.5933 11.0027 99.1519 10.5838 100.129 10.5838C101.666 10.5838 102.224 11.282 102.224 13.0975V14.3543Z" fill="#59605A"/>
<path fill-rule="evenodd" clip-rule="evenodd" d="M9.49613 9.74585H7.54102V21.6162H19.4113V9.74585H17.4562V19.6611H9.49613V9.74585Z" fill="#59605A"/>
<path fill-rule="evenodd" clip-rule="evenodd" d="M22.4837 13.6562H20.5286V6.81327H6.42386V13.6562H4.46875V4.85815H22.4837V13.6562Z" fill="#59605A"/>
<path fill-rule="evenodd" clip-rule="evenodd" d="M105.157 8.07037C106.135 8.07037 106.833 7.37211 106.833 6.53421C106.833 5.6963 106.135 4.99805 105.157 4.99805C104.319 4.99805 103.621 5.6963 103.621 6.53421C103.621 7.37211 104.319 8.07037 105.157 8.07037Z" fill="#F8F6F4" stroke="#59605A" stroke-width="0.279302"/>
<path fill-rule="evenodd" clip-rule="evenodd" d="M104.878 5.97535H105.157C105.436 5.97535 105.436 5.97535 105.436 6.115C105.436 6.3943 105.436 6.3943 105.157 6.3943H104.878V5.97535ZM104.459 7.37186H104.878V6.6736H105.157C105.297 6.6736 105.436 6.81325 105.436 6.95291C105.436 7.09256 105.436 7.37186 105.436 7.37186H105.855C105.855 7.37186 105.855 7.09256 105.855 6.95291C105.716 6.81325 105.716 6.6736 105.576 6.53395C105.716 6.53395 105.855 6.3943 105.855 6.115C105.855 5.8357 105.576 5.5564 105.297 5.5564H104.459V7.37186Z" fill="#59605A"/>
</svg>
