<svg width="96" height="48" viewBox="0 0 96 48" fill="none" xmlns="http://www.w3.org/2000/svg">
<path d="M72.2057 7.36209C84.7063 19.4652 81.3051 26.9891 65.0204 29.1535C57.3346 30.1695 40.1959 29.6836 50.6499 17.8014C56.1861 11.4995 62.326 -2.20846 72.2057 7.36209Z" fill="#59605A"/>
<path d="M13.1921 33.5115V43.4207H6.91968C4.07796 43.4207 3.06201 42.5961 3.06201 40.2845V39.1949H5.83011V39.9606C5.83011 40.7998 6.27183 41.1532 7.33195 41.1532H8.56876C9.52582 41.1532 10.3356 41.0648 10.3356 39.9606V33.5115H13.1921Z" fill="#59605A"/>
<path d="M81.5698 33.5115V39.9606C81.5698 41.0648 82.3649 41.1532 83.3367 41.1532H84.5735C85.6189 41.1532 86.0753 40.7998 86.0753 39.9606V39.1949H88.8434V40.2845C88.8434 42.5961 87.8422 43.4207 84.9858 43.4207H78.7134V33.5115H81.5698Z" fill="#59605A"/>
<path d="M39.7689 33.5115V35.6906H35.6315V43.4207H32.775V35.6906H28.6523V33.5115H39.7689Z" fill="#59605A"/>
<path d="M61.8104 35.8526C60.0877 35.8526 59.7343 36.7213 59.7343 38.017V38.8857C59.7343 40.3581 60.0141 41.0501 61.6484 41.0501H65.6386C67.273 41.0501 67.5527 40.3434 67.5527 38.8857V38.017C67.5527 36.7213 67.1994 35.8526 65.4619 35.8526H61.8104ZM56.7896 39.8722V37.0599C56.7896 34.1004 58.4534 33.5115 61.1331 33.5115H66.1392C68.819 33.5115 70.4828 34.1004 70.4828 37.0599V39.8722C70.4828 42.8317 68.819 43.4207 66.1392 43.4207H61.1331C58.4534 43.4207 56.7896 42.817 56.7896 39.8722Z" fill="#59605A"/>
<path d="M75.8569 33.5115H73.0005V43.4207H75.8569V33.5115Z" fill="#59605A"/>
<path d="M26.7529 33.5115V35.6906H18.7431V37.5017H26.3259V39.3422H18.7431V41.2415H26.9443V43.4207H19.759C16.9173 43.4207 15.9014 42.5961 15.9014 40.2845V33.5115H26.7529Z" fill="#59605A"/>
<path d="M44.7307 39.3862H44.5981V41.2415H50.3257C50.8705 41.2415 51.5773 41.1531 51.5773 40.358C51.5773 39.4893 50.9 39.3862 50.3257 39.3862H44.7307ZM44.7307 35.6905H44.5981V37.5458H50.2521C50.9442 37.5458 51.2975 37.2366 51.2975 36.6181C51.2975 35.9997 50.9442 35.6905 50.2521 35.6905H44.7307ZM52.7552 38.3997C54.0215 38.5617 54.5221 39.3568 54.5221 40.8586C54.5221 43.1114 53.0938 43.4206 51.5478 43.4206H45.5994C42.7577 43.4206 41.7417 42.5961 41.7417 40.2844V33.5261H50.5908C53.1527 33.5261 54.154 34.2329 54.154 36.0586C54.154 37.7077 53.5797 38.1642 52.7552 38.3997Z" fill="#59605A"/>
<path d="M65.1674 18.169C67.5968 20.5985 67.6115 24.5298 65.1821 26.974L66.3453 25.8108C68.7747 23.3813 68.76 19.4353 66.3306 17.0059L63.6655 14.3408V16.6672L65.1674 18.169Z" fill="#F8F6F4"/>
<path d="M67.214 16.1223C69.6434 18.5518 69.6582 22.4831 67.2287 24.9272L68.3919 23.764C70.8214 21.3346 70.8066 17.3886 68.3772 14.9591L63.6655 10.2622V12.5886L67.214 16.1223Z" fill="#F8F6F4"/>
<path d="M63.6655 8.51022L69.2606 14.0906C71.6901 16.52 71.7048 20.4513 69.2753 22.8955L70.4385 21.7323C72.868 19.3029 72.8533 15.3568 70.4238 12.9274L63.6655 6.18384V8.51022Z" fill="#F8F6F4"/>
<path d="M90.5368 40.9619C90.0509 40.9619 89.6533 41.3595 89.6533 41.8453C89.6533 42.346 90.0509 42.7288 90.5368 42.7288C91.0226 42.7288 91.4055 42.346 91.4055 41.8453C91.4055 41.3595 91.0226 40.9619 90.5368 40.9619ZM90.5368 42.611C90.1392 42.611 89.83 42.2723 89.83 41.8601C89.83 41.4478 90.1539 41.1092 90.5368 41.1092C90.9343 41.1092 91.2435 41.4478 91.2435 41.8601C91.2435 42.2723 90.9196 42.611 90.5368 42.611ZM90.684 41.8895C90.7871 41.8453 90.8754 41.7717 90.8754 41.6392C90.8754 41.5509 90.846 41.4772 90.7871 41.4331C90.7282 41.3889 90.6251 41.3595 90.4779 41.3595C90.3601 41.3595 90.2864 41.3742 90.1981 41.3889V42.3754H90.3601V41.9484H90.4631C90.5957 41.9484 90.6545 41.9926 90.684 42.1251C90.6987 42.2576 90.7282 42.346 90.7576 42.3754H90.9196C90.9049 42.346 90.8754 42.2871 90.8607 42.1251C90.8312 41.9779 90.7723 41.9042 90.684 41.8895ZM90.4779 41.8159H90.3601V41.4773C90.3895 41.4773 90.419 41.4773 90.4779 41.4773C90.6545 41.4773 90.7134 41.5656 90.7134 41.6539C90.7134 41.7717 90.6104 41.8159 90.4779 41.8159Z" fill="#59605A"/>
</svg>
