<svg width="128" height="20" viewBox="0 0 128 20" fill="none" xmlns="http://www.w3.org/2000/svg">
<path fill-rule="evenodd" clip-rule="evenodd" d="M117.789 10.894C117.789 10.894 114.035 2.80245 114.051 2.78174C114.051 2.78174 113.329 2.78174 112.448 2.78174C111.709 2.78174 111.244 3.34882 111.211 3.75202C111.179 4.00419 109.72 17.1406 109.72 17.1406H112.463L113.377 8.85015L117.098 17.1406H119.955L121.558 2.78174H118.703L117.789 10.894Z" fill="#59605A"/>
<path fill-rule="evenodd" clip-rule="evenodd" d="M87.2924 11.3458C87.2924 11.3458 85.1101 2.80092 85.1101 2.79019C85.1101 2.79019 83.6509 2.79019 83.0243 2.79019C82.4779 2.76192 81.8854 3.17389 81.7411 3.74686C81.6777 4.33526 80.2495 17.1442 80.2495 17.1442H83.0092L83.8112 9.85821L85.6242 17.1288H87.3083L90.8552 9.83206L90.0526 17.1445L92.9889 17.1442L94.5777 2.79019L91.1281 2.79064L87.2924 11.3458Z" fill="#59605A"/>
<path fill-rule="evenodd" clip-rule="evenodd" d="M124.111 4.07164C124.063 4.1173 123.999 4.13907 123.934 4.13907L123.79 4.13862H123.759L123.775 4.1173L123.839 3.53555V3.51424H123.855L123.999 3.50713C124.064 3.50713 124.128 3.53555 124.16 3.57637C124.209 3.63382 124.24 3.7138 124.223 3.81902C124.207 3.93029 124.175 4.01314 124.111 4.07164ZM124.48 3.28731C124.384 3.19388 124.288 3.15186 124.111 3.15186H123.484L123.26 5.18509H123.646L123.726 4.44869L123.774 4.43977L124.015 5.1287C124.031 5.16075 124.063 5.18509 124.111 5.18509C124.111 5.18509 124.384 5.18509 124.497 5.18509L124.209 4.45927L124.191 4.431L124.223 4.42405C124.433 4.35662 124.592 4.12577 124.625 3.8231C124.641 3.71183 124.625 3.59406 124.608 3.49685C124.577 3.41809 124.545 3.34779 124.48 3.28731Z" fill="#59605A"/>
<path fill-rule="evenodd" clip-rule="evenodd" d="M25.4309 11.756L27.4358 5.55032L28.0455 11.756H25.4309ZM26.7297 2.78174C26.1685 2.78174 25.6227 3.1482 25.4464 3.6276L20.3291 17.1229H23.6979L24.5638 14.4479H28.3018L28.558 17.1229H31.7663L29.4738 2.78174H26.7297Z" fill="#59605A"/>
<path fill-rule="evenodd" clip-rule="evenodd" d="M100.752 11.756L102.773 5.55032L103.366 11.756H100.752ZM102.052 2.78174C101.491 2.78174 100.944 3.1482 100.768 3.6276L95.667 17.1232L99.0191 17.1229L99.8863 14.4479H103.624L103.882 17.1229H107.089L104.812 2.78174H102.052Z" fill="#59605A"/>
<path fill-rule="evenodd" clip-rule="evenodd" d="M6.25964 2.78174H4.25377C4.25377 2.78174 3.2912 2.8215 3.05037 3.83895C3.03389 3.87614 1.49365 17.1145 1.49365 17.1145C1.49365 17.1571 8.168 17.1299 8.168 17.1299L8.47293 14.3562H4.97536L6.25964 2.78174Z" fill="#59605A"/>
<path fill-rule="evenodd" clip-rule="evenodd" d="M12.7884 3.7969L11.2969 17.1299H17.8583L18.1786 14.3418L14.6336 14.3415L14.9539 11.5483L17.7618 11.5487L18.0666 8.79162H15.2592L15.6119 5.57207L19.1736 5.57161L19.4783 2.78247H14.0239C13.3983 2.78172 12.8364 3.23753 12.7884 3.7969Z" fill="#59605A"/>
<path fill-rule="evenodd" clip-rule="evenodd" d="M58.8159 3.7969L57.3242 17.1299H63.9023L64.207 14.3418L60.6768 14.3415L60.9816 11.5483L63.7902 11.5487L64.1098 8.79162H61.2865L61.64 5.57207L65.2009 5.57161L65.5211 2.78247H60.0666C59.4421 2.78172 58.8803 3.23753 58.8159 3.7969Z" fill="#59605A"/>
<path fill-rule="evenodd" clip-rule="evenodd" d="M33.5964 3.75791C33.5964 3.76971 33.4033 5.57088 33.4033 5.57088H36.067L34.7838 17.1394H37.8966L39.1798 5.57088H41.6014L41.9228 2.78174C41.9228 2.78174 35.0721 2.78174 34.7517 2.78174C34.4303 2.78174 33.7727 3.07186 33.5964 3.75791Z" fill="#59605A"/>
<path fill-rule="evenodd" clip-rule="evenodd" d="M50.8905 8.79044H47.3437L48.0178 2.78174H46.0284C45.4028 2.78174 44.8409 3.23755 44.7931 3.79692L43.3008 17.1299H46.4121L47.0384 11.5487H50.5845L49.9748 17.1299H53.0875L54.6757 2.78174H51.5636L50.8905 8.79044Z" fill="#59605A"/>
<path fill-rule="evenodd" clip-rule="evenodd" d="M74.5537 7.53206C74.4095 8.75663 73.7352 9.56228 72.7253 9.56228L71.7307 9.55819L72.1641 5.56882L73.1745 5.57064C74.2013 5.57094 74.6827 6.32503 74.5537 7.53206ZM76.6708 3.74256C76.0134 3.05181 75.2272 2.77515 73.9599 2.77515C73.9599 2.77515 71.1043 2.77515 70.6398 2.77515C69.8867 2.77515 69.4045 3.40073 69.3724 3.75132C69.3237 4.07168 67.8809 17.1292 67.8809 17.1292L70.9114 17.1289L71.4899 11.8543C71.4899 11.8543 73.6711 17.1366 73.6711 17.1297L76.8314 17.13L74.7622 11.8548C76.3012 11.3831 77.4411 9.72434 77.6809 7.55565C77.7619 6.73443 77.6986 5.91715 77.5045 5.25059C77.3292 4.66884 77.0402 4.15226 76.6708 3.74256Z" fill="#59605A"/>
<path fill-rule="evenodd" clip-rule="evenodd" d="M123.758 5.69059C122.859 5.69059 122.217 5.0263 122.315 4.2137C122.395 3.39263 123.196 2.73394 124.096 2.73394C124.994 2.73394 125.635 3.39158 125.538 4.2137C125.458 5.0263 124.656 5.69059 123.758 5.69059ZM124.111 2.52954C123.1 2.52954 122.202 3.28363 122.09 4.214C121.993 5.1356 122.716 5.89166 123.742 5.89166C124.753 5.89166 125.668 5.1356 125.763 4.214C125.86 3.28318 125.121 2.52954 124.111 2.52954Z" fill="#59605A"/>
</svg>
