<svg width="24" height="38" viewBox="0 0 24 38" fill="none" xmlns="http://www.w3.org/2000/svg">
<path d="M11.7 0.850098C10.9 5.2001 8.6 8.1001 6.2 10.7501C6.55 11.4501 8.4 10.9001 8.4 11.8501C7.5 13.6501 5.55 14.5001 4.6 16.2501C4.85 17.2001 7.15 16.2001 7.3 17.3501C6.65 20.3001 3.35 20.7001 2.4 23.4001C2.65 24.3501 4.95 23.3501 5.1 24.5001C3.9 26.0001 1.4 26.2501 0.75 28.3501C2.6 30.3501 7.5 30.2501 10.6 29.4501V37.1501H13.35C13.75 34.7501 12.7 30.9501 13.9 29.4501C16.65 30.2501 22.3 30.5001 23.25 27.8001C22 26.3001 19.65 25.9501 18.85 23.9501C20.1 24.1501 20.95 23.8501 21.6 23.4001C20.25 20.7501 17.15 19.7501 16.1 16.8001H18.85C19.1 13.6501 15.7 14.0501 15.55 11.3001C16.8 11.4501 17.6 11.2001 17.75 10.2001C14.5 8.3001 13.55 4.2001 11.7 0.850098Z" fill="#828C84"/>
</svg>
