<svg width="100" height="40" viewBox="0 0 100 40" fill="none" xmlns="http://www.w3.org/2000/svg">
<path d="M99.0916 17.2704H99.1583L99.3438 17.5996H99.5355L99.3375 17.2537C99.4521 17.2162 99.5313 17.1162 99.5313 16.9912C99.5313 16.8349 99.4042 16.714 99.2333 16.714H98.927V17.5976H99.0937V17.2704H99.0916ZM99.0916 17.1245V16.8599H99.2062C99.3063 16.8599 99.3604 16.9078 99.3604 16.9932C99.3604 17.0745 99.3063 17.1224 99.2062 17.1224H99.0916V17.1245ZM98.5644 17.1641C98.5644 16.7953 98.8416 16.514 99.1937 16.514C99.5459 16.514 99.823 16.7953 99.823 17.1641C99.823 17.533 99.5459 17.8164 99.1937 17.8164C98.8416 17.8164 98.5644 17.533 98.5644 17.1641ZM98.3936 17.1641C98.3936 17.6101 98.7499 17.9768 99.1937 17.9768C99.6397 17.9768 100 17.6101 100 17.1641C100 16.7182 99.6397 16.3535 99.1937 16.3535C98.7499 16.3535 98.3936 16.7182 98.3936 17.1641Z" fill="white"/>
<path d="M35.2811 9.29972C31.8199 4.13811 25.9352 0.733154 19.267 0.733154C8.64367 0.733154 0 9.37682 0 20.0001C0 30.6234 8.64367 39.2671 19.267 39.2671C25.9352 39.2671 31.8199 35.8621 35.2811 30.7005L33.8412 29.7378C30.6925 34.4347 25.335 37.5354 19.267 37.5354C9.59806 37.5354 1.73165 29.669 1.73165 20.0001C1.73165 10.3312 9.59806 2.4648 19.267 2.4648C25.335 2.4648 30.6904 5.56552 33.8412 10.2624L35.2811 9.29972Z" fill="white"/>
<path d="M19.2666 25.4637C16.2534 25.4637 13.8008 23.011 13.8008 19.9978C13.8008 16.9846 16.2534 14.532 19.2666 14.532C21.1587 14.532 22.8279 15.4989 23.8093 16.9638L22.3694 17.9265C21.6984 16.9263 20.5586 16.2657 19.2666 16.2657C17.2078 16.2657 15.5324 17.9411 15.5324 19.9999C15.5324 22.0587 17.2078 23.7341 19.2666 23.7341C20.5586 23.7341 21.6984 23.0735 22.3694 22.0733L23.8093 23.036C22.8279 24.4989 21.1587 25.4637 19.2666 25.4637Z" fill="white"/>
<path d="M27.6312 25.5889L26.1934 24.6283C24.6972 26.8621 22.1508 28.3354 19.2667 28.3354C14.6699 28.3354 10.9315 24.597 10.9315 20.0001C10.9315 15.4032 14.6699 11.6649 19.2667 11.6649C22.1508 11.6649 24.6972 13.1381 26.1934 15.372L27.6312 14.4113C25.8224 11.7149 22.7488 9.9353 19.2647 9.9353C13.7134 9.9353 9.19775 14.4509 9.19775 20.0022C9.19775 25.5514 13.7134 30.0691 19.2647 30.0691C22.7509 30.065 25.8245 28.2854 27.6312 25.5889Z" fill="white"/>
<path d="M19.267 34.666C11.1797 34.666 4.60107 28.0874 4.60107 20.0001C4.60107 11.9128 11.1797 5.33423 19.267 5.33423C24.3431 5.33423 28.8213 7.9265 31.4552 11.8566L30.0174 12.8172C27.6939 9.34974 23.743 7.0638 19.267 7.0638C12.1341 7.0638 6.33064 12.8672 6.33064 20.0001C6.33064 27.133 12.1341 32.9365 19.267 32.9365C23.743 32.9365 27.6939 30.6505 30.0174 27.1851L31.4552 28.1458C28.8213 32.0738 24.3411 34.666 19.267 34.666Z" fill="white"/>
<path d="M97.2282 21.7881C97.0698 22.2236 96.7343 22.5299 96.1217 22.5299C95.4694 22.5299 94.9255 22.0653 94.8964 21.4234H98.3743C98.3743 21.4047 98.3951 21.2067 98.3951 21.0192C98.3951 19.4584 97.4949 18.4998 95.9945 18.4998C94.7484 18.4998 93.6023 19.5084 93.6023 21.0588C93.6023 22.6987 94.7776 23.6573 96.1112 23.6573C97.3073 23.6573 98.0784 22.955 98.3242 22.1153L97.2282 21.7881ZM94.9255 20.5232C94.9547 20.0794 95.3298 19.5647 96.0133 19.5647C96.7635 19.5647 97.0802 20.0398 97.101 20.5232H94.9255ZM91.8227 17.1933H90.637V17.8747C90.637 18.3102 90.3995 18.6457 89.8869 18.6457H89.641V19.8126H90.5204V22.0757C90.5204 23.0155 91.1142 23.5781 92.0624 23.5781C92.4479 23.5781 92.6854 23.5093 92.8042 23.4593V22.3716C92.7355 22.3903 92.5562 22.4112 92.3979 22.4112C92.0228 22.4112 91.8248 22.2736 91.8248 21.8485V19.8126H92.8042V18.6457H91.8248V17.1933H91.8227ZM87.4342 22.905C87.4342 23.1426 87.4634 23.3989 87.4842 23.5073H88.7387C88.7283 23.3989 88.6991 23.0634 88.6991 22.6279V18.6457H87.4238V19.2479C87.305 18.9708 86.9008 18.5061 86.0297 18.5061C84.6169 18.5061 83.6875 19.6334 83.6875 21.0546C83.6875 22.5279 84.6357 23.6427 86.0693 23.6427C86.7216 23.6427 87.2258 23.3072 87.4321 22.8425V22.905H87.4342ZM85.0149 21.0567C85.0149 20.1669 85.5296 19.6439 86.2298 19.6439C86.9216 19.6439 87.4259 20.1669 87.4259 21.0567C87.4259 21.9465 86.9112 22.5091 86.2298 22.5091C85.5192 22.5091 85.0149 21.9361 85.0149 21.0567ZM78.7989 22.1528C78.8572 22.7071 79.3615 23.6552 80.8244 23.6552C82.0997 23.6552 82.7123 22.8446 82.7123 22.0548C82.7123 21.3443 82.2289 20.7608 81.2703 20.5628L80.5785 20.4149C80.3117 20.3649 80.1346 20.2169 80.1346 19.9794C80.1346 19.7022 80.4118 19.4959 80.7577 19.4959C81.3099 19.4959 81.5183 19.8606 81.5579 20.1481L82.654 19.9002C82.5935 19.3771 82.1309 18.4978 80.7473 18.4978C79.6991 18.4978 78.9281 19.2188 78.9281 20.0877C78.9281 20.7691 79.3532 21.3338 80.2909 21.5401L80.9327 21.6881C81.3078 21.7673 81.4558 21.9444 81.4558 22.1632C81.4558 22.4195 81.2474 22.6466 80.8139 22.6466C80.2409 22.6466 79.9554 22.2903 79.9242 21.9048L78.7989 22.1528ZM74.6583 20.7108C74.6583 20.1481 74.9938 19.7022 75.5669 19.7022C76.1983 19.7022 76.465 20.1273 76.465 20.6712V23.5073H77.7799V20.444C77.7799 19.3771 77.2256 18.5165 76.0212 18.5165C75.4981 18.5165 74.9147 18.7437 74.6188 19.2479V18.6457H73.3435V23.5073H74.6583V20.7108ZM71.0408 21.7881C70.8825 22.2236 70.547 22.5299 69.9343 22.5299C69.2821 22.5299 68.7382 22.0653 68.7091 21.4234H72.1869C72.1869 21.4047 72.2078 21.2067 72.2078 21.0192C72.2078 19.4584 71.3076 18.4998 69.8072 18.4998C68.5632 18.4998 67.415 19.5084 67.415 21.0588C67.415 22.6987 68.5903 23.6573 69.9239 23.6573C71.12 23.6573 71.891 22.955 72.1369 22.1153L71.0408 21.7881ZM68.7403 20.5232C68.7695 20.0794 69.1446 19.5647 69.8281 19.5647C70.5782 19.5647 70.895 20.0398 70.9158 20.5232H68.7403ZM65.1416 21.0754C65.1416 21.9444 64.6081 22.4487 63.9371 22.4487C63.264 22.4487 62.7222 21.934 62.7222 21.0754C62.7222 20.2148 63.2661 19.7126 63.9371 19.7126C64.6081 19.7126 65.1416 20.2169 65.1416 21.0754ZM62.741 25.3848V23.0321C62.9786 23.3572 63.4724 23.626 64.1434 23.626C65.5166 23.626 66.4356 22.5383 66.4356 21.0671C66.4356 19.6251 65.6146 18.5374 64.1934 18.5374C63.462 18.5374 62.9181 18.8645 62.7014 19.2396V18.6457H61.4261V25.3848H62.741ZM53.8869 23.5073V20.6608C53.8869 20.1273 54.2224 19.7022 54.7954 19.7022C55.3893 19.7022 55.656 20.0981 55.656 20.6212V23.5073H56.9605V20.6608C56.9605 20.1377 57.296 19.7022 57.8607 19.7022C58.4629 19.7022 58.7213 20.0981 58.7213 20.6212V23.5073H59.9966V20.3544C59.9966 19.05 59.1381 18.5061 58.2379 18.5061C57.5961 18.5061 57.0814 18.7228 56.6959 19.3167C56.4479 18.7937 55.9144 18.5061 55.2539 18.5061C54.7204 18.5061 54.0973 18.7624 53.8306 19.2375V18.6436H52.5761V23.5052H53.8869V23.5073ZM48.8878 18.4978C47.4354 18.4978 46.3393 19.5751 46.3393 21.0775C46.3393 22.5695 47.4354 23.6573 48.8878 23.6573C50.3402 23.6573 51.4363 22.5695 51.4363 21.0775C51.4363 19.5751 50.3402 18.4978 48.8878 18.4978ZM48.8878 22.4591C48.246 22.4591 47.6521 21.984 47.6521 21.0754C47.6521 20.1565 48.246 19.6918 48.8878 19.6918C49.5296 19.6918 50.1235 20.1565 50.1235 21.0754C50.1235 21.9944 49.5296 22.4591 48.8878 22.4591ZM42.1821 23.6552C44.1492 23.6552 45.1557 22.3507 45.4224 21.2734L44.1471 20.8879C43.9596 21.5401 43.3761 22.3216 42.18 22.3216C41.0527 22.3216 40.0066 21.5005 40.0066 20.0085C40.0066 18.4186 41.1131 17.6663 42.1612 17.6663C43.3761 17.6663 43.92 18.4082 44.0888 19.0791L45.3724 18.6749C45.0953 17.5392 44.0971 16.3535 42.1612 16.3535C40.2837 16.3535 38.5938 17.7768 38.5938 20.0085C38.5958 22.2424 40.2254 23.6552 42.1821 23.6552Z" fill="white"/>
</svg>
