<svg width="115" height="66" viewBox="0 0 115 66" fill="none" xmlns="http://www.w3.org/2000/svg">
<g clip-path="url(#clip0_124_1603)">
<path d="M0.491273 63.3444L51.8227 0.935654L59.819 11.1414L64.3892 5.58453L95.2243 44.3252C95.6178 44.9305 94.6916 44.9911 94.28 44.5794C74.6191 29.2224 51.9558 28.3205 33.5722 36.7102C19.4379 43.1993 11.5989 52.8966 1.27214 63.8892C1.0058 64.1798 0.0251746 63.98 0.491273 63.3263" fill="white"/>
<path d="M22.616 64.537L32.4343 46.232H40.1703L41.7321 54.0407L46.9621 46.232H55.4911L55.479 64.5491H48.0456V56.0927L42.1558 64.5249H36.4597L34.8011 56.0927L30.2794 64.5249L22.616 64.537Z" fill="white"/>
<path d="M93.378 50.8324V54.7125H97.7424C98.0245 54.739 98.309 54.7056 98.5774 54.6147C98.8457 54.5237 99.0918 54.3772 99.2998 54.1847C99.5077 53.9922 99.6727 53.7581 99.784 53.4975C99.8953 53.237 99.9504 52.9559 99.9458 52.6726C99.9115 52.1619 99.6777 51.6852 99.2949 51.3454C98.9121 51.0056 98.411 50.8301 97.8998 50.8566L93.378 50.8324ZM85.7207 64.4946V46.238H101.828C108.087 46.3833 107.706 51.8373 107.706 51.8373C107.573 54.8639 104.304 56.1108 104.304 56.1108L111.017 64.4946H102.452L98.2146 59.1314H93.372V64.4946H85.7207Z" fill="white"/>
<path d="M111.387 47.594V48.4172H111.895C112.343 48.4172 112.96 48.4898 112.96 48.0419C112.96 47.594 112.609 47.594 112.21 47.594H111.387ZM113.396 50.4269H112.851L112.004 48.8954H111.399V50.4269H110.92V47.1157H112.313C112.918 47.1157 113.451 47.2973 113.451 47.9935C113.46 48.1131 113.444 48.2334 113.404 48.3463C113.363 48.4592 113.299 48.5621 113.215 48.6481C113.131 48.7341 113.03 48.8012 112.918 48.8449C112.807 48.8886 112.687 48.9079 112.567 48.9014L113.396 50.4269ZM109.577 48.7562C109.574 49.2463 109.717 49.7262 109.988 50.1349C110.259 50.5436 110.644 50.8629 111.097 51.0521C111.549 51.2413 112.047 51.2921 112.528 51.1979C113.009 51.1038 113.451 50.869 113.799 50.5232C114.146 50.1774 114.383 49.7363 114.48 49.2557C114.576 48.7752 114.528 48.2768 114.341 47.8237C114.154 47.3706 113.836 46.9832 113.429 46.7106C113.022 46.438 112.543 46.2925 112.052 46.2925C111.728 46.2909 111.406 46.3535 111.106 46.4766C110.806 46.5997 110.533 46.7809 110.302 47.0098C110.072 47.2387 109.89 47.5109 109.765 47.8106C109.641 48.1103 109.577 48.4316 109.577 48.7562V48.7562ZM109.098 48.7562C109.097 48.1717 109.269 47.6 109.593 47.1134C109.917 46.6268 110.378 46.2473 110.918 46.0227C111.457 45.7982 112.052 45.7389 112.625 45.8522C113.198 45.9655 113.725 46.2463 114.139 46.6592C114.553 47.0721 114.835 47.5984 114.949 48.1716C115.064 48.7448 115.005 49.339 114.782 49.8792C114.559 50.4193 114.18 50.881 113.694 51.2058C113.208 51.5307 112.637 51.7041 112.052 51.7041C111.664 51.7081 111.278 51.6347 110.918 51.4881C110.558 51.3416 110.23 51.1248 109.955 50.8504C109.679 50.576 109.461 50.2495 109.313 49.89C109.165 49.5304 109.09 49.145 109.092 48.7562" fill="white"/>
<path d="M80.6542 46.7041C77.86 45.9987 75.0033 45.5688 72.1252 45.4208C65.7875 45.2756 59.7766 46.9947 59.7766 51.3772C59.7766 58.3142 72.8334 55.7598 72.0889 59.307C71.8952 60.2028 70.0611 60.6266 67.9364 60.5176C64.7645 60.3299 62.2524 59.307 60.1882 58.6108V63.5018C63.2489 64.3533 66.3888 64.8888 69.5586 65.0999C75.1518 65.4328 81.4411 63.6592 81.4411 58.9922C81.4411 51.9039 69.71 53.6653 69.71 51.2743C69.71 50.0637 71.6833 49.7792 73.1119 49.7792C75.6724 49.7792 78.2753 50.6085 80.6542 51.4075V46.7041Z" fill="white"/>
</g>
<defs>
<clipPath id="clip0_124_1603">
<rect width="114.63" height="64.2187" fill="white" transform="translate(0.370117 0.935638)"/>
</clipPath>
</defs>
</svg>
