<svg width="208" height="42" viewBox="0 0 208 42" fill="none" xmlns="http://www.w3.org/2000/svg">
<path d="M4.77004 40.336V33.8009H1.79785V32.5245H9.49302V33.8009H6.52046V40.336H4.77004Z" fill="white"/>
<path d="M24.4986 40.336V36.9818H20.2513V40.336H18.5005V32.5245H20.2513V35.705H24.4986V32.5245H26.2497V40.336H24.4986Z" fill="white"/>
<path d="M35.7905 40.336V32.5245H41.9726V33.8009H37.5413V35.64H41.8104V36.9164H37.5413V39.0588H42.1671V40.336H35.7905Z" fill="white"/>
<path d="M65.3521 40.336V33.8009H62.3799V32.5245H70.0743V33.8009H67.1025V40.336H65.3521Z" fill="white"/>
<path d="M78.8369 40.336V32.5245H85.019V33.8009H80.5877V35.64H84.8571V36.9164H80.5877V39.0588H85.2131V40.336H78.8369Z" fill="white"/>
<path d="M100.687 40.336L96.1587 34.2335H96.1373V40.336H94.5596V32.5245H97.0234L101.444 38.5176H101.466V32.5245H103.044V40.336H100.687Z" fill="white"/>
<path d="M114.81 40.336V33.8009H111.838V32.5245H119.533V33.8009H116.561V40.336H114.81Z" fill="white"/>
<path d="M138.261 40.336V33.6276H138.239L135.191 40.336H133.052L129.928 33.6276H129.906V40.336H128.329V32.5245H131.247L134.197 38.8855L137.094 32.5245H140.011V40.336H138.261Z" fill="white"/>
<path d="M156.87 40.336L155.973 38.583H151.476L150.655 40.336H148.775L152.752 32.5245H154.957L158.944 40.336H156.87ZM152.103 37.3058H155.347L153.725 33.9091L152.103 37.3058Z" fill="white"/>
<path d="M173.047 40.336L169.501 36.2241V40.336H167.75V32.5245H169.501V35.9324L172.798 32.5245H174.949L171.512 36.0406L175.36 40.336H173.047Z" fill="white"/>
<path d="M184.165 40.336V32.5245H190.347V33.8009H185.915V35.64H190.185V36.9164H185.915V39.0588H190.541V40.336H184.165Z" fill="white"/>
<path d="M200.984 36.0406H203.253C204.28 36.0406 205.101 35.8132 205.101 34.872C205.101 33.9305 204.258 33.8008 203.329 33.8008H200.984V36.0406ZM199.233 32.5244H203.913C205.631 32.5244 206.917 33.0758 206.917 34.6228C206.917 35.9865 205.966 36.5491 204.766 36.6352V36.6574C206.55 36.7329 206.69 37.5335 206.777 38.9832C206.809 39.6319 206.895 40.0322 207.014 40.3359H205.134C205.037 40.1085 204.982 39.5564 204.961 39.102C204.886 37.5658 204.539 37.2527 202.832 37.2527H200.984V40.3359H199.233V32.5244Z" fill="white"/>
<path d="M15.2578 17.4919H11.3008V26.1276H2.0249V2.68674H11.3008V10.6091H15.2578V2.68674H24.5333V26.1276H15.2578V17.4919Z" fill="white"/>
<path d="M29.4668 2.68677H38.7423V26.1277H29.4668V2.68677Z" fill="white"/>
<path d="M43.6733 2.68686H52.9492V19.8291H61.4791V26.1277H43.6733V2.68686Z" fill="white"/>
<path d="M65.0796 2.68686H74.3555V19.8291H82.8849V26.1277H65.0796V2.68686Z" fill="white"/>
<path d="M86.4858 2.68686H104.292V8.79082H95.3724V11.2907H103.61V17.3946H95.3724V20.0241H104.584V26.1277H86.4858V2.68686Z" fill="white"/>
<path d="M117.233 21.1279H118.53C120.801 21.1279 121.709 20.3814 121.709 18.6607C121.709 17.2321 120.606 16.5499 118.433 16.5499H117.233V21.1279ZM117.233 7.68676V12.1347H118.466C120.606 12.1347 121.287 11.1608 121.287 9.79721C121.287 8.2389 120.281 7.68676 118.433 7.68676H117.233ZM108.541 2.68707H122.455C127.515 2.68707 129.979 4.82985 129.979 8.75834C129.979 11.0308 129.039 13.0439 125.568 13.8554V13.9204C129.168 14.4075 130.596 16.9074 130.596 19.4072C130.596 23.4334 127.45 26.1276 121.611 26.1276H108.541V2.68707Z" fill="white"/>
<path d="M134.747 2.68686H152.552V8.79082H143.633V11.2907H151.871V17.3946H143.633V20.0241H152.844V26.1277H134.747V2.68686Z" fill="white"/>
<path d="M166.662 12.4596C168.446 12.4596 169.744 11.8428 169.744 10.089C169.744 8.36836 168.543 8.01129 166.727 8.01129H165.884V12.4596H166.662ZM156.803 2.68686H170.652C175.678 2.68686 178.63 4.21285 178.63 8.62845C178.63 11.323 177.494 13.3684 173.992 14.2126V14.2772C176.262 14.4723 177.494 15.4789 177.948 17.2642C178.468 19.2777 178.403 22.5894 179.473 26.1277H170.392C169.841 24.3747 169.549 21.4201 169.224 19.407C169.03 18.2384 168.446 17.784 166.954 17.784H165.884V26.1277H156.803V2.68686Z" fill="white"/>
<path d="M194.328 12.914H206.392V25.1862C202.76 26.1277 198.544 26.7453 194.716 26.7453C186.284 26.7453 182.165 21.5825 182.165 14.4077C182.165 7.23213 186.284 2.07007 194.976 2.07007C202.176 2.07007 205.938 4.44024 206.036 9.92704H197.344C197.311 9.18021 197.019 8.69309 196.63 8.40105C196.241 8.10863 195.689 7.97896 195.106 7.97896C193.711 7.97896 192.803 8.69309 192.349 9.63462C191.895 10.5762 191.766 12.8813 191.766 14.8625C191.766 17.1342 191.96 18.6928 192.381 19.4393C192.933 20.4139 193.841 20.8356 195.041 20.8356C195.916 20.8356 196.76 20.7056 197.505 20.3489V17.5243H194.328V12.914Z" fill="white"/>
<path d="M34.116 10.1606C35.9633 10.1606 37.4614 8.66165 37.4614 6.81205C37.4614 4.96244 35.9633 3.46313 34.116 3.46313C32.2684 3.46313 30.771 4.96244 30.771 6.81205C30.771 8.66165 32.2684 10.1606 34.116 10.1606Z" fill="white"/>
</svg>
