<svg width="139" height="49" viewBox="0 0 139 49" fill="none" xmlns="http://www.w3.org/2000/svg">
<g clip-path="url(#clip0_124_1613)">
<path d="M62.7983 39.0158C65.0341 38.0097 66.4316 35.7738 66.3757 33.3144C66.3757 28.8985 62.7983 26.3832 58.5501 26.3832H52.7369C52.7369 26.3832 52.7369 26.3832 52.681 26.3832C50.9482 26.3832 49.5508 27.7806 49.5508 29.5134V44.1583C49.5508 45.8911 50.9482 47.3444 52.7369 47.3444C54.4697 47.3444 55.923 45.947 55.923 44.1583V40.0779L60.0593 45.947C60.6742 46.8413 61.6244 47.3444 62.6865 47.3444C63.4131 47.3444 64.0839 47.1208 64.6429 46.7296C65.9844 45.6675 66.2639 43.7111 65.2018 42.3696L62.7983 39.0158ZM60.0593 33.8174C59.9476 34.6559 59.165 35.2149 58.3266 35.1031H55.8671V32.0846H58.3266C58.4383 32.0846 58.606 32.0846 58.7178 32.0846C59.6122 32.1964 60.1711 32.979 60.0593 33.8174Z" fill="white"/>
<path d="M79.735 28.8985C79.176 27.3334 77.7227 26.3273 76.1017 26.3273C74.4807 26.2714 72.9715 27.3334 72.4684 28.8985L66.4875 42.7609C66.2639 43.2081 66.1521 43.7111 66.1521 44.2142C66.208 45.947 67.6054 47.3444 69.3941 47.3444C70.6797 47.3444 71.8535 46.5619 72.3007 45.2763L72.692 44.1024H79.4555L79.9027 45.3321C80.3498 46.5619 81.5237 47.3444 82.8652 47.3444C83.3124 47.3444 83.7595 47.2326 84.1508 47.0649C85.7159 46.3383 86.4426 44.4937 85.7159 42.8727L79.735 28.8985ZM74.5366 39.0158L76.0458 34.6L77.7227 39.0158H74.5366Z" fill="white"/>
<path d="M98.7399 26.2714C97.3984 26.2155 96.1686 27.054 95.7215 28.3396L92.2 37.6743L88.6226 28.3396C88.1754 27.054 86.9457 26.2155 85.6042 26.2714C83.3124 26.2714 81.8591 28.6191 82.8094 30.9108L88.399 44.6614C88.7903 45.7234 89.6846 46.5619 90.7467 47.009C92.8148 47.7916 95.1625 46.7855 95.9451 44.6614L101.535 30.9108L101.479 30.9667C101.702 30.5195 101.87 30.0165 101.87 29.5134C101.87 27.7247 100.529 26.2714 98.7399 26.2714Z" fill="white"/>
<path d="M114.055 41.2517H108.689V39.2953H113.049C114.503 39.2953 115.676 38.1215 115.676 36.6682C115.676 35.2148 114.503 34.041 113.049 34.041H108.689V32.3082H114.055C115.565 32.1964 116.794 31.0226 116.906 29.4575C117.018 27.7806 115.732 26.3832 114.055 26.2714H105.503C103.77 26.2714 102.373 27.6688 102.373 29.4016V44.0465C102.373 44.0465 102.373 44.0465 102.373 44.1024C102.373 45.8352 103.77 47.2326 105.503 47.2326H114.055C115.732 47.2326 117.074 45.8911 117.074 44.2142C117.018 42.6491 115.676 41.2517 114.055 41.2517Z" fill="white"/>
<path d="M52.7369 25.2653C54.4697 25.2653 55.923 23.8678 55.923 22.0792V17.7192H60.4506C61.9598 17.7192 63.1896 16.4895 63.1896 14.9803C63.1896 13.4711 61.9598 12.2414 60.4506 12.2414H55.923V10.285H61.2891C61.4009 10.285 61.5127 10.285 61.6245 10.285C63.3013 10.1732 64.5311 8.77576 64.4752 7.09887C64.3634 5.42197 62.966 4.19224 61.2891 4.24814H52.7369C52.7369 4.24814 52.7369 4.24814 52.681 4.24814C50.9482 4.24814 49.5508 5.64555 49.5508 7.37835V22.0233C49.5508 23.812 51.0041 25.2653 52.7369 25.2653Z" fill="white"/>
<path d="M62.6865 18.8372C62.1835 18.5018 61.5686 18.3341 60.9537 18.3341C59.3327 18.3341 57.9912 19.6756 57.9912 21.3525C57.9912 22.1909 58.3266 22.9735 58.9415 23.5325C60.0594 24.7063 62.0158 25.4888 64.9224 25.4888C69.8413 25.4888 72.5243 22.0792 72.5243 18.1105V7.43425C72.5243 7.43425 72.5243 7.43424 72.5243 7.37835C72.5243 5.64555 71.1269 4.24814 69.3941 4.24814C67.6613 4.24814 66.208 5.64555 66.208 7.37835V17.9987C66.208 18.0546 66.208 18.1664 66.208 18.2223C66.1521 18.9489 65.5373 19.5638 64.8106 19.5079C64.028 19.5079 63.3014 19.2843 62.6865 18.8372Z" fill="white"/>
<path d="M75.8223 25.2653C77.1079 25.2653 78.2818 24.4827 78.7289 23.1971L79.1202 22.0233H85.8278L86.275 23.253C86.7221 24.4827 87.896 25.2653 89.2375 25.2653C89.6847 25.2653 90.1318 25.1535 90.5231 24.9858C92.0882 24.2591 92.8149 22.4145 92.0882 20.7935L86.1632 6.81938C85.6042 5.25428 84.1509 4.24814 82.5299 4.24814C80.9089 4.19224 79.3997 5.25428 78.8966 6.81938L72.9157 20.6817H72.8598C72.6362 21.1289 72.5244 21.6879 72.5244 22.1909C72.5803 23.9237 74.0895 25.3212 75.8223 25.2653ZM82.474 12.5208L84.0391 16.9367H80.853L82.474 12.5208Z" fill="white"/>
<path d="M96.0008 25.2653H104.106C104.218 25.2653 104.329 25.2653 104.441 25.2653C106.118 25.1535 107.348 23.7561 107.292 22.0792C107.18 20.4023 105.783 19.1725 104.106 19.2284H99.1869V7.43425C99.1869 5.70145 97.7895 4.24814 96.0008 4.24814C94.268 4.24814 92.8147 5.64555 92.8147 7.43425V22.0792C92.8147 22.0792 92.8147 22.0792 92.8147 22.135C92.8706 23.8678 94.268 25.2653 96.0008 25.2653Z" fill="white"/>
<path d="M107.627 22.0792C107.627 23.8119 109.025 25.2094 110.758 25.2094H118.863C118.974 25.2094 119.086 25.2094 119.198 25.2094C120.875 25.0976 122.105 23.7002 122.049 22.0233C121.937 20.3464 120.54 19.1166 118.863 19.1725H113.944V7.43425C113.944 5.70145 112.546 4.24814 110.758 4.24814C108.969 4.24814 107.572 5.64555 107.572 7.43425L107.627 22.0792Z" fill="white"/>
<path d="M131.942 26.1596C130.21 26.2714 128.868 27.7247 128.98 29.4575V35.8856L123.614 27.9483C123.055 26.9422 121.993 26.3273 120.819 26.3273C120.819 26.3273 120.819 26.3273 120.763 26.3273C119.03 26.3273 117.633 27.7247 117.633 29.4575V44.0465C117.745 45.6675 119.03 46.9531 120.595 47.009C122.328 47.1208 123.837 45.7793 123.893 44.0465V37.6184L129.259 45.7234C129.874 46.6737 130.936 47.2885 132.054 47.2885H132.11C133.843 47.2326 135.184 45.8352 135.128 44.1583V29.5134L135.184 29.4575C135.184 29.3457 135.184 29.2339 135.184 29.1221C135.184 27.3893 133.675 26.1037 131.942 26.1596Z" fill="white"/>
<path d="M72.6921 26.6627C72.6921 27.3893 72.1331 28.0042 71.4065 28.0042C70.6798 28.0042 70.0649 27.4452 70.0649 26.7186C70.0649 25.9919 70.6239 25.3771 71.3506 25.3771H71.4065C72.0772 25.433 72.6362 25.9919 72.6362 26.6627H72.6921Z" fill="white"/>
<path d="M76.3811 4.52761C76.3811 3.80096 76.9401 3.1861 77.6667 3.1861C78.3934 3.1861 79.0082 3.74506 79.0082 4.47172C79.0082 5.19837 78.4493 5.81324 77.7226 5.81324C76.996 5.86913 76.3252 5.31017 76.3252 4.52761H76.3811Z" fill="white"/>
<path d="M80.9087 25.3212C81.6353 25.3212 82.1943 25.8801 82.1943 26.6068C82.1943 27.3334 81.6353 27.8924 80.9087 27.8924C80.182 27.8924 79.623 27.3334 79.623 26.6068C79.623 25.936 80.182 25.3771 80.8528 25.3212H80.9087Z" fill="white"/>
<path d="M85.8835 4.58352C85.8835 3.85686 86.4425 3.2979 87.1692 3.2979C87.8958 3.2979 88.4548 3.85686 88.4548 4.58352C88.4548 5.31017 87.8958 5.86914 87.1692 5.86914C86.4984 5.86914 85.9394 5.31017 85.8835 4.58352Z" fill="white"/>
<path d="M26.0183 3.3538C25.9624 2.40356 25.8506 1.34152 25.7947 0.167694L23.5029 3.18611H22.8321C18.3604 3.13021 14.0005 4.19225 10.0318 6.26042L10.0877 6.37222C11.8764 5.70146 13.8328 5.36608 15.7333 5.36608C17.5779 5.36608 19.4225 5.70146 21.1552 6.37222L20.0373 7.82553C18.4722 7.21067 16.7953 6.87529 15.0625 6.87529C12.8267 6.81939 10.5908 7.37836 8.63441 8.49629L4.16268 2.57125H4.10678C3.65961 7.82553 3.38013 13.6947 3.38013 16.6572C3.38013 23.4766 4.94523 24.8181 6.84572 26.3832C8.29903 27.557 9.92003 28.9544 10.9821 33.3703C11.6528 36.0533 12.1 36.6682 13.6651 36.6682C15.0066 36.6682 15.6215 36.1651 16.2363 33.8733C17.4102 29.5134 19.8137 27.3334 21.9937 25.3771C24.509 23.1412 26.8008 21.2407 26.8008 16.9367C26.8008 14.4213 26.4095 11.9619 25.6829 9.55832C27.6393 11.7383 28.7013 14.589 28.7013 17.5515C28.7013 20.9612 27.4716 23.3089 23.3911 26.8863C20.3168 29.6252 19.3666 30.799 18.025 34.9354C17.0748 37.9538 15.342 41.084 10.6467 41.084C9.13748 41.084 7.62827 40.8045 6.23085 40.2456L6.17496 40.3573C10.5349 45.5557 17.0748 48.5183 23.8383 48.4065C36.7504 48.4065 46.3646 38.5128 46.3646 25.7124C46.4205 13.9742 38.3155 4.75122 26.0183 3.3538ZM11.7087 23.4766C10.4231 23.1412 9.08158 22.9735 7.68417 22.9735V22.9176C7.85186 22.2469 8.13134 21.5761 8.63441 21.073C9.92003 21.4643 11.038 22.3027 11.7646 23.3648L11.7087 23.4766Z" fill="white"/>
</g>
<defs>
<clipPath id="clip0_124_1613">
<rect width="138.4" height="48.5183" fill="white" transform="translate(0.25)"/>
</clipPath>
</defs>
</svg>
