<svg width="150" height="40" viewBox="0 0 150 40" fill="none" xmlns="http://www.w3.org/2000/svg">
<g clip-path="url(#clip0_815_584)">
<path d="M15.3168 26.8478C15.6354 25.9271 15.3168 24.3337 15.0335 23.5901C14.042 23.3068 12.0945 23.3776 11.28 23.7317C9.68659 23.0944 6.78298 24.1921 5.18954 23.1652C4.80003 21.8196 4.6938 19.5888 5.64987 18.7389C8.05774 18.4911 10.1469 18.7035 12.4131 18.4557C12.9443 17.5704 12.8381 15.8707 11.9882 15.4104C9.47413 15.375 7.49118 15.6937 5.36659 15.2688C4.83544 14.0294 4.83544 12.3298 5.36659 10.9488C6.70233 10.5627 8.29429 10.6153 9.89954 10.6911L10.5418 10.7216C12.2533 10.8017 13.9431 10.8445 15.3168 10.3468C15.6 9.46157 15.3876 8.00976 15.1751 7.19534C10.6781 6.91206 5.89774 7.19534 1.89643 7.0537C1.57774 7.08911 1.61315 7.44321 1.29446 7.47861C1.18823 13.5337 0.869541 21.0406 1.4361 26.8478C5.36659 27.1311 10.8197 27.4144 15.3168 26.8478ZM24.8774 27.0957C25.621 25.2189 24.2754 22.5986 26.1876 22.0321C26.8604 21.855 27.8872 22.457 29.0912 22.1737C29.791 22.7403 30.1613 23.6835 30.5459 24.6229L30.6915 24.974C31.0849 25.906 31.5345 26.7873 32.3843 27.2373C32.6784 27.2048 33.0163 27.2157 33.3581 27.2309L33.6153 27.2422C34.2989 27.2727 34.9608 27.2811 35.2879 26.954C35.0046 24.6878 33.4112 23.5547 33.1279 21.3239C35.3587 19.6242 37.5895 16.4373 36.7397 12.7901C35.9607 9.49698 33.482 8.18681 30.6492 7.15993C28.5246 7.01829 26.6833 7.19534 24.5941 7.15993C23.4964 7.15993 22.08 6.6996 21.6905 7.30157C21.4072 8.25763 21.0177 10.3822 21.124 11.9048C21.1594 12.1881 21.4072 12.5422 21.4072 12.9317C21.5135 16.3311 21.5135 20.0491 21.4072 23.3422C21.4072 23.8025 21.124 24.1921 21.124 24.617C21.124 25.0065 21.4072 25.3252 21.4072 25.6439C21.4427 26.175 21.0177 26.4229 21.4072 26.8124C21.9738 27.4498 23.9213 27.2727 24.8774 27.0957ZM25.1607 18.4203C25.0545 15.8707 25.1607 13.6045 25.3023 10.7717C27.6748 9.81566 32.4197 10.5947 32.9863 13.0734C33.0925 13.4983 33.0217 14.4898 32.9863 14.9501C32.88 16.0478 32.4905 17.4288 31.6761 17.9953C31.2158 18.314 29.8348 18.7389 29.0912 18.8452C27.8518 18.9868 26.2584 18.7035 25.1607 18.4203ZM47.5397 3.68976C48.3895 -0.488599 42.901 -0.24073 43.4676 2.94616C43.7509 4.64583 46.3004 5.21239 47.5397 3.68976ZM53.7364 3.8314C55.2945 0.00713927 48.8499 -0.842697 49.983 3.68976C50.8328 4.82288 52.7804 4.85829 53.7364 3.8314ZM43.9279 26.6707C44.3528 25.8563 44.462 24.5452 44.8308 23.8591C44.8308 23.3407 46.2089 18.8948 46.4169 18.3844C46.9392 17.1007 47.8849 12.3499 48.5543 11.8448C48.7363 11.7076 48.9084 11.4819 49.0864 11.8448C49.652 13.0006 50.5982 16.5539 50.8608 17.1007C50.9813 17.3511 51.5671 19.8263 51.7402 20.2866C51.8666 20.6225 52.6682 23.9466 52.7449 24.0504C52.9402 24.1763 53.2053 26.1396 53.7718 26.8124C54.6571 27.3081 56.6754 27.2373 57.242 26.4937C56.3567 22.9527 55.2945 19.695 54.3384 16.1186C53.7718 13.9586 52.7804 11.834 52.6033 9.60321C51.9659 9.03665 51.9659 7.83271 51.4702 7.15993C49.7351 7.26616 47.2918 6.59337 45.8046 7.44321C45.4245 9.05632 44.9469 10.5627 44.462 12.0553L44.1713 12.9504C43.4454 15.1876 42.7436 17.4366 42.3699 20.0137C41.4846 22.1029 40.5994 24.1212 40.3161 26.8124C41.4492 27.3435 43.0427 27.3435 43.9279 26.6707ZM71.4413 27.4852C73.92 26.9894 76.1154 25.8917 76.7882 24.015C77.1069 23.0589 77.3194 21.9612 77.2131 21.1114C77.0361 18.9868 75.9384 18.3848 74.6282 17.4996C73.2472 16.6144 72.2912 16.154 70.5561 15.6229C69.7063 15.375 68.8564 15.0563 68.1128 14.773C66.5902 14.2065 64.6781 13.6399 65.0676 11.3029C65.8112 10.453 67.1213 10.1698 68.2544 9.70943C69.4938 10.276 70.4499 9.85107 71.583 10.4176C72.5036 10.9488 72.7161 12.0111 73.6013 12.2944C74.4158 12.5422 75.6905 12.5776 76.5049 11.8694C76.6112 9.9573 75.4426 9.42616 74.7699 8.25763C72.9286 7.4078 70.804 6.6996 68.3961 6.80583C67.4046 6.84124 66.2361 6.66419 65.2092 6.94747C63.9345 7.33698 62.164 8.61173 61.5974 9.5678C60.6768 11.3383 61.1371 14.1357 62.0577 15.3396C62.943 16.5789 64.501 16.9685 66.0945 17.6412C67.3165 18.1572 68.5702 18.5948 69.8479 18.9514C71.2997 19.4471 73.141 20.1907 73.3181 21.5363C73.6013 24.617 69.1043 24.8294 66.661 23.8734C65.9671 23.5758 65.5505 23.053 65.1566 22.5229L64.9884 22.2962C64.8779 22.1454 64.7626 21.9983 64.6427 21.855C64.3958 21.855 64.1263 21.8314 63.8508 21.8029L63.6433 21.7812C62.6376 21.676 61.6038 21.5791 61.3141 22.4216C60.8538 23.5547 61.739 24.4753 62.4826 25.1481C63.1554 25.8209 64.0407 26.6353 64.9259 27.0248C66.6256 27.7685 69.9187 27.7685 71.4413 27.4852ZM93.8558 26.6707C94.2453 26.4937 94.5994 26.4937 94.8826 26.3521C97.5384 25.1127 99.5213 20.8635 99.6276 17.3934C99.7338 14.3127 98.4236 11.657 97.1843 10.0281C96.1928 8.75337 95.6617 8.25763 94.4223 7.58484C93.0059 6.91206 90.8813 6.62878 89.5358 6.73501C86.7384 6.84124 84.72 7.7973 83.3036 9.31993C81.8872 10.878 81.2499 12.5068 80.8604 14.9501C80.4 17.7829 80.7541 20.0137 81.5686 21.8904C81.8518 22.4924 81.9581 23.3068 82.1351 23.6255C83.941 26.8478 89.7128 28.6537 93.8558 26.6707ZM86.4197 22.7048C85.2866 21.6071 84.4013 19.3763 84.5784 16.6852C84.8617 13.1088 85.7469 10.7717 89.2525 10.3114C90.7751 10.1344 92.1915 10.0989 93.1476 10.7717C94.741 11.8694 95.6971 14.4544 95.5908 17.7121C95.5908 19.3409 94.9535 21.6425 93.8558 22.7403C92.0499 24.617 88.084 24.2629 86.4197 22.7048ZM108.445 26.8478C108.671 26.3658 108.62 25.7034 108.564 25.0203L108.542 24.763C108.469 23.8203 108.448 22.8765 109.188 22.3507C110.144 21.678 112.588 22.2445 113.933 22.0675C114.181 22.0321 114.429 21.7488 114.818 21.6425C115.208 21.5009 115.81 21.6071 116.129 21.5009C117.722 20.8281 118.607 19.5534 119.28 18.314C119.528 17.8537 120.024 17.4642 120.165 16.8622C120.555 14.8793 119.917 14.2419 120.024 11.9403C119.068 10.0989 117.757 8.78878 115.668 7.90353C114.5 7.37239 113.579 7.0537 112.056 7.0537C110.321 7.0537 107.524 7.19534 106.143 6.91206C104.302 6.55796 105.081 9.42616 104.974 10.9488C104.939 12.1881 104.727 13.3921 104.833 14.4189C105.222 18.6327 104.55 23.7671 105.116 26.9894C105.824 27.4852 107.984 27.4144 108.445 26.8478ZM108.905 18.7389C108.409 16.5435 108.551 13.4983 108.728 10.8071C110.711 10.3468 113.65 10.2406 115.102 11.0904C117.226 12.4714 116.801 16.5789 115.102 18.1724C113.225 18.7389 111.136 18.916 108.905 18.7389ZM128.522 26.8478C128.748 26.3658 128.698 25.7034 128.641 25.0203L128.62 24.763C128.546 23.8203 128.525 22.8765 129.266 22.3507C130.222 21.678 132.665 22.2445 134.011 22.0675C134.258 22.0321 134.506 21.7488 134.896 21.6425C135.285 21.5009 135.887 21.6071 136.206 21.5009C137.799 20.8281 138.685 19.5534 139.357 18.314C139.605 17.8537 140.101 17.4642 140.243 16.8622C140.632 14.8793 139.995 14.2419 140.101 11.9403C139.145 10.0989 137.835 8.78878 135.746 7.90353C134.577 7.37239 133.656 7.0537 132.134 7.0537C130.399 7.0537 127.601 7.19534 126.22 6.91206C124.379 6.55796 125.158 9.42616 125.052 10.9488C125.016 12.1881 124.804 13.3921 124.91 14.4189C125.3 18.6327 124.627 23.7671 125.193 26.9894C125.902 27.4852 128.062 27.4144 128.522 26.8478ZM128.982 18.7389C128.487 16.5435 128.628 13.4983 128.805 10.8071C130.788 10.3468 133.727 10.2406 135.179 11.0904C137.304 12.4714 136.879 16.5789 135.179 18.1724C133.302 18.7389 131.213 18.916 128.982 18.7389ZM148.989 26.4583C149.095 20.2616 148.812 13.817 148.989 7.4078C148.21 6.45173 146.156 6.84124 145.235 7.4078C144.669 13.038 145.342 18.6327 145.235 23.5901C145.2 24.7586 144.846 25.5376 145.235 26.6353C145.944 27.2373 148.245 27.3081 148.989 26.4583Z" fill="white"/>
<path d="M1.104 38.4633C4.65286 38.4633 8.15942 36.8241 11.6252 33.5452C15.1317 36.8241 18.6388 38.4633 22.1458 38.4633C25.6524 38.4633 29.1594 36.8241 32.6665 33.5452C36.173 36.8241 39.6801 38.4633 43.1871 38.4633C46.6937 38.4633 50.2012 36.8241 53.7078 33.5452C57.2148 36.8241 60.7219 38.4633 64.2284 38.4633C67.7355 38.4633 71.2425 36.8241 74.7496 33.5452C78.3816 36.8241 81.9722 38.4633 85.5206 38.4633C89.0689 38.4633 92.576 36.8241 96.0412 33.5452C99.5483 36.8241 103.055 38.4633 106.562 38.4633C110.069 38.4633 113.576 36.8241 117.083 33.5452C120.59 36.8241 124.097 38.4633 127.604 38.4633C131.11 38.4633 134.617 36.8241 138.124 33.5452C141.631 36.8241 145.138 38.4633 148.645 38.4633" stroke="white" stroke-width="1.97003" stroke-linecap="round" stroke-linejoin="round"/>
</g>
<defs>
<clipPath id="clip0_815_584">
<rect width="150" height="39.8361" fill="white" transform="translate(0 0.0819702)"/>
</clipPath>
</defs>
</svg>
