<svg width="18" height="30" viewBox="0 0 18 30" fill="none" xmlns="http://www.w3.org/2000/svg">
<path d="M8.76 0.47998C8.12 3.95998 6.28 6.27998 4.36 8.39998C4.64 8.95998 6.12 8.51998 6.12 9.27998C5.4 10.72 3.84 11.4 3.08 12.8C3.28 13.56 5.12 12.76 5.24 13.68C4.72 16.04 2.08 16.36 1.32 18.52C1.52 19.28 3.36 18.48 3.48 19.4C2.52 20.6 0.52 20.8 0 22.48C1.48 24.08 5.4 24 7.88 23.36V29.52H10.08C10.4 27.6 9.56 24.56 10.52 23.36C12.72 24 17.24 24.2 18 22.04C17 20.84 15.12 20.56 14.48 18.96C15.48 19.12 16.16 18.88 16.68 18.52C15.6 16.4 13.12 15.6 12.28 13.24H14.48C14.68 10.72 11.96 11.04 11.84 8.83998C12.84 8.95998 13.48 8.75998 13.6 7.95998C11 6.43998 10.24 3.15998 8.76 0.47998Z" fill="#59605A"/>
</svg>
