<svg width="20" height="28" viewBox="0 0 20 28" fill="none" xmlns="http://www.w3.org/2000/svg">
<path d="M10.1984 27.6003C9.43843 22.6803 13.6784 18.0403 15.9584 14.1603C16.9184 8.40032 14.8384 3.80032 11.9984 1.60032C11.9984 1.56032 11.9984 1.56032 11.9584 1.52032C11.4384 0.760318 10.9984 0.360318 9.99843 0.400318C8.95843 0.480317 8.63843 1.00032 9.03843 2.00032L9.11843 2.12032C9.91843 6.96032 2.19843 10.6803 1.23843 14.8003C-0.361567 21.5203 3.11843 26.6403 10.1984 27.6003ZM11.1984 27.6003C17.4384 27.7603 21.6384 18.5603 17.4784 14.5603C16.8384 14.6003 16.2384 14.7203 15.7984 15.0403C14.9984 20.2403 9.59843 22.0403 11.1984 27.6003Z" fill="#59605A"/>
</svg>
